<?xml version="1.0" encoding="iso-8859-1"?>
<!-- Generator: Adobe Illustrator 19.0.0, SVG Export Plug-In . SVG Version: 6.00 Build 0)  -->
<svg version="1.1" id="Capa_1" xmlns="http://www.w3.org/2000/svg" xmlns:xlink="http://www.w3.org/1999/xlink" x="0px" y="0px"
	 viewBox="0 0 512 512" style="enable-background:new 0 0 512 512;" xml:space="preserve">
<path style="fill:#202738;" d="M504.5,256c0,137.24-111.26,248.5-248.5,248.5c-3.88,0-7.75-0.09-11.59-0.27
	C112.55,498.18,7.5,389.36,7.5,256C7.5,122.89,112.17,14.21,243.69,7.8c4.08-0.2,8.18-0.3,12.31-0.3
	C393.24,7.5,504.5,118.76,504.5,256z"/>
<circle style="fill:#FFFFFF;" cx="256" cy="256" r="158"/>
<path style="fill:#CFCFCF;" d="M256,98c-4.167,0-8.296,0.164-12.381,0.481c81.474,6.316,145.619,74.425,145.619,157.519
	s-64.145,151.203-145.619,157.519C247.704,413.836,251.833,414,256,414c87.261,0,158-70.739,158-158S343.261,98,256,98z"/>
<g>
	<path style="fill:#2C44BF;" d="M256,98v158H98C98,168.77,168.77,98,256,98z"/>
	<path style="fill:#2C44BF;" d="M256,414V256h158C414,343.23,343.23,414,256,414z"/>
</g>
<path style="fill:#263AA3;" d="M389.237,256c0,78.805-57.762,144.169-133.237,156.061V414c87.23,0,158-70.77,158-158H389.237z"/>
<path style="fill:#191E2B;" d="M504.5,256c0,137.24-111.26,248.5-248.5,248.5c-3.88,0-7.75-0.09-11.59-0.27
	c-0.27-0.22-0.53-0.34-0.79-0.35c131.37-6.5,235.89-115.06,235.89-248.03S374.99,14.32,243.62,7.81c0.02,0,0.05,0,0.07-0.01
	c4.08-0.2,8.18-0.3,12.31-0.3C393.24,7.5,504.5,118.76,504.5,256z"/>
<g>
	<path style="fill:#EBEBEB;" d="M265.987,24.24c-3.716,0-7.156,1.178-9.987,3.168c-2.831-1.99-6.272-3.168-9.988-3.168
		c-9.609,0-17.426,7.817-17.426,17.426v33.616c0,4.142,3.358,7.5,7.5,7.5s7.5-3.358,7.5-7.5V41.667c0-1.338,1.089-2.426,2.427-2.426
		s2.426,1.088,2.426,2.426v33.616c0,4.142,3.358,7.5,7.5,7.5c0.021,0,0.041-0.003,0.061-0.003c0.021,0,0.04,0.003,0.061,0.003
		c4.142,0,7.5-3.358,7.5-7.5V41.667c0-1.338,1.088-2.426,2.426-2.426s2.427,1.088,2.427,2.426v33.616c0,4.142,3.357,7.5,7.5,7.5
		s7.5-3.358,7.5-7.5V41.667C283.414,32.058,275.597,24.24,265.987,24.24z"/>
	<path style="fill:#EBEBEB;" d="M172.897,68.17c0.412-3.691-0.278-7.536-2.256-11c-4.969-8.706-16.095-11.746-24.8-6.777
		L126.98,61.159c-3.598,2.053-4.849,6.634-2.796,10.231l10.588,18.55l10.588,18.55c1.384,2.425,3.916,3.784,6.521,3.784
		c1.26,0,2.538-0.318,3.711-0.988l18.861-10.766c8.706-4.969,11.746-16.095,6.777-24.801
		C179.297,72.333,176.388,69.733,172.897,68.17z M153.276,63.42c1.522-0.87,3.468-0.338,4.337,1.185
		c0.869,1.522,0.337,3.468-1.185,4.337L144.08,75.99l-3.152-5.522L153.276,63.42z M167.017,87.493l-12.348,7.048l-3.153-5.523
		l6.703-3.826l5.646-3.222c0.994-0.568,1.939-0.436,2.414-0.306c0.475,0.129,1.355,0.496,1.923,1.491
		C169.071,84.678,168.54,86.624,167.017,87.493z"/>
	<path style="fill:#EBEBEB;" d="M385.396,62.052c-3.599-2.052-8.179-0.8-10.231,2.798l-16.657,29.2
		c-0.434,0.759-1.104,1.039-1.467,1.138s-1.082,0.2-1.843-0.233c-0.759-0.433-1.038-1.105-1.138-1.467
		c-0.099-0.362-0.2-1.083,0.233-1.842l16.656-29.199c2.053-3.598,0.8-8.179-2.799-10.231c-0.015-0.009-0.031-0.015-0.047-0.024
		c-0.02-0.012-0.038-0.025-0.058-0.037c-3.598-2.053-8.179-0.8-10.231,2.798l-16.657,29.198c-0.663,1.163-2.148,1.57-3.31,0.906
		c-1.162-0.663-1.568-2.148-0.905-3.311l16.657-29.198c2.053-3.598,0.8-8.178-2.798-10.231c-3.599-2.052-8.179-0.799-10.231,2.798
		l-16.657,29.198c-4.761,8.346-1.845,19.01,6.502,23.772c2.717,1.55,5.68,2.286,8.605,2.286c0.547,0,1.091-0.035,1.633-0.086
		c1.513,3.219,3.958,5.899,7.111,7.697c2.667,1.521,5.619,2.298,8.608,2.298c1.543,0,3.096-0.207,4.624-0.625
		c4.49-1.228,8.233-4.131,10.539-8.174l16.657-29.199C390.247,68.686,388.994,64.105,385.396,62.052z"/>
</g>
<path d="M437.02,74.98C388.668,26.629,324.38,0,256,0C193.958,0,134.107,22.478,87.473,63.292
	c-3.117,2.728-3.432,7.466-0.704,10.583c2.729,3.118,7.467,3.432,10.583,0.704C141.251,36.159,197.593,15,256,15
	c132.888,0,241,108.112,241,241S388.888,497,256,497S15,388.888,15,256c0-56.646,20.041-111.685,56.43-154.976
	c2.665-3.17,2.255-7.902-0.916-10.567s-7.902-2.256-10.567,0.916C21.29,137.363,0,195.829,0,256
	c0,68.38,26.629,132.667,74.98,181.02C123.333,485.371,187.62,512,256,512s132.668-26.629,181.02-74.98
	C485.371,388.667,512,324.38,512,256S485.371,123.333,437.02,74.98z"/>
<path d="M421.5,256c0-91.257-74.243-165.5-165.5-165.5S90.5,164.743,90.5,256S164.743,421.5,256,421.5S421.5,347.257,421.5,256z
	 M248.5,105.687V248.5H105.687C109.486,171.47,171.47,109.486,248.5,105.687z M105.687,263.5H248.5v88.167
	c0,4.142,3.358,7.5,7.5,7.5c4.143,0,7.5-3.358,7.5-7.5V263.5H288c4.143,0,7.5-3.358,7.5-7.5s-3.357-7.5-7.5-7.5h-24.5V105.687
	c77.031,3.799,139.014,65.783,142.813,142.813H320.5c-4.143,0-7.5,3.358-7.5,7.5s3.357,7.5,7.5,7.5h85.813
	c-3.799,77.03-65.782,139.014-142.813,142.813v-22.479c0-4.142-3.357-7.5-7.5-7.5c-4.142,0-7.5,3.358-7.5,7.5v22.479
	C171.47,402.514,109.486,340.53,105.687,263.5z"/>
<g>
</g>
<g>
</g>
<g>
</g>
<g>
</g>
<g>
</g>
<g>
</g>
<g>
</g>
<g>
</g>
<g>
</g>
<g>
</g>
<g>
</g>
<g>
</g>
<g>
</g>
<g>
</g>
<g>
</g>
</svg>
