<svg xmlns="http://www.w3.org/2000/svg" width="548.948" height="398.986" viewBox="0 0 548.948 398.986">
  <defs>
    <clipPath id="clip-path"/>
    <linearGradient id="linear-gradient" x1="0.5" x2="0.5" y2="1" gradientUnits="objectBoundingBox">
      <stop offset="0" stop-color="#fff"/>
      <stop offset="1" stop-color="#d9d9d9"/>
    </linearGradient>
  </defs>
  <g id="Mask_Group_3" data-name="Mask Group 3" transform="translate(-546.065 -303.121)">
    <g id="UhtS1N.tif" transform="translate(641.374 -732.188)">
      <g id="Group_1331" data-name="Group 1331" transform="translate(-94.807 1035.809)">
        <path id="Path_2163" data-name="Path 2163" d="M461.051,1445.382c5.452,0,10.435-.013,15.418,0,8.279.028,11.869,2.609,11.772,8.432-.1,5.762-3.656,8.263-12.033,8.265q-101.485.023-202.971.011-160.2-.012-320.393-.038a28.361,28.361,0,0,1-5.578-.139c-4.6-.934-7.212-3.782-6.953-8.645.241-4.526,2.754-7.412,7.261-7.726a140.736,140.736,0,0,1,15.646-.1c3.63.154,4.883-1.185,4.983-4.785q1.05-37.451,2.375-74.894,2.536-74.888,5.129-149.776c.92-27.013,1.917-54.023,2.66-81.04.389-14.139,1.073-15.1,15.01-15.985a15.457,15.457,0,0,0,2.281-.622c0-13.444.012-26.993,0-40.542-.017-13.67-.029-13.668,13.478-13.665,3.541,0,7.083-.014,10.624,0,6.84.019,8.637,1.778,8.637,8.521q0,19.854-.031,39.709c0,2,0,4.006,0,6.348H46.569c0-8.082.063-15.858-.026-23.632-.047-4.086.447-7.867,5.62-7.767s5.454,4.046,5.427,8.023c-.049,7.609-.013,15.22-.013,23.721H75.67c7.642,0,15.284-.046,22.926.011,7.253.055,10.159,2.875,10.536,10.014.39,7.409.8,14.818,1.217,22.61h19.864c.214-1.363,0-2.958.7-3.812,1.5-1.844,3.609-4.727,5.214-4.571,2.029.2,5.011,2.744,5.426,4.727.716,3.434,2.123,4.192,5.2,4.106,5.557-.154,11.121-.044,16.812-.044.625-4.345.417-9.063,5.847-9.124,5.349-.062,5.7,4.319,5.989,9.078,6.438,0,12.715.115,18.979-.118a3.878,3.878,0,0,0,2.8-2.512c.344-3.926,1.846-6.676,6.073-6.377s5.3,3.495,5.308,7.214a5.9,5.9,0,0,0,.522,1.433h19.491l8.586-8.842,7.454,7.26-1.108,1.615h20.8c.212-1.445-.055-3.259.728-4.184,1.521-1.8,3.657-4.3,5.494-4.26,1.778.035,4.83,2.776,4.98,4.53.351,4.093,2.411,4.328,5.521,4.317,17.862-.066,35.725-.043,53.588-.041,1.675,0,3.712-.53,4.944.225,1.989,1.216,4.725,3.259,4.777,5.025.057,1.85-2.321,4.5-4.292,5.481s-4.781.645-7.149.328c-5.475-.735-7.581,1.458-6.675,6.816.153.9.168,1.832.332,3.744,3.641,0,7.264.084,10.882-.023,3.888-.114,6.957,1.327,7.1,5.372.156,4.5-3.108,5.682-7.2,5.751-11.111.187-11.11.278-11.11,11.343v55.831c2.272-1.133,3.873-1.816,5.361-2.692,7.543-4.437,15.116-8.831,22.56-13.431,4.159-2.571,8.018-2.278,12.05.138,29.232,17.511,58.434,35.077,87.776,52.4,4.956,2.927,6.849,6.559,6.83,12.232-.156,46.047-.1,92.094-.087,138.14C460.7,1440.768,460.9,1442.765,461.051,1445.382Zm-475.1,0h5.885q33.532,0,67.065,0c14.371,0,14.378-.006,14.379-14.163,0-43.789.064-87.579-.083-131.368-.017-5.308,1.779-8.772,6.454-11.243,5.094-2.691,9.867-5.989,14.924-8.76,2.956-1.619,4.1-3.531,3.928-7.074-1.1-23.075-1.906-46.164-2.877-69.245-.255-6.085-.76-12.158-1.147-18.207-4.683-1.661-12.126,1.968-12.655-5.467-.6-8.5,7.813-4.866,12.237-6.953l-.469-9.453c-4.943-.672-11.278,1.264-11.83-5.321-.657-7.827,7.061-5.006,11.5-7.064-.316-4.924-.631-9.809-.961-14.942-30.319,0-59.932,0-89.543,0-7.676,0-7.612.017-7.852,7.5q-1.844,57.54-3.757,115.078c-1.693,49.716-3.547,99.427-5.144,149.145C-14.381,1420.086-14.047,1432.344-14.047,1445.383Zm104.23-102.331c2.266.143,3.91.337,5.553.338,16.216.009,32.432-.027,48.648-.024q29.078.006,58.155.04c3.827,0,6.943,1.22,6.871,5.482-.068,4.081-3.036,5.659-6.892,5.661-.932,0-1.864,0-2.8,0l-102.891-.028H90.382V1392.3c1.65.134,2.917.327,4.186.328q44.734.029,89.469.022c6.71,0,13.459-.329,20.1.342,1.937.2,4.726,3.177,4.989,5.166.213,1.6-2.482,4.166-4.46,5.3-1.563.9-4,.332-6.048.332q-50.885,0-101.773-.024c-2.152,0-4.3,0-6.518,0v41.186H257.574V1304.608H90.183Zm185.632-38.662c0,11.475.206,22.257-.1,33.025-.13,4.6,1.234,6.082,5.928,6.034,21.984-.22,43.971-.1,65.956-.1,14.719,0,29.439.033,44.158.006,3.667-.007,6.489,1.427,6.621,5.229.141,4.072-2.672,5.852-6.582,5.923-1.3.025-2.608.012-3.913.012H275.814c0,10.7-.006,20.543,0,30.383.006,7.742.013,7.768,7.475,7.766q40.8-.01,81.607-.046c9.13,0,18.279-.275,27.374.3,2.169.138,5.48,2.9,5.93,4.96.773,3.548-2.138,5.6-5.825,5.851-1.113.075-2.235.032-3.352.032q-53.382,0-106.764.017c-1.975,0-3.949.176-6.406.292,0,11.858.3,23.2-.13,34.511-.2,5.365,1.282,6.929,6.729,6.908,51.61-.2,103.221-.117,154.833-.117h6.134V1304.391Zm-160.64-37.054c2.8-1.591,4.559-2.544,6.273-3.567,15.19-9.056,30.446-18,45.516-27.254,5.109-3.136,9.381-2.832,14.45.235,27.071,16.383,54.329,32.459,81.44,48.776,2.933,1.766,5.118,1.907,8.045.02,6.254-4.03,12.661-7.855,19.21-11.385,3.627-1.955,4.691-4.481,4.664-8.491q-.255-37.174.024-74.351c.045-4.941-1.061-6.7-6.42-6.683-56.8.2-113.6.121-170.4.137-1.968,0-3.937.193-6.335.318C112.826,1212.6,113.979,1239.461,115.175,1267.338Zm311.045,25.2c-.769-.929-1.016-1.448-1.428-1.694-20.614-12.326-41.194-24.712-61.961-36.778-1.681-.976-5.09-.5-6.951.589-19.787,11.529-39.427,23.311-59.088,35.055a39.044,39.044,0,0,0-3.585,2.828Zm-318.138-1.147.243,1.032H239.793c-20.964-13.589-42.14-26.268-63.447-38.723-1.34-.783-4.062-.435-5.531.428C149.841,1266.446,128.974,1278.941,108.082,1291.393Zm198.146-106.267v79.39c3.614-3.184,9-2.867,8.97-8.852-.112-22.544-.047-45.089-.071-67.633a22.644,22.644,0,0,0-.4-2.905Zm-288.961-66.4c0-13.74-.011-26.915.008-40.09,0-3.762-2.671-3.424-5.086-3.324-2.237.091-5.21-.861-5.207,3.1.006,13.341,0,26.682,0,40.314Zm146.4,54.768v-9.85H142.343v9.85Zm33.185.024V1163.7H175.5v9.818Zm12-10.051v9.816h22.2v-9.816Zm55.716.223H243.291v9.567h21.276Zm-134.226,9.73v-9.879H111.28v9.879ZM294.4,1163.7H276.31v9.521H294.4Zm11.788-.2v9.837h8.63V1163.5Z" transform="translate(59.704 -1064.127)" stroke="rgba(0,0,0,0)" stroke-width="1" fill="#F1F1F1" />
        <path id="Path_2164" data-name="Path 2164" d="M27.28,1192.173c0,3.343.057,6.687-.015,10.028-.077,3.524-2.035,6.15-5.424,5.458-2.092-.427-5.091-3.131-5.263-5.034a117.022,117.022,0,0,1-.015-21.126c.171-1.889,3.444-4.818,5.33-4.847,1.762-.027,4.579,2.9,5.134,5,.871,3.3.231,7,.231,10.523Z" transform="translate(68.827 -1050.583)" stroke="rgba(0,0,0,0)" stroke-width="1" fill="#F1F1F1" />
        <path id="Path_2165" data-name="Path 2165" d="M10.067,1192.13c0,3.342.7,6.9-.227,9.955-.695,2.282-3.232,5.072-5.424,5.578-3.332.77-5.346-1.986-5.383-5.482-.069-6.683-.029-13.366.009-20.049.02-3.561,2.092-6.235,5.36-5.528,2.182.473,4.735,3.289,5.433,5.572C10.767,1185.233,10.064,1188.789,10.067,1192.13Z" transform="translate(66.769 -1050.603)" stroke="rgba(0,0,0,0)" stroke-width="1" fill="#F1F1F1" />
        <path id="Path_2166" data-name="Path 2166" d="M202.376,1313.4c4.257-.117,7.186,1.243,7.1,5.554-.1,4.655-3.454,5.619-7.394,5.573-3.859-.045-6.873-1.579-6.8-5.677C195.36,1314.33,198.771,1313.18,202.376,1313.4Z" transform="translate(90.394 -1034.126)" stroke="rgba(0,0,0,0)" stroke-width="1" fill="#F1F1F1" />
        <path id="Path_2167" data-name="Path 2167" d="M202.545,1368.5c-4.3,0-7.307-1.609-7.28-5.666.029-4.522,3.426-5.613,7.438-5.511,3.791.1,6.862,1.183,6.775,5.554C209.386,1367.506,206.09,1368.6,202.545,1368.5Z" transform="translate(90.393 -1028.838)" stroke="rgba(0,0,0,0)" stroke-width="1" fill="#F1F1F1" />
        <path id="Path_2168" data-name="Path 2168" d="M371.122,1324.562c-4.072,0-7.29-1.525-7.167-5.953.116-4.192,3.351-5.252,7.155-5.228,4.056.027,7.232,1.128,7.057,5.821C378.007,1323.529,374.843,1324.571,371.122,1324.562Z" transform="translate(110.696 -1034.126)" stroke="rgba(0,0,0,0)" stroke-width="1" fill="#F1F1F1" />
        <path id="Path_2169" data-name="Path 2169" d="M370.426,1357.41c4.371-.139,7.8.7,7.736,5.5-.055,4.253-3.02,5.539-6.838,5.611-4.058.077-7.329-1.321-7.355-5.713C363.944,1358.712,366.931,1357.117,370.426,1357.41Z" transform="translate(110.699 -1028.83)" stroke="rgba(0,0,0,0)" stroke-width="1" fill="#F1F1F1" />
      </g>
    </g>
  </g>
</svg>
