<svg xmlns="http://www.w3.org/2000/svg" width="442.83" height="471.26" viewBox="0 0 442.83 471.26">
  <g id="Mask_Group_2" data-name="Mask Group 2">
    <g id="Group_1130" data-name="Group 1130">
      <path id="Path_1588" data-name="Path 1588" d="M253.069,0c3.869,1.793,8.095,3.075,11.534,5.48,7.733,5.4,11.276,13.239,11.282,22.659.01,16.1.118,32.2-.087,48.3-.042,3.411,1.028,4.945,4.179,6.1a153.429,153.429,0,0,1,45.416,26.26c2.523,2.094,4.3,2.034,6.958.468,13.431-7.9,26.954-15.653,40.473-23.406,16.3-9.351,31.182-5.4,40.6,10.8q12.382,21.28,24.664,42.619c9.074,15.795,4.922,31.033-10.927,40.228-13.623,7.9-27.236,15.828-40.947,23.58-2.558,1.446-3.341,2.839-2.828,5.853a157.465,157.465,0,0,1-.031,53.5c-.547,3.168.57,4.386,3,5.767q20.76,11.787,41.382,23.821c15.263,8.884,19.318,24.168,10.494,39.59q-12.475,21.8-25.119,43.5c-8.953,15.347-24.125,19.428-39.551,10.627q-20.736-11.832-41.321-23.928c-2.708-1.6-4.463-1.423-6.925.622A153.052,153.052,0,0,1,279.9,388.679c-3.223,1.179-4.137,2.821-4.09,6.151.2,14.105.083,28.214.083,42.322,0,20.354-4.292,26.771-22.821,34.115H190.3c-18.495-7.249-22.852-13.745-22.852-34.063,0-14.1-.107-28.211.079-42.312.042-3.3-.812-4.98-4.058-6.171a152.444,152.444,0,0,1-45.4-26.262c-2.726-2.273-4.559-2.065-7.356-.413q-20.337,12.01-40.885,23.661c-15.425,8.8-30.682,4.733-39.587-10.511-6.6-11.306-13.359-22.538-19.545-34.072-4.03-7.516-7.163-15.513-10.7-23.294v-1.993c1.479-13.43,9.754-21.255,21.2-27.2,12.192-6.33,23.839-13.7,35.816-20.458,2.508-1.415,3.452-2.754,2.927-5.815a157.669,157.669,0,0,1-.011-53.455c.511-3-.308-4.413-2.863-5.85-11.982-6.744-23.629-14.116-35.816-20.458C10.171,176.838,1.984,169.3,0,156.425v-2.989c3.27-7.352,6.105-14.937,9.906-22,6.279-11.67,13.167-23.013,19.825-34.479C39.34,80.407,54.074,76.429,70.611,85.926q20.264,11.639,40.468,23.379c2.394,1.4,4.111,1.824,6.573-.236a154.743,154.743,0,0,1,46.24-26.758c2.888-1.061,3.636-2.568,3.615-5.453q-.181-24.637-.025-49.274c.1-13.029,8.023-23.114,20.568-26.654A19.718,19.718,0,0,0,190.3,0Zm-72.2,415.133v25.9c0,.166,0,.333,0,.5.138,11.148,5.037,16.115,16.164,16.157q24.408.091,48.818.005c11.744-.031,16.543-4.879,16.567-16.721.037-17.6.092-35.2-.037-52.8-.039-5.213,1.95-8.2,7.061-9.878a144.9,144.9,0,0,0,51.783-29.881c4.126-3.691,7.724-3.981,12.469-1.161,15.114,8.983,30.4,17.666,45.654,26.418,10.031,5.756,16.93,3.865,22.781-6.219q12.11-20.875,24.14-41.8c5.77-10.033,3.871-16.834-6.309-22.711-15.227-8.79-30.426-17.63-45.732-26.281-4.538-2.565-6.181-5.705-5.058-11.009a144.483,144.483,0,0,0,.05-59.8c-1.144-5.512.447-8.741,5.179-11.409,15.46-8.714,30.807-17.632,46.166-26.526,9.443-5.467,11.324-12.564,5.848-22.1Q414.27,124.667,402,103.593c-5.819-10.01-12.661-11.785-22.838-5.945q-22.66,13-45.283,26.068c-6.1,3.507-7.532,3.4-12.794-1.182a153.179,153.179,0,0,0-50.925-29.482c-6.863-2.377-7.719-3.569-7.729-10.8-.023-17.435.027-34.87-.021-52.3-.032-11.5-4.9-16.406-16.356-16.449q-24.16-.091-48.321-.007c-12.1.028-16.815,4.789-16.836,16.985-.03,17.435-.111,34.871.051,52.3.051,5.446-2.036,8.459-7.325,10.208a145.7,145.7,0,0,0-51.737,29.965c-3.983,3.557-7.549,3.733-12.083,1.056-15.141-8.938-30.426-17.628-45.676-26.38C53.982,91.807,47.09,93.606,41.281,103.6q-12.123,20.868-24.168,41.782c-5.783,10.036-3.92,17,6.1,22.793,15.364,8.885,30.711,17.8,46.148,26.558,4.374,2.482,5.9,5.578,4.822,10.651a148.813,148.813,0,0,0-.232,59.822c1.333,6.862.759,8.132-5.34,11.654q-22.622,13.065-45.26,26.1c-10.146,5.863-12.035,12.673-6.266,22.72Q29.1,346.617,41.21,367.5c5.831,10.056,12.756,11.932,22.8,6.159,15.39-8.841,30.8-17.65,46.08-26.676,4.406-2.6,7.858-2.241,11.641,1.137A147.63,147.63,0,0,0,174.365,378.5c4.691,1.545,6.6,4.439,6.531,9.232C180.771,396.866,180.86,406,180.865,415.133Z" stroke="rgba(0,0,0,0)" stroke-width="1" fill="#F1F1F1" />
      <path id="Path_1589" data-name="Path 1589" d="M0,80.836C.091,36.575,36.735.022,81.04,0c44.506-.023,81.24,36.766,81.13,81.252S125.1,162.365,80.623,162.093C36.3,161.821-.091,125.15,0,80.836Zm80.873-67.3a67.5,67.5,0,1,0,67.75,67.048A67.465,67.465,0,0,0,80.873,13.538Z" transform="translate(140.581 154.565)" stroke="rgba(0,0,0,0)" stroke-width="1" fill="#F1F1F1" />
    </g>
  </g>
</svg>
