<svg xmlns="http://www.w3.org/2000/svg" width="147.085" height="29.008" viewBox="0 0 147.085 29.008">
  <g id="Component_4_1" data-name="Component 4 – 1" transform="translate(0.5 0.69)">
    <line id="Line_151" data-name="Line 151" transform="translate(133.311 27.518)" fill="none" stroke="#000" stroke-linecap="round" stroke-linejoin="round" stroke-width="0"/>
    <path id="Path_1043" data-name="Path 1043" d="M4492.1,2557.877v-14.864a8.767,8.767,0,0,0-.745-3.536,9.191,9.191,0,0,0-3.424-3.993,9.712,9.712,0,0,0-5.291-1.553h-8.772V2557.9h5.459v-18.726h3.313a4.134,4.134,0,0,1,1.557.3,4,4,0,0,1,1.762,1.395,3.692,3.692,0,0,1,.682,2.146v14.864Z" transform="translate(-4346.013 -2530.379)" fill="#2e2e2e" stroke="rgba(0,0,0,0)" stroke-width="1"/>
    <path id="Path_1044" data-name="Path 1044" d="M4002.537,2547.518h-6.259l-6.51-11.144h0a9.421,9.421,0,0,0-2.259,6.1v5.046h-5.46v-25.88h5.46v9.1l9.359-11.037,4.231,3.307-7.627,9Z" transform="translate(-3982.049 -2519.7)" fill="#2e2e2e" stroke="rgba(0,0,0,0)" stroke-width="1"/>
    <rect id="Rectangle_402" data-name="Rectangle 402" width="5.459" height="15.878" transform="translate(21.968 11.94)" fill="#2e2e2e" stroke="rgba(0,0,0,0)" stroke-width="1"/>
    <rect id="Rectangle_403" data-name="Rectangle 403" width="5.459" height="24.596" transform="translate(30.319 3.222)" fill="#2e2e2e" stroke="rgba(0,0,0,0)" stroke-width="1"/>
    <path id="Path_1045" data-name="Path 1045" d="M4330.933,2527.456v-5.241H4314.2v5.241h5.637v21.836h5.458v-21.836Z" transform="translate(-4227.854 -2521.587)" fill="#2e2e2e" stroke="rgba(0,0,0,0)" stroke-width="1"/>
    <path id="Path_1046" data-name="Path 1046" d="M4067.3,2539.866a3.292,3.292,0,1,0-3.425-3.289A3.36,3.36,0,0,0,4067.3,2539.866Z" transform="translate(-4042.604 -2529.897)" fill="#2e2e2e" stroke="rgba(0,0,0,0)" stroke-width="1"/>
    <path id="Path_1047" data-name="Path 1047" d="M4149.691,2536.687a12.159,12.159,0,1,0,3.489,8.526A12.112,12.112,0,0,0,4149.691,2536.687Zm-2.51,11.253a6.885,6.885,0,0,1-2.447,3.025,6.518,6.518,0,0,1-1.718.838,6.435,6.435,0,0,1-4.464-.221,6.742,6.742,0,0,1-2.934-2.464,7.014,7.014,0,0,1-1.17-3.906,7.1,7.1,0,0,1,.54-2.73,6.878,6.878,0,0,1,2.446-3.025,6.541,6.541,0,0,1,1.719-.839,6.432,6.432,0,0,1,4.463.222,6.746,6.746,0,0,1,2.935,2.463,7.028,7.028,0,0,1,1.17,3.909A7.119,7.119,0,0,1,4147.181,2547.94Z" transform="translate(-4090.792 -2529.741)" fill="#2e2e2e" stroke="rgba(0,0,0,0)" stroke-width="1"/>
    <path id="Path_1048" data-name="Path 1048" d="M4247.7,2536.687a12.16,12.16,0,1,0,3.49,8.526A12.06,12.06,0,0,0,4247.7,2536.687Zm-2.51,11.253a6.879,6.879,0,0,1-2.445,3.025,6.567,6.567,0,0,1-1.717.838,6.439,6.439,0,0,1-4.466-.221,6.774,6.774,0,0,1-2.935-2.464,7.015,7.015,0,0,1-1.171-3.906,7.108,7.108,0,0,1,.542-2.73,6.88,6.88,0,0,1,2.447-3.025,6.523,6.523,0,0,1,1.718-.839,6.43,6.43,0,0,1,4.463.222,6.739,6.739,0,0,1,2.936,2.463,7.131,7.131,0,0,1,.629,6.636Z" transform="translate(-4163.319 -2529.741)" fill="#2e2e2e" stroke="rgba(0,0,0,0)" stroke-width="1"/>
    <path id="Path_1049" data-name="Path 1049" d="M4391.641,2536.687a12.157,12.157,0,1,0,3.49,8.526A12.1,12.1,0,0,0,4391.641,2536.687Zm-2.511,11.253a6.891,6.891,0,0,1-2.445,3.025,6.529,6.529,0,0,1-1.718.838,6.432,6.432,0,0,1-4.463-.221,6.731,6.731,0,0,1-2.935-2.466,7,7,0,0,1-1.172-3.9,7.09,7.09,0,0,1,.542-2.73,6.852,6.852,0,0,1,2.448-3.025,6.429,6.429,0,0,1,6.18-.616,6.734,6.734,0,0,1,2.933,2.463,7.108,7.108,0,0,1,.631,6.636Z" transform="translate(-4269.844 -2529.741)" fill="#2e2e2e" stroke="rgba(0,0,0,0)" stroke-width="1"/>
  </g>
</svg>
