<svg xmlns="http://www.w3.org/2000/svg" width="24.881" height="25.082" viewBox="0 0 24.881 25.082">
  <g id="Group_1081" data-name="Group 1081" transform="translate(0.5 0.5)">
    <g id="Group_1087" data-name="Group 1087" transform="translate(9.342 8.822)">
      <path id="Path_1535" data-name="Path 1535" d="M1504.66,1358.928l-.049-.041a.586.586,0,0,1-.158-.167.3.3,0,0,1,.1-.374q.357-.287.716-.572l1.263-1,3.093-2.458a.465.465,0,0,1,.279-.128.308.308,0,0,1,.185.067.321.321,0,0,1,.141.249.38.38,0,0,1-.163.3q-.524.419-1.05.836l-1.067.848q-1.452,1.154-2.9,2.307a1.6,1.6,0,0,1-.176.115l-.007,0-.058.034-.077.047Z" transform="translate(-1504.422 -1353.454)" fill="#2e2e2e" stroke="rgba(0,0,0,0)" stroke-width="1"/>
      <path id="Path_1536" data-name="Path 1536" d="M1509.118,1343.693a1.382,1.382,0,0,1-1.375-1.381,1.374,1.374,0,0,1,1.363-1.362h.009a1.377,1.377,0,0,1,1.351,1.383,1.354,1.354,0,0,1-.4.965,1.337,1.337,0,0,1-.951.4Zm0-2.08a.728.728,0,0,0-.723.721.71.71,0,1,0,.733-.721Z" transform="translate(-1507.56 -1340.95)" fill="#2e2e2e" stroke="rgba(0,0,0,0)" stroke-width="1"/>
      <path id="Path_1537" data-name="Path 1537" d="M1558.571,1406.342a1.348,1.348,0,0,1-.966-.407,1.368,1.368,0,0,1,.966-2.321h.02a1.4,1.4,0,0,1,1.35,1.391,1.356,1.356,0,0,1-1.361,1.338Zm0-2.1a.732.732,0,0,0-.71.718.706.706,0,0,0,.209.505.716.716,0,0,0,.51.213.705.705,0,0,0,.5-.21.718.718,0,0,0-.5-1.226Z" transform="translate(-1554.3 -1400.151)" fill="#2e2e2e" stroke="rgba(0,0,0,0)" stroke-width="1"/>
    </g>
    <path id="Path_1538" data-name="Path 1538" d="M1378.826,1228.918a2.21,2.21,0,0,1-1.344-.9c-.124-.167-.241-.343-.355-.513l-.065-.1c-.105-.157-.209-.316-.312-.475l-.007-.011c-.222-.34-.449-.688-.69-1.02a1.4,1.4,0,0,0-1.177-.6c-.05,0-.1,0-.153.007a8.138,8.138,0,0,0-.832.125c-.231.045-.465.1-.691.145l-.013,0c-.428.094-.871.191-1.31.25a1.993,1.993,0,0,1-.258.018,1.382,1.382,0,0,1-1.236-.7,1.487,1.487,0,0,1-.145-1.143c.085-.4.2-.8.307-1.187.052-.186.1-.368.152-.55l.043-.161c.057-.21.115-.427.163-.646a1.447,1.447,0,0,0-.783-1.833c-.312-.186-.636-.359-.95-.526l-.006,0c-.223-.119-.453-.242-.676-.368a2.427,2.427,0,0,1-1.435-1.638v-.439a2.389,2.389,0,0,1,1.4-1.6c.216-.123.443-.245.643-.353.274-.147.556-.3.828-.46a1.638,1.638,0,0,0,.926-2.239c-.072-.272-.155-.544-.236-.807-.115-.377-.232-.763-.319-1.147a2.81,2.81,0,0,1-.048-1.065,1.294,1.294,0,0,1,1.343-1.056,1.823,1.823,0,0,1,.193.01c.466.05.939.148,1.4.244.216.045.459.1.7.14.272.05.551.1.829.127.056.005.111.008.165.008a1.432,1.432,0,0,0,1.207-.629c.188-.264.366-.54.537-.806s.36-.558.552-.827a5.6,5.6,0,0,1,.831-.968,1.505,1.505,0,0,1,.993-.388,1.532,1.532,0,0,1,.992.381,5.654,5.654,0,0,1,.833.934c.3.4.572.822.838,1.235l.068.1a1.794,1.794,0,0,0,1.566.909,2.547,2.547,0,0,0,.553-.065c.555-.124,1.21-.265,1.863-.364a3.591,3.591,0,0,1,.533-.043,2.39,2.39,0,0,1,.42.035,1.356,1.356,0,0,1,.925.573,1.561,1.561,0,0,1,.167,1.235c-.085.371-.211.744-.332,1.1-.074.219-.157.468-.229.709a11.488,11.488,0,0,0-.287,1.19,1,1,0,0,0,.438,1.028,11.866,11.866,0,0,0,1.013.644c.222.129.45.249.67.366a11.661,11.661,0,0,1,1.158.673,1.566,1.566,0,0,1,.7,1.851,1.432,1.432,0,0,1-.673.9c-.419.266-.862.513-1.29.753l-.019.01-.449.252c-.093.053-.19.1-.284.153-.159.083-.317.166-.469.262a1.389,1.389,0,0,0-.715,1.823c.08.284.179.565.274.837.1.3.21.6.291.9a4.97,4.97,0,0,1,.223,1.371,1.308,1.308,0,0,1-1.242,1.219c-.093.009-.19.014-.288.014a6.264,6.264,0,0,1-1.3-.186l-.28-.06h-.007c-.354-.073-.721-.148-1.088-.208a2.08,2.08,0,0,0-.338-.028,1.561,1.561,0,0,0-1.312.673c-.2.275-.4.563-.583.842-.14.21-.283.423-.429.629-.2.286-.412.556-.626.8a2.059,2.059,0,0,1-1.122.626Zm-4.061-4.136a2.284,2.284,0,0,1,2.008,1.273c.116.175.228.357.336.534l0,.006c.125.2.255.417.393.619a5.586,5.586,0,0,0,.645.807,1.062,1.062,0,0,0,1.586.052,5.106,5.106,0,0,0,.715-.853c.153-.214.3-.437.438-.652.17-.261.343-.528.53-.779a2.08,2.08,0,0,1,1.713-.928c.074,0,.151,0,.228.011.326.032.656.091.975.149.148.027.294.053.44.077s.294.053.437.08a6.9,6.9,0,0,0,1,.144l.083,0a.95.95,0,0,0,.745-.279,1.059,1.059,0,0,0,.2-.856,3.441,3.441,0,0,0-.143-.629c-.08-.257-.165-.517-.248-.768-.143-.434-.289-.877-.41-1.317a1.724,1.724,0,0,1,.757-2.067c.328-.217.681-.41,1.023-.6.172-.094.344-.189.512-.285.1-.06.208-.118.312-.177.284-.16.575-.323.853-.5a1.069,1.069,0,0,0,.521-.864,1.178,1.178,0,0,0-.486-.969,9.109,9.109,0,0,0-.9-.581c-.23-.134-.464-.261-.69-.384-.4-.219-.818-.446-1.2-.7a1.635,1.635,0,0,1-.734-1.824c.068-.315.166-.633.26-.94.044-.145.094-.306.138-.462s.091-.31.138-.464c.114-.376.231-.765.31-1.158a.8.8,0,0,0-.109-.628.9.9,0,0,0-.615-.353,2.474,2.474,0,0,0-.4-.037,1.549,1.549,0,0,0-.258.02c-.606.1-1.222.223-1.831.358a3.482,3.482,0,0,1-.752.089,2.313,2.313,0,0,1-2.042-1.181l-.073-.113c-.235-.364-.477-.74-.734-1.1a5.192,5.192,0,0,0-.662-.795,1.187,1.187,0,0,0-.809-.359,1.174,1.174,0,0,0-.841.4,5.784,5.784,0,0,0-.635.813c-.144.212-.282.43-.416.642-.18.284-.363.574-.559.846a1.946,1.946,0,0,1-1.616.907c-.04,0-.082,0-.123,0a9.209,9.209,0,0,1-1.253-.193l-.076-.016c-.4-.081-.8-.176-1.124-.252l-.019,0-.305-.072-.016,0h-.051a1.374,1.374,0,0,0-1.1.354,1.072,1.072,0,0,0-.162.91c.046.268.113.526.172.743s.12.421.181.625c.111.373.224.752.309,1.131a1.9,1.9,0,0,1-.932,2.282c-.177.117-.369.221-.555.322-.143.077-.287.155-.426.239-.121.073-.245.145-.368.217a9.409,9.409,0,0,0-1.086.7,1.164,1.164,0,0,0-.474.878,1.215,1.215,0,0,0,.439.943,5.42,5.42,0,0,0,.9.612c.227.133.46.258.687.38.317.171.645.347.951.541a1.824,1.824,0,0,1,.928,1.911,8.683,8.683,0,0,1-.211.947l-.011.043c-.059.228-.128.466-.189.676-.115.4-.234.809-.319,1.224a.984.984,0,0,0,.143.842,1.062,1.062,0,0,0,.838.347h.063a1.351,1.351,0,0,0,.281-.026c.656-.139,1.294-.28,1.891-.413A4.1,4.1,0,0,1,1374.766,1224.781Z" transform="translate(-1367.051 -1204.836)" fill="#2e2e2e" stroke="rgba(0,0,0,0)" stroke-width="1"/>
    <path id="Path_1539" data-name="Path 1539" d="M1468.515,1313.017a6,6,0,0,1-.686-11.951,6.139,6.139,0,0,1,.706-.041,6.029,6.029,0,0,1,2.853.733c.153.082.215.174.183.275a.44.44,0,0,1-.225.23l-.049.022-.009-.021a.639.639,0,0,1-.185-.072,5.8,5.8,0,0,0-1.736-.587,4.991,4.991,0,0,0-.875-.077,5.511,5.511,0,0,0-5.37,4.52,5.677,5.677,0,0,0,.546,3.527,5.47,5.47,0,0,0,4.826,2.921,5.536,5.536,0,0,0,3.532-1.285,5.445,5.445,0,0,0,1.9-3.371,5.3,5.3,0,0,0-.1-2.139c-.1-.377.018-.461.144-.495a.31.31,0,0,1,.076-.011c.081,0,.2.039.281.377a5.989,5.989,0,0,1-4.941,7.369c-.195.031-.4.044-.589.057-.091.006-.182.012-.273.02h0Z" transform="translate(-1456.6 -1295.057)" fill="#2e2e2e" stroke="rgba(0,0,0,0)" stroke-width="1"/>
  </g>
</svg>
