<svg xmlns="http://www.w3.org/2000/svg" width="41.911" height="52.74" viewBox="0 0 41.911 52.74">
  <path id="Path_1531" data-name="Path 1531" d="M2230.083,1656.132h-.019v-.465q0-1.536-.007-3.073c-.008-2.493-.016-5.07.026-7.609v-.473a1.161,1.161,0,0,0-.184-.741c-.141-.145-.462-.214-1.011-.219a29.534,29.534,0,0,1-10.664-1.789c-3.64-1.407-6.1-3.255-7.729-5.814-.588-.922-.8-1.029-.867-1.032s-.275.106-.856,1.013a15,15,0,0,1-7.719,5.826,30.394,30.394,0,0,1-10.589,1.806.942.942,0,0,0-1.275,1.308s0,.117,0,.145q0,2.774.006,5.549v.047c.007,4.765.015,9.692-.023,14.539a12.93,12.93,0,0,0,1.069,5.436,22.88,22.88,0,0,0,6.106,7.861c.91.806,1.871,1.581,2.891,2.333q.349-.4.7-.8a37.889,37.889,0,0,1-3.8-3.167,21.233,21.233,0,0,1-4.893-6.635,11.134,11.134,0,0,1-.994-4.75c.032-4.663.027-9.405.022-13.991v-.039q0-2.607,0-5.214v-1.424l.42-.041c.51-.05,1.012-.093,1.51-.136,1.072-.093,2.085-.18,3.1-.322,4.959-.692,8.672-2.181,11.686-4.686.573-.477,1.115-.973,1.688-1.5.264-.242.53-.485.8-.727l.345-.31.311.345c.1.107.2.229.319.363.267.307.57.655.9.977a18.939,18.939,0,0,0,9.635,4.955c1.6.335,3.274.521,4.89.7.728.081,1.479.164,2.224.262.08.01.16.018.267.029l.619.062v1.166c0,1.788-.019,3.6-.038,5.369-.043,4.054-.088,8.246.107,12.351.219,4.607-1.415,8.547-5.141,12.4a43.187,43.187,0,0,1-11.094,7.977c-.807.43-1.679.885-2.577,1.3a1.527,1.527,0,0,1-.632.133,1.2,1.2,0,0,1-.519-.107c-2.122-1.021-4.034-2.048-5.773-3.1-.243.274-.485.545-.724.816a68.1,68.1,0,0,0,6.626,3.552,1,1,0,0,0,.4.071,1.027,1.027,0,0,0,.455-.09c.492-.265.985-.529,1.483-.795,2.188-1.169,4.449-2.377,6.573-3.712a30.97,30.97,0,0,0,9.262-8.579,13.842,13.842,0,0,0,2.7-7.156Z" transform="translate(-2188.671 -1634.417)" stroke="rgba(0,0,0,0)" stroke-width="1"/>
</svg>
