<svg xmlns="http://www.w3.org/2000/svg" xmlns:xlink="http://www.w3.org/1999/xlink" width="282.911" height="112.316" viewBox="0 0 282.911 112.316">
  <defs>
    <linearGradient id="linear-gradient" x1="0.5" x2="2.387" y2="1.487" gradientUnits="objectBoundingBox">
      <stop offset="0" stop-color="#fff"/>
      <stop offset="1" stop-color="#ffe1d0"/>
    </linearGradient>
    <filter id="Rectangle_613" x="0" y="0" width="282.911" height="112.316" filterUnits="userSpaceOnUse">
      <feOffset dy="1" input="SourceAlpha"/>
      <feGaussianBlur stdDeviation="8.5" result="blur"/>
      <feFlood flood-opacity="0.129"/>
      <feComposite operator="in" in2="blur"/>
      <feComposite in="SourceGraphic"/>
    </filter>
    <linearGradient id="linear-gradient-2" x1="0.5" x2="0.5" y2="1" gradientUnits="objectBoundingBox">
      <stop offset="0" stop-color="#e27737"/>
      <stop offset="1" stop-color="#ffe9db"/>
    </linearGradient>
  </defs>
  <g id="Component_62_1" data-name="Component 62 – 1" transform="translate(25.5 24.5)">
    <g transform="matrix(1, 0, 0, 1, -25.5, -24.5)" filter="url(#Rectangle_613)">
      <rect id="Rectangle_613-2" data-name="Rectangle 613" width="231.911" height="61.316" rx="11" transform="translate(25.5 24.5)" fill="url(#linear-gradient)"/>
    </g>
    <g id="Ellipse_248" data-name="Ellipse 248" transform="translate(20.876 8.365)" fill="none" stroke="#707070" stroke-width="1" opacity="0.599">
      <circle cx="23" cy="23" r="23" stroke="none"/>
      <circle cx="23" cy="23" r="22.5" fill="none"/>
    </g>
    <text id="کاتالوگ_شرکت" data-name="کاتالوگ شرکت" transform="translate(134.876 34.365)" font-size="12" font-family="IRANSans"><tspan x="-38.115" y="0">کاتالوگ شرکت</tspan></text>
    <g id="Group_1134" data-name="Group 1134" transform="translate(-1186.801 -515.922)">
      <path id="Path_1595" data-name="Path 1595" d="M1292.4,545.965l.033.032,5.254,5.263a.891.891,0,0,0,.635.306.905.905,0,0,0,.642-.311l5.261-5.257.029-.028a1.311,1.311,0,0,0,.2-.236.765.765,0,0,0-.1-.985.757.757,0,0,0-.544-.237.836.836,0,0,0-.439.131,1.37,1.37,0,0,0-.268.229l-.044.044-3.944,3.935c0-1.7,0-8.3,0-8.3v-.568c0-.614,0-1.248,0-1.873a.8.8,0,0,0-.78-.828h-.008a.812.812,0,0,0-.794.753,2.056,2.056,0,0,0-.008.269c0,.025,0,.049,0,.074v10.451l-2.9-2.9-.294-.3c-.292-.294-.595-.6-.9-.891a.8.8,0,0,0-.558-.228.792.792,0,0,0-.58,1.33C1292.328,545.892,1292.367,545.931,1292.4,545.965Z" transform="translate(-67.463)" fill="#f2711c" stroke="rgba(0,0,0,0)" stroke-width="1"/>
      <path id="Path_1596" data-name="Path 1596" d="M1241.507,743.671q0-.354,0-.709v-1.145h-1.59s0,1.236,0,1.507q0,.92,0,1.84c0,.69-.227.911-.923.912h-16.3c-.621,0-.864-.247-.865-.878s0-1.25,0-1.875v-1.508h-1.585v.346c0,.344,0,.689-.007,1.022-.008.787-.016,1.531.018,2.292a2.393,2.393,0,0,0,2.376,2.192h6.481l9.976,0a2.432,2.432,0,0,0,2.423-2.415C1241.508,744.724,1241.507,744.189,1241.507,743.671Z" transform="translate(0 -192.032)" fill="#f2711c" stroke="rgba(0,0,0,0)" stroke-width="1"/>
    </g>
    <g id="Group_1330" data-name="Group 1330" transform="translate(199.884 12.688)">
      <g id="Group_1329" data-name="Group 1329" transform="translate(0)">
        <path id="Path_2161" data-name="Path 2161" d="M3031.733,1419.763h7.509c.622,0,.793-.168.793-.783v-8.155c0-5.271,0-10.721,0-16.068a.9.9,0,0,0-.462-.836c-1.805-1.145-3.615-2.3-5.315-3.381-1.571-1-3.4-2.164-5.2-3.31a1.139,1.139,0,0,0-.545-.184.428.428,0,0,0-.2.046c-.281.148-.295.643-.3.7-.012.66-.011,1.3-.009,2.07v.455l-2.733-.871a1.5,1.5,0,0,0-.442-.089c-.5,0-.5.516-.5.764q0,1.292,0,2.579v1.271c-.062,0-.123.005-.183.005h-5.187c-.571,0-.746.177-.747.754q0,12.129,0,24.258c0,.6.172.772.766.772Zm-12.431-1.1v-23.607h5.009v2.335h-2.062a.742.742,0,0,0-.549.158.5.5,0,0,0-.133.373c.007.532.526.532.7.532h2.045v2.517h-.529l-.323,0h-.346c-.38,0-.677.005-.96.017a.692.692,0,0,0-.568.438.445.445,0,0,0,.068.379.63.63,0,0,0,.476.227c.052,0,.108.006.174.006h2.013v2.528h-1.072q-.52,0-1.038,0h-.01a.676.676,0,0,0-.493.162.492.492,0,0,0-.135.366c0,.125.052.534.634.534l.817,0h1.3v2.518h-1.192q-.456,0-.911,0h-.013c-.543,0-.629.324-.632.518a.5.5,0,0,0,.139.376.66.66,0,0,0,.488.167h2.123v2.513c-.048,0-.1,0-.14,0h-1.081l-.845,0h-.02c-.436,0-.659.174-.662.516a.506.506,0,0,0,.139.381.718.718,0,0,0,.528.166h.031l.454,0h1.616l0,.365c0,.442,0,.859-.007,1.279a.673.673,0,0,0,.552.74c.141.04.293.086.462.139h-2.988l-.076,0-.1,0a.523.523,0,0,0-.281.068.645.645,0,0,0-.32.5c.012.24.286.407.37.453a.465.465,0,0,0,.225.05c.037,0,.075,0,.114-.005h.016c.021,0,.042,0,.062,0h2.7c1,0,2.123,0,3.295.005a2.132,2.132,0,0,1,.62.1c1.412.442,2.85.9,4.241,1.338l1.992.631.75.237Zm9.823-30.14,2.527,1.611c2.329,1.485,4.738,3.02,7.107,4.522a.39.39,0,0,1,.217.4c-.006,5.967-.007,12.048-.007,17.928v5.27L3037,1417c-2.563-1.638-5.214-3.331-7.832-5-.087-.055-.1-.093-.1-.25q0-8.008,0-16.015v-7.249Zm-3.222,2.241c.635.2,1.235.4,1.848.571.23.065.268.115.268.356-.006,3.274-.008,6.612-.009,9.839v1.228c0,2.692,0,5.886-.006,9.158a.983.983,0,0,0,.5.923c2.079,1.317,4.188,2.665,6.228,3.968l1.1.7-.378-.12-1.461-.463c-2.592-.822-5.529-1.754-8.358-2.642-.216-.068-.248-.112-.248-.342.008-6.068.008-12.249.008-18.225V1390.6Z" transform="translate(-3018.217 -1387.047)" stroke="rgba(0,0,0,0)" stroke-width="1"/>
      </g>
      <path id="Path_2162" data-name="Path 2162" d="M3033.41,1407.639l2.527,1.611c2.329,1.484,4.737,3.02,7.107,4.522a.39.39,0,0,1,.218.4c-.006,5.967-.007,12.048-.007,17.928v5.27l-1.967-1.256c-2.563-1.638-5.214-3.331-7.832-5-.086-.055-.1-.092-.1-.25q0-8.007,0-16.015v-7.249Z" transform="translate(-3022.502 -1406.162)" stroke="rgba(0,0,0,0)" stroke-width="1" fill="url(#linear-gradient-2)"/>
    </g>
  </g>
</svg>
