<svg xmlns="http://www.w3.org/2000/svg" width="18.955" height="23.708" viewBox="0 0 18.955 23.708">
  <g id="Group_1080" data-name="Group 1080" transform="translate(0.5 0.501)">
    <path id="Path_1530" data-name="Path 1530" d="M2294.875,1747.689c-.141,0-.29-.116-.47-.366q-.372-.518-.746-1.034c-.491-.679-1-1.382-1.492-2.077a.583.583,0,0,1-.139-.4.511.511,0,0,1,.31-.325l.031,0a.6.6,0,0,1,.407.205c.348.45.686.921,1.012,1.377.121.169.242.339.365.507l.45.621.254.351.109-.152c.049-.068.091-.127.132-.187l3.671-5.432.038-.057a1.239,1.239,0,0,1,.134-.181.416.416,0,0,1,.3-.149.409.409,0,0,1,.224.075.4.4,0,0,1,.148.513.779.779,0,0,1-.108.18l-.047.065q-2.063,3.05-4.128,6.1C2295.159,1747.574,2295.015,1747.689,2294.875,1747.689Z" transform="translate(-2285.847 -1734.061)" fill="#2e2e2e" stroke="rgba(0,0,0,0)" stroke-width="1"/>
    <path id="Path_1531" data-name="Path 1531" d="M2207.126,1644.228h-.009v-.2q0-.674,0-1.349c0-1.095-.007-2.225.012-3.34v-.207a.51.51,0,0,0-.081-.325c-.062-.063-.2-.094-.444-.1a12.958,12.958,0,0,1-4.68-.785,6.572,6.572,0,0,1-3.392-2.552c-.258-.4-.353-.452-.381-.453s-.121.047-.376.445a6.584,6.584,0,0,1-3.388,2.557,13.337,13.337,0,0,1-4.647.793.414.414,0,0,0-.56.573s0,.051,0,.064q0,1.218,0,2.435v.021c0,2.091.006,4.254-.01,6.381a5.673,5.673,0,0,0,.469,2.386,10.046,10.046,0,0,0,2.68,3.45c.4.354.821.694,1.269,1.024.1-.118.2-.235.308-.352a16.686,16.686,0,0,1-1.67-1.39,9.323,9.323,0,0,1-2.147-2.912,4.892,4.892,0,0,1-.436-2.085c.014-2.046.012-4.128.01-6.14v-.017q0-1.144,0-2.288v-.625l.184-.018c.224-.022.444-.041.663-.06.471-.041.915-.079,1.36-.141a9.79,9.79,0,0,0,5.129-2.057c.252-.209.489-.427.741-.657q.174-.159.351-.319l.151-.136.136.151c.043.047.089.1.141.159.117.135.25.288.392.429a8.314,8.314,0,0,0,4.228,2.175c.7.147,1.437.229,2.147.307.319.036.649.072.976.115l.117.012.272.027v.512c0,.784-.008,1.581-.016,2.356-.019,1.779-.039,3.619.047,5.42a7.009,7.009,0,0,1-2.257,5.441,18.933,18.933,0,0,1-4.869,3.5c-.354.189-.736.388-1.131.571a.668.668,0,0,1-.277.059.534.534,0,0,1-.228-.047c-.931-.448-1.77-.9-2.534-1.362-.106.12-.213.239-.317.359a29.914,29.914,0,0,0,2.908,1.559.439.439,0,0,0,.176.031.455.455,0,0,0,.2-.039l.651-.349c.96-.513,1.952-1.044,2.885-1.629a13.593,13.593,0,0,0,4.065-3.766,6.075,6.075,0,0,0,1.183-3.141Z" transform="translate(-2189.172 -1634.917)" stroke="rgba(0,0,0,0)" stroke-width="1"/>
    <path id="Path_1532" data-name="Path 1532" d="M2253.072,1744.359a5.529,5.529,0,0,1-3.806-1.566,5.319,5.319,0,0,1-.5-7.246,5.426,5.426,0,0,1,4.285-2.129,5.367,5.367,0,0,1,2.4.57l-.212.4a5.028,5.028,0,0,0-4.272-.057,4.712,4.712,0,0,0-2.317,2.149,4.984,4.984,0,0,0,4.426,7.4,4.969,4.969,0,0,0,2.466-.643,4.8,4.8,0,0,0,2.272-2.823,5,5,0,0,0-.154-3.461l.408-.192a5.375,5.375,0,0,1-1.532,6.293A5.256,5.256,0,0,1,2253.072,1744.359Z" transform="translate(-2244.067 -1727.505)" stroke="rgba(0,0,0,0)" stroke-width="1"/>
  </g>
</svg>
