<svg xmlns="http://www.w3.org/2000/svg" width="14.238" height="18.672" viewBox="0 0 14.238 18.672">
  <path id="Path_1792" data-name="Path 1792" d="M471.671,454.475a5.748,5.748,0,0,1-3.141-1.2,14.7,14.7,0,0,1-3.445-3.7,20.527,20.527,0,0,1-3.111-6.39,7.241,7.241,0,0,1-.192-3.376,3.264,3.264,0,0,1,1.41-2.168,7.825,7.825,0,0,1,1.306-.693,1.149,1.149,0,0,1,1.661.678c.418.921.818,1.851,1.21,2.784a1.675,1.675,0,0,1,.11.568,1.109,1.109,0,0,1-.68,1.1c-.247.122-.506.22-.757.336a1.339,1.339,0,0,0-.862,1.789,9.358,9.358,0,0,0,.862,2.058c.535.907,1.18,1.751,1.8,2.609a2.133,2.133,0,0,0,.518.453,1.181,1.181,0,0,0,1.53-.012c.26-.19.5-.408.753-.607a1.273,1.273,0,0,1,1.842.191q1.06,1.319,2.081,2.67a1.03,1.03,0,0,1,.019,1.475A4.388,4.388,0,0,1,471.671,454.475Z" transform="translate(-461.163 -436.303)" fill="#f2711c" stroke="rgba(0,0,0,0)" stroke-width="1"/>
</svg>
