<svg xmlns="http://www.w3.org/2000/svg" width="320" height="320" xmlns:xlink="http://www.w3.org/1999/xlink" viewBox="7 2 42.63 30.61"><defs><style>.cls-1,.cls-4,.cls-6{fill:none;}.cls-2{fill:#a0a0a0;stroke-width:0.2px;}.cls-2,.cls-4,.cls-6{stroke:#2d2d2d;}.cls-2,.cls-4{stroke-linecap:round;stroke-linejoin:round;}.cls-3{clip-path:url(#clip-path);}.cls-4{stroke-width:0.1px;}.cls-5{font-size:3px;font-family:RobotoMono-Regular, Roboto Mono;}.cls-5,.cls-7{fill:#2d2d2d;}.cls-6{stroke-miterlimit:10;stroke-width:0.25px;}</style><clipPath id="clip-path" transform="translate(7.43 3.63)"><polygon id="SVGID" class="cls-1" points="15.13 0.1 0.13 9.78 25.13 19.45 40.13 9.78 15.13 0.1"/></clipPath></defs><g id="Layer_2" data-name="Layer 2"><g id="Layer_1-2" data-name="Layer 1"><polygon class="cls-2" points="47.55 14.55 32.55 24.23 32.55 23.08 47.55 13.41 47.55 14.55"/><polygon class="cls-2" points="7.55 14.55 32.55 24.23 32.55 23.08 7.55 13.41 7.55 14.55"/><polygon class="cls-2" points="47.55 13.41 22.55 3.73 7.55 13.41 32.55 23.08 47.55 13.41"/><g class="cls-3"><path class="cls-4" d="M32.28,10.19a1.75,1.75,0,0,1-.62-.62m.73.62c.35-.43-.16-1.07-.59-1.29M37.22,6a1.78,1.78,0,0,0,.61.61m.11,0c.36-.42-.16-1.07-.59-1.29M20.55,16.71a1.84,1.84,0,0,0,.62.62m.11,0c.35-.43-.16-1.08-.59-1.3m1.72-.51a1.72,1.72,0,0,0,.61.62m.11,0c.36-.43-.16-1.08-.59-1.3m2.73-8.09.06.13m-.81-.08a1.72,1.72,0,0,0,.61.62m.11,0c.36-.43-.16-1.08-.59-1.3M29,4.37,29,4.5m-.81-.08a1.73,1.73,0,0,0,.61.62m.11,0c.36-.43-.16-1.08-.59-1.3m3.44,2.07a1.84,1.84,0,0,0,.62.62m.11,0c.35-.43-.16-1.08-.59-1.3m-15.08,14a1.78,1.78,0,0,0,.61.61m.11,0c.36-.42-.15-1.07-.59-1.29M8,13.74a1.7,1.7,0,0,0,.61.61m.11,0c.36-.42-.16-1.07-.59-1.29m3.57-1.7a1.84,1.84,0,0,0,.62.62m.1,0c.36-.43-.15-1.08-.58-1.3m2.46-.56.07.13m-.82-.08a1.84,1.84,0,0,0,.62.62m.11,0c.35-.43-.16-1.08-.59-1.3M15.39,9A1.72,1.72,0,0,0,16,9.6m-.55-.49L15.39,9m.72.62c.36-.43-.16-1.08-.59-1.3m2.34,3.21.06.12m-.81-.07a1.7,1.7,0,0,0,.61.61m.11,0c.36-.42-.16-1.07-.59-1.29m2.47-.56.07.12M19,10.37a1.87,1.87,0,0,0,.61.61m.11,0c.36-.42-.15-1.07-.59-1.29m-5.06,8,.06.13m-.81-.08a1.72,1.72,0,0,0,.61.62m.11,0c.36-.43-.16-1.08-.59-1.3m2.47-.56.06.13m-.81-.08a1.65,1.65,0,0,0,.61.62m.11,0c.36-.43-.16-1.08-.59-1.3M13.66,6.4a1.75,1.75,0,0,0,.62.62m.11,0c.35-.43-.16-1.07-.59-1.3m2.47-.56.06.13m-.81-.08a1.65,1.65,0,0,0,.61.62m.11,0c.36-.43-.16-1.07-.59-1.29M17.37,4a1.65,1.65,0,0,0,.61.62m.11,0c.36-.43-.16-1.07-.59-1.29M20,2.79l.06.12m-.81-.07a1.7,1.7,0,0,0,.61.61m.11,0c.36-.43-.16-1.07-.59-1.29M5.15,12.3l.07.13m-.81-.08A1.72,1.72,0,0,0,5,13m.11,0c.36-.43-.16-1.08-.59-1.3M8.86,9.92l.06.13M8.11,10a1.65,1.65,0,0,0,.61.62m.11,0c.36-.43-.16-1.08-.59-1.3M10,8.78a1.81,1.81,0,0,0,.61.62m.11,0c.36-.43-.15-1.08-.59-1.3m2.47-.56.07.13m-.82-.08a1.81,1.81,0,0,0,.61.62m.11,0c.36-.43-.15-1.08-.58-1.3m-5.82,8a1.7,1.7,0,0,0,.61.61m.11,0c.36-.43-.16-1.07-.59-1.29m4.32-1.75.07.13m-.82-.08a1.87,1.87,0,0,0,.61.61m.11,0c.36-.42-.15-1.07-.58-1.29M21.82,1.6l.07.12m-.82-.07a1.87,1.87,0,0,0,.61.61m.11,0c.36-.42-.15-1.07-.58-1.29M22.92.46a1.87,1.87,0,0,0,.61.61m.11,0C24,.65,23.49,0,23.06-.22m3.18,9.6a1.7,1.7,0,0,0,.61.61M27,10c.36-.42-.16-1.07-.59-1.29m-5.69,4.24a1.75,1.75,0,0,0,.62.62m.1,0c.36-.43-.15-1.07-.58-1.29M17,15.32a1.73,1.73,0,0,0,.61.62m.11,0c.36-.43-.16-1.08-.59-1.3m11-6.45a1.78,1.78,0,0,0,.61.61m.11,0c.36-.42-.15-1.07-.59-1.29m12.57-.12a1.75,1.75,0,0,0,.62.62m-.55-.49-.07-.13m.73.62c.35-.43-.16-1.07-.59-1.29M24.75,21.81l.06.13M24,21.86a1.65,1.65,0,0,0,.61.62m.11,0c.36-.43-.16-1.07-.59-1.3m4.32-1.75.07.13m-.82-.08a1.81,1.81,0,0,0,.61.62m.11,0c.36-.43-.15-1.07-.58-1.29m2.46-.56.07.12m-.82-.08a1.75,1.75,0,0,0,.62.62m-.55-.49-.07-.13m.73.62c.35-.43-.16-1.07-.59-1.29M42.52,10a1.65,1.65,0,0,0,.61.62m.11,0c.36-.43-.16-1.08-.59-1.3m-15.08,14a1.84,1.84,0,0,0,.62.62m3.09-3a1.65,1.65,0,0,0,.61.62m.11,0c.36-.43-.16-1.08-.59-1.3M34,15.87l.06.12m-.81-.07a1.7,1.7,0,0,0,.61.61m.11,0c.36-.42-.16-1.07-.59-1.29m-30.66-4-.07-.13m0,0s0,0,0,0m0,.11h0m0,0-.06-.13m11.16-7L13.77,4m0,0s0,0,0,0m.05.1v0m0,0L13.79,4M23,1.92l-.07-.13m0,0s0,0,0,0m0,.1v0m0,0-.06-.13m0,0a5.31,5.31,0,0,0,2.66,0m.06.13-.06-.13M8,15.2,8,15.07m0,0s0,0,0,0m.06.1H8m0,0L8,15.08m0,0a5.31,5.31,0,0,0,2.66,0m.07.13L10.63,15M24.56,8.26l-.06-.13m0,0s0,0,0,0m.06.13-.06-.13m3.75-2.26-.06-.13m0,0s0,0,0,0m.07.13-.07-.13M20.73,14.4h0m-.07-.15s0,0,0,0m.06.12-.06-.12M17,16.78h0m0,0L17,16.65m0,0s0,0,0,0m.07.13L17,16.66M44.28,14l-.06-.13m0,0s0,0,0,0m.06.1v0m0,0-.07-.13M17.54,1.72l-.06-.13m0,0s0,0,0,0m.06.11s0,0,0,0m0,0-.07-.13m-1.8,1.31h0m-.07-.15s0,0,0,0m.06.13-.06-.13M19.39.53,19.33.4m0,0s0,0,0,0m.06.11s0,0,0,0m0,0L19.34.41M.88,12.42l-.07-.13m0,0s0,0,0,0m.06.11s0,0,0,0m0,0L.82,12.3m5.48.32-.06-.13m0,0s0,0,0,0m.06.11h0m0,0-.07-.13m0,0a5.32,5.32,0,0,0,2.66,0m.06.12-.06-.12M2.6,15l-.07-.13m0,0s0,0,0,0m.06.13-.06-.13m0,0a5.32,5.32,0,0,0,2.66,0m.06.12-.06-.12m2.94-3.42-.06-.13m0,0s0,0,0,0m.06.11h0m0,0-.07-.13m0,0a5.31,5.31,0,0,0,2.66,0m.07.12-.07-.12m3-3.42-.07-.13m0,0s0,0,0,0m.06.13-.06-.13m0,0a5.2,5.2,0,0,0,2.66,0m.06.13-.06-.13M17.68-2a5.76,5.76,0,0,0,1.94.12m14,7.86s0,0,0,0m.06.13L33.64,6m-7.36,4.87-.06-.12m0,0s0,0,0,0m.06.1h0m0,0-.07-.13M28,13.41l-.07-.13m0,0s0,0,0,0m.06.11s0,0,0,0m0,0L28,13.29M22.45,17h0m0,0-.06-.13m0,0s0,0,0,0m.06.13-.06-.13M42.69,7.67a5.84,5.84,0,0,0,2,.12M17.15,13l-.06-.13m0,0s0,0,0,0m.06.1h0m0,0-.07-.13m5.61-3.45-.07-.13m0,0s0,0,0,0m.05.11h0m0,0-.06-.13m-9.21,6.06-.06-.12m0,0s0,0,0,0m0,.1h0m0,0-.06-.12m1.84-1.21s0,0,0,0m.07.12-.07-.12m-3.39-5h0m0,0-.07-.13m0,0s0,0,0,0m.06.13-.06-.13m0,0a5.27,5.27,0,0,0,2.65,0m.07.13-.07-.13m2.95-3.42-.06-.12m0,0s0,0,0,0m.07.12-.07-.12m0,0a5.31,5.31,0,0,0,2.66,0m.06.13L20,5.33M9.88,14l-.07-.13m0,0a0,0,0,0,0,0,0m.07.13-.07-.13m0,0a5.31,5.31,0,0,0,2.66,0m.07.13-.07-.13m3.08-7.18h0m0,0-.06-.12m0,0s0,0,0,0m.05.1h0m0,0-.06-.12m0,0a5.31,5.31,0,0,0,2.66,0m.06.13-.06-.13m22.41,9.86-.06-.12m0,0s0,0,0,0m0,.1h0m0,0-.06-.12m-9.21,6.06-.06-.13m0,0s0,0,0,0m.06.11h0m0,0-.06-.13M35,20,35,19.82m0,0s0,0,0,0M35,20,35,19.84m5.74-7.22h0m0,0-.06-.13m0,0s0,0,0,0m.06.13-.06-.13m3.69-2.4s0,0,0,0m.07.13-.07-.13M29.73,16l-.07-.13m0,0s0,0,0,0m.05.11h0m0,0-.06-.13m0,0a5.32,5.32,0,0,0,2.66,0m.06.12-.06-.12m-.76-1-.06-.13m0,0s0,0,0,0m.06.13-.06-.13m0,0a5.32,5.32,0,0,0,2.66,0m.06.12-.06-.12m-.76-1-.06-.13m0,0s0,0,0,0m.06.11h0m0,0-.07-.13m0,0a5.32,5.32,0,0,0,2.66,0m.06.13L36,13.46M16.9,20.55h0m0,0-.07-.13m0,0s0,0,0,0m.06.11s0,0,0,0m0,0-.07-.13m0,0a5.2,5.2,0,0,0,2.66,0m.07.13-.07-.13M24,23.32,24,23.19m0,0s0,0,0,0m.07.13L24,23.2m0,0a5.31,5.31,0,0,0,2.66,0m.07.13-.07-.13m3-3.42-.07-.12m0,0s0,0,0,0m.06.12-.06-.12m0,0a5.31,5.31,0,0,0,2.66,0m.06.13-.06-.13m4.93-8.37-.07-.13m0,0s0,0,0,0m.06.11s0,0,0,0m0,0-.07-.13m0,0a5.31,5.31,0,0,0,2.66,0m.07.13-.07-.13M38.93,9.9s0,0,0,0M39,10s0,0,0,0m0,0-.06-.12m0,0a5.27,5.27,0,0,0,2.65,0m.07.13-.07-.13M26.41,7.07h0m0,0-.06-.13m0,0s0,0,0,0m.06.11s0,0,0,0m0,0L26.36,7m0,0a5.32,5.32,0,0,0,2.66,0m.06.12L29,6.92M18.94,11.69s0,0,0,0m.06.1s0,0,0,0m0,0L19,11.71m0,0a5.31,5.31,0,0,0,2.66,0m.07.13-.07-.13m-6.18-1.23-.06-.13m0,0s0,0,0,0m.06.13-.06-.13m0,0a5.32,5.32,0,0,0,2.66,0m.06.12L18,10.29m-.76-1h0m0,0-.06-.13m0,0s0,0,0,0m.06.11h0m0,0-.07-.13m0,0a5.31,5.31,0,0,0,2.66,0m.07.12-.07-.12m7.8,11.7s0,0,0,0m.05.1s0,0,0,0m0,0-.06-.12m0,0a5.27,5.27,0,0,0,2.65,0m.07.13-.07-.13m1.1-2.23s0,0,0,0m0,0-.06-.12m0,0s0,0,0,0m.05.1h0m0,0-.06-.13m0,0a5.31,5.31,0,0,0,2.66,0m.06.13-.06-.13M22.32,20.74s0,0,0,0m0,0-.06-.12m0,0s0,0,0,0m.06.13-.06-.13m0,0a5.31,5.31,0,0,0,2.66,0m.06.13-.06-.13m-.82-1.17s0,0,0,0m.07.13-.07-.13m0,0a5.31,5.31,0,0,0,2.66,0m.07.13-.07-.13M-4.6,10.76a1.75,1.75,0,0,0,.62.62m.11,0c.36-.43-.16-1.07-.59-1.29M1.71,7.15l.06.12M1,7.2a1.87,1.87,0,0,0,.61.61m.11,0c.36-.43-.15-1.07-.59-1.29M50,12.28a.55.55,0,0,0-.09.67m.77.05a1.4,1.4,0,0,0-.7-.85m.68.75a1.43,1.43,0,0,0-.62-.62m-.2.55a1.87,1.87,0,0,0,.39.46M49.94,13a1.57,1.57,0,0,0,.39.46m-51.22-5A1.65,1.65,0,0,0-.28,9m.11,0c.36-.43-.16-1.07-.59-1.29M39.05,6.15h0m.06.12-.07-.13m0,0A6.35,6.35,0,0,0,41,6.28m-1.87,0-.07-.13m1-.23a3.07,3.07,0,0,0-1,.21M15.8,20.34a1.42,1.42,0,0,0-.67-.74m.68.76a1.38,1.38,0,0,0-.61-.63M31.9,3.37h0m0,0a6,6,0,0,0,1.94.12M32,3.51l-.06-.12m1-.23a3.33,3.33,0,0,0-1.06.2M23,23.12a1.44,1.44,0,0,0-.67-.75m.68.76a1.48,1.48,0,0,0-.61-.63m23.72-9.82s0,0,0,0m.07.13-.07-.13m-3.65,2.5-.06-.13m0,0s0,0,0,0m.07.13-.07-.13m0,0A5.31,5.31,0,0,0,45,15m.06.13L45,15M16.39,1.4l.07.13m-.82-.08a1.84,1.84,0,0,0,.62.62m.11,0c.36-.43-.16-1.08-.59-1.3M20.1-1l.06.13m-.81-.08A1.72,1.72,0,0,0,20-.31m.11,0c.36-.43-.16-1.08-.59-1.3M8.24,6.2a1.65,1.65,0,0,0,.61.62m.11,0c.36-.43-.16-1.07-.59-1.29m4.32-1.75.07.12m-.82-.07a1.87,1.87,0,0,0,.61.61m.11,0c.36-.42-.15-1.07-.58-1.29M12.82,0l.07.13M12.07.06a1.81,1.81,0,0,0,.61.62m.11,0c.36-.43-.15-1.08-.59-1.3M-1,12.15a1.65,1.65,0,0,0,.61.62m.11,0c.36-.43-.16-1.08-.59-1.3M4.53,8.58a1.75,1.75,0,0,0,.62.62m-2.47.57a1.81,1.81,0,0,0,.61.62m.11,0c.36-.43-.15-1.08-.58-1.3m-4.89,4.32a1.4,1.4,0,0,0-.67-.75m.68.76a1.43,1.43,0,0,0-.61-.63M13-1.26a6.78,6.78,0,0,0-1.27-.15M11.14-1A4.82,4.82,0,0,0,13-1.21m.07.13L13-1.21m1.83-1.24a6.19,6.19,0,0,0-1.28-.14M13-2.24a4.82,4.82,0,0,0,1.86-.16m.07.13-.07-.13m-6.2,20A1.4,1.4,0,0,0,8,16.82m.68.76A1.42,1.42,0,0,0,8.05,17m-3-.88.06.12m0,0a1.46,1.46,0,0,0-.67-.74m.68.75a1.45,1.45,0,0,0-.62-.63M28.33,2a0,0,0,0,1,0,0m.05.11L28.33,2m0,0a6.33,6.33,0,0,0,1.94.12m-1.87,0L28.34,2m1.05-.23A3.17,3.17,0,0,0,28.33,2m-9,19.64.07.12m0,0a1.44,1.44,0,0,0-.66-.74m.68.75a1.45,1.45,0,0,0-.62-.63m0,0h0m0,0L18.66,21M35.48,4.76h0m0,.12h0m0,0-.06-.13m0,0a6,6,0,0,0,1.94.12m-1.87,0-.07-.13m1-.22a3.16,3.16,0,0,0-1.06.2m-7.86,20-.07-.13m0,0s0,0,0,0m.05.11h0m0,0-.06-.13m0,0a5.32,5.32,0,0,0,2.66,0m.06.12-.06-.12m-.82-1.18s0,0,0,0m.06.13-.06-.13m0,0a5.32,5.32,0,0,0,2.66,0m.06.13-.06-.13m3.2-11-.06-.13m0,0s0,0,0,0m.07.13-.07-.13m0,0a5.31,5.31,0,0,0,2.66,0m.07.13-.07-.13m4.67-.84-.06-.13m0,0s0,0,0,0m.05.11h0m0,0-.06-.13m0,0a5.32,5.32,0,0,0,2.66,0m.06.12-.06-.12M26,18.37h0m0,0L26,18.24m0,0s0,0,0,0m.06.11s0,0,0,0m0,0L26,18.25m0,0a5.2,5.2,0,0,0,2.66,0m.07.13-.07-.13m-.75-1-.07-.13m0,0s0,0,0,0m.07.13-.07-.13m0,0a5.31,5.31,0,0,0,2.66,0m.07.12L30.48,17m-4.65,5s0,0,0,0m.06.1s0,0,0,0m0,0L25.84,22m0,0a5.31,5.31,0,0,0,2.66,0m.07.13L28.5,22M40.84,8.85l-.07-.12m0,0s0,0,0,0m.06.12-.06-.12m0,0a5.31,5.31,0,0,0,2.66,0m.06.13-.06-.13m-36-6.39a6.21,6.21,0,0,0-1.28-.15m-.55.36a5.06,5.06,0,0,0,1.86-.16m.06.13-.06-.13m7.4-5.79a8.52,8.52,0,0,0,1.13,0M-3.69,9.44A6.19,6.19,0,0,0-5,9.3m-.55.35a4.6,4.6,0,0,0,1.85-.16M3.71,4.68a6.77,6.77,0,0,0-1.27-.14m-.56.36a5,5,0,0,0,1.86-.16m.07.12-.07-.12m33.14,14h0m0,0-.07-.12m0,0s0,0,0,0m.05.1s0,0,0,0m0,0-.06-.12m0,0a5.27,5.27,0,0,0,2.65,0m.07.13-.07-.13m-.75-1-.07-.12m0,0s0,0,0,0m.06.12-.06-.12m0,0a5.31,5.31,0,0,0,2.66,0m.06.13-.06-.13M-5.54,10.63a6.19,6.19,0,0,0-1.28-.14m-.56.35a4.63,4.63,0,0,0,1.86-.16m.07.13-.07-.13M1.86,5.87A6.77,6.77,0,0,0,.59,5.73M0,6.09a5,5,0,0,0,1.86-.16M-1.84,8.25a7,7,0,0,0-1.28-.14m-.55.35A4.66,4.66,0,0,0-1.81,8.3M-5.65,12a1.42,1.42,0,0,0-.66-.75m.68.76a1.45,1.45,0,0,0-.62-.63m0,0h0m0,0-.07-.12M5.41,4.77l.07.13m-.82-.08a1.81,1.81,0,0,0,.62.61m.11,0C5.74,5,5.23,4.36,4.8,4.14m2.47-.56.06.13m-.81-.08a1.72,1.72,0,0,0,.61.62m.11,0c.36-.43-.16-1.08-.59-1.3M-2.74,9.57a1.65,1.65,0,0,0,.61.62m.11,0c.36-.43-.16-1.07-.59-1.29M2.81,6a1.87,1.87,0,0,0,.61.61m.11,0C3.89,6.2,3.38,5.55,3,5.33m9.22,13.51.07.13m0,0a1.44,1.44,0,0,0-.67-.75m.68.76a1.4,1.4,0,0,0-.62-.63m31-10.8h0m0,.11h0m0,0-.06-.12m0,0a6.33,6.33,0,0,0,1.94.12m-1.88,0-.06-.12m1-.23a3.12,3.12,0,0,0-1.06.21M46.2,8.92h0m.06.12-.07-.13m0,0a6,6,0,0,0,1.94.12m-1.87,0-.07-.12m1-.23a3.43,3.43,0,0,0-1.06.2M26.52,24.51a1.42,1.42,0,0,0-.66-.75m.68.76a1.45,1.45,0,0,0-.62-.63M30.31,26a1.44,1.44,0,0,0-.67-.75m.68.76a1.4,1.4,0,0,0-.62-.63M33.36,23a.57.57,0,0,0-.09.68m.77,0a1.4,1.4,0,0,0-.7-.85m.68.76a1.38,1.38,0,0,0-.61-.63m-.2.55a1.87,1.87,0,0,0,.39.46m-.33-.33a1.87,1.87,0,0,0,.39.46m3.41-3.52a.56.56,0,0,0-.09.68m.77,0a1.43,1.43,0,0,0-.7-.85m.68.76a1.45,1.45,0,0,0-.62-.63m-.2.55a1.87,1.87,0,0,0,.39.46M37,21.28a1.87,1.87,0,0,0,.39.46M42.62,17a.57.57,0,0,0-.09.68m.77.05a1.35,1.35,0,0,0-.7-.85m.68.75a1.48,1.48,0,0,0-.61-.63m-.2.55a1.57,1.57,0,0,0,.39.46m-.33-.33a1.87,1.87,0,0,0,.39.46m-17.07,2.5a1.81,1.81,0,0,0,.61.62m.11,0c.36-.43-.15-1.07-.59-1.29m6.18-2.94.06.12m-.81-.07a1.7,1.7,0,0,0,.61.61m.11,0c.36-.43-.16-1.07-.59-1.29m4.32-1.75.06.13m-.81-.08a1.7,1.7,0,0,0,.61.61m.11,0c.36-.42-.16-1.07-.59-1.29m2.47-.56.07.13M37,13.54a1.9,1.9,0,0,0,.61.62m.11,0c.36-.43-.15-1.08-.58-1.3m5.29.88a1.7,1.7,0,0,0,.61.61m.11,0c.36-.42-.16-1.07-.59-1.29M45,12.5l.06.13m-.81-.08a1.7,1.7,0,0,0,.61.61m.11,0c.36-.42-.16-1.07-.59-1.29m-3.71-.71a1.84,1.84,0,0,0,.62.62m.11,0c.35-.43-.16-1.08-.59-1.3m-7.67,9.2a1.65,1.65,0,0,0,.61.62m.11,0c.36-.43-.16-1.08-.59-1.3m-1.72-5.66a1.72,1.72,0,0,0,.61.62m.11,0c.36-.43-.16-1.08-.59-1.3m12.7-3.88A1.65,1.65,0,0,0,45,9.4m.11,0c.36-.43-.16-1.08-.59-1.3m-4.94,4.2.07.13m-.82-.08a1.9,1.9,0,0,0,.61.62m.11,0c.36-.43-.15-1.08-.58-1.3M30.17,22l.07.13m-.82-.08a1.75,1.75,0,0,0,.62.62m.11,0c.36-.43-.16-1.08-.59-1.3M15.82-.86,15.75-1m0,0s0,0,0,0m.06.13L15.77-1M4.58,10l-.07-.13m0,0s0,0,0,0m.06.12-.06-.12m0,0a5.31,5.31,0,0,0,2.66,0m.06.13-.06-.13M13.91.19s0,0,0,0M14,.32h0m0,0L13.92.21M8.28,7.66l-.06-.12m0,0s0,0,0,0m.07.12-.07-.12m0,0a5.31,5.31,0,0,0,2.66,0m.07.13-.07-.13m10,3.13-.07-.13m0,0s0,0,0,0m.05.11h0m0,0-.06-.13m0,0a5.16,5.16,0,0,0,2.65,0m.07.13-.07-.13m6.66-5.79-.07-.13m0,0s0,0,0,0m.06.11s0,0,0,0m0,0-.07-.13m0,0a5.31,5.31,0,0,0,2.66,0m.07.13-.07-.13M15.17,18h0m0,0-.06-.13m0,0s0,0,0,0m.06.11h0m0,0-.07-.13m0,0a5.31,5.31,0,0,0,2.66,0m.07.13-.07-.13m6.59-5.93s0,0,0,0m.06.12-.06-.12m0,0a5.31,5.31,0,0,0,2.66,0m.06.13L27,11.87M24.3,15.79l-.06-.13m0,0s0,0,0,0m.06.11h0m0,0-.07-.13m0,0a5.32,5.32,0,0,0,2.66,0m.06.13-.06-.13m-.82-1.18s0,0,0,0m.07.13-.07-.13m0,0a5.31,5.31,0,0,0,2.66,0m.07.13-.07-.13m1.1-2.23-.07-.13m0,0s0,0,0,0m.06.12-.06-.12m0,0a5.31,5.31,0,0,0,2.66,0m.06.13-.06-.13m-.76-1-.07-.12m0,0s0,0,0,0m.05.1h0m0,0-.06-.12m0,0a5.31,5.31,0,0,0,2.66,0m.06.13-.06-.13M8.41,3.9l-.06-.13m0,0s0,0,0,0m.06.11h0m0,0-.07-.13M2.86,7.47l-.07-.13m0,0s0,0,0,0m.06.13-.06-.13m9.31-5.83-.07-.13m0,0s0,0,0,0m.06.11s0,0,0,0m0,0-.07-.13M10.2,2.57s0,0,0,0m.07.13-.07-.13M4.45,13.81l-.06-.13m0,0s0,0,0,0m.06.13-.06-.13M9.94,10.1s0,0,0,0m9.63,4,.07.13m-.82-.08a1.81,1.81,0,0,0,.61.62m.11,0c.36-.43-.15-1.07-.58-1.3M29.94,7a1.78,1.78,0,0,0,.61.61m.11,0c.36-.42-.15-1.07-.58-1.29M21.18-.79a0,0,0,0,0,0,0m.06.12-.07-.13m0,0a6,6,0,0,0,1.94.12m-1.87,0-.07-.13m1-.22a3.16,3.16,0,0,0-1.06.2M17.61-2.18s0,0,0,0m.05.12h0m0,0-.06-.13m0,0A6,6,0,0,0,19.56-2M17.68-2l-.06-.12m1.05-.23a3.43,3.43,0,0,0-1.06.2M1.45,14.68l.07.13m0,0a1.42,1.42,0,0,0-.66-.75m.68.76a1.4,1.4,0,0,0-.62-.63M24.77.61a6.33,6.33,0,0,0,1.94.12m-1.88,0L24.77.61M25.82.38a3.33,3.33,0,0,0-1.06.21M44.47,15.84a.57.57,0,0,0-.09.68m.77.05a1.37,1.37,0,0,0-.7-.85m.68.75a1.42,1.42,0,0,0-.61-.63m0,0h-.05m-.15.55a1.57,1.57,0,0,0,.39.46m-.24-1-.06-.12m0,.8a1.87,1.87,0,0,0,.39.46m-3.4,1.74.06.13m-.66-.63a.57.57,0,0,0-.09.68m.77.05a1.39,1.39,0,0,0-.7-.86m.68.76a1.45,1.45,0,0,0-.62-.63m0,0h0m-.15.55a1.87,1.87,0,0,0,.39.46m-.24-1-.06-.12m0,.8a1.87,1.87,0,0,0,.39.46m8.72-9a6,6,0,0,0,1.94.12m-1.88,0-.06-.13m1.05-.22a3.07,3.07,0,0,0-1.06.2m-1,3.67.07.12m-.66-.62a.55.55,0,0,0-.09.67m.77,0a1.4,1.4,0,0,0-.7-.85m.68.75a1.43,1.43,0,0,0-.62-.62M48,14a1.67,1.67,0,0,0,.39.45m-.32-.33a1.71,1.71,0,0,0,.39.46M32.11,24.67l.06.13m-.66-.63a.57.57,0,0,0-.09.68m.77,0a1.4,1.4,0,0,0-.7-.85m.68.76a1.43,1.43,0,0,0-.61-.63m0,0a0,0,0,0,0,0,0m-.15.55a1.87,1.87,0,0,0,.39.46m-.24-1L31.45,24m0,.81a1.67,1.67,0,0,0,.39.45m4-3,.07.13m-.66-.63a.55.55,0,0,0-.09.68m.76,0a1.4,1.4,0,0,0-.7-.85m.69.76a1.45,1.45,0,0,0-.62-.63m-.2.55a1.87,1.87,0,0,0,.39.46m-.32-.33a1.83,1.83,0,0,0,.38.46m3.41-3.52a.56.56,0,0,0-.09.68m.77.05a1.42,1.42,0,0,0-.7-.86m.68.76a1.45,1.45,0,0,0-.62-.63m-.2.55a1.87,1.87,0,0,0,.39.46m-.32-.33a1.87,1.87,0,0,0,.39.46m7.11-5.89a.53.53,0,0,0-.09.67m.76.05a1.36,1.36,0,0,0-.69-.85m.68.75a1.5,1.5,0,0,0-.62-.63m-.2.56a1.67,1.67,0,0,0,.39.45m-.32-.33a1.87,1.87,0,0,0,.39.46M48,11.63l-.07-.13m0,0s0,0,0,0m.06.13-.06-.13m-27-6.1a1.81,1.81,0,0,0,.61.62m.11,0c.36-.43-.15-1.08-.58-1.3M24.65,3a1.65,1.65,0,0,0,.61.62m.11,0c.36-.43-.16-1.07-.59-1.29M18.7,17.9a1.9,1.9,0,0,0,.61.62M33.65,4.62a1.72,1.72,0,0,0,.61.62m.11,0c.36-.43-.16-1.08-.59-1.3M27.12,5.56l.06.13m-.81-.08a1.72,1.72,0,0,0,.61.62m.11,0c.36-.43-.16-1.08-.59-1.3m4.32-1.75.07.13m-.82-.08a1.81,1.81,0,0,0,.61.62m.11,0c.36-.43-.15-1.08-.58-1.3m-4.1,10.59a1.65,1.65,0,0,0,.61.62m7.55-5.42.06.12m-.81-.08a1.65,1.65,0,0,0,.61.62m.11,0c.36-.43-.16-1.07-.59-1.29m1.72-.51a1.7,1.7,0,0,0,.61.61m.11,0c.36-.43-.16-1.07-.59-1.29M24.13,18.1a1.7,1.7,0,0,0,.61.61m.11,0c.36-.42-.16-1.07-.59-1.29M11,1.2l.06.13m-.81-.08a1.72,1.72,0,0,0,.61.62m.11,0c.36-.43-.16-1.08-.59-1.3m-2,1.87A1.72,1.72,0,0,0,9,3.06m.11,0c.36-.43-.16-1.08-.59-1.3m7.27-4.08a1.75,1.75,0,0,0,.62.62m.11,0c.35-.43-.16-1.08-.59-1.3m-2,1.87a1.81,1.81,0,0,0,.61.62m.11,0c.36-.43-.15-1.08-.58-1.3M7.14,7.34l.06.13m-.81-.08A1.65,1.65,0,0,0,7,8m.11,0c.36-.43-.16-1.07-.59-1.29M10.09,5a1.78,1.78,0,0,0,.61.61m.11,0c.36-.43-.16-1.07-.59-1.29m42.26,7.25.06.13m-.66-.63a.56.56,0,0,0-.09.67m.77.05a1.4,1.4,0,0,0-.7-.85m.68.76a1.43,1.43,0,0,0-.61-.63m0,0h0m-.15.55a1.87,1.87,0,0,0,.39.46m-.24-1L51.82,11m0,.8a1.57,1.57,0,0,0,.39.46M1.58,10.91l.07.13M.83,11a1.81,1.81,0,0,0,.61.62m.11,0c.36-.43-.15-1.08-.59-1.3M35.24,11a1.65,1.65,0,0,0,.61.62m.11,0c.36-.43-.16-1.08-.59-1.3M34.14,12.1l.06.13m-.81-.08a1.65,1.65,0,0,0,.61.62m.11,0c.36-.43-.16-1.08-.59-1.3m6.17-2.94.07.13m-.82-.08a1.81,1.81,0,0,0,.61.62m.11,0c.36-.43-.15-1.07-.58-1.29m-2,1.86a1.81,1.81,0,0,0,.61.62m.11,0c.36-.43-.15-1.08-.59-1.3M26.73,16.86l.06.13M26,16.91a1.7,1.7,0,0,0,.61.61m.11,0c.36-.42-.16-1.07-.59-1.29m-3.08,3,.06.12m-.81-.07a1.7,1.7,0,0,0,.61.61m.11,0c.36-.42-.16-1.07-.59-1.29M25,14.28l.06.13m-.81-.08a1.65,1.65,0,0,0,.61.62M25,15c.36-.43-.16-1.08-.59-1.3m3.44,2.07a1.9,1.9,0,0,0,.61.62M28,12a1.81,1.81,0,0,0,.61.62m.11,0c.36-.43-.15-1.08-.59-1.3m1.72-.51a1.81,1.81,0,0,0,.61.62m.11,0c.36-.43-.15-1.07-.58-1.29M20.42,20.47a1.75,1.75,0,0,0,.62.62m.11,0c.35-.43-.16-1.07-.59-1.29m9.87-5.32.07.13m-.82-.08a1.84,1.84,0,0,0,.62.62m.1,0c.36-.43-.15-1.08-.58-1.3m8.86,2.26a1.75,1.75,0,0,0,.62.62m.11,0c.35-.43-.16-1.07-.59-1.29m-3.84,3a1.73,1.73,0,0,0,.61.62m.11,0c.36-.43-.15-1.07-.59-1.29m12.83-7.65a1.9,1.9,0,0,0,.61.62m.11,0c.36-.43-.15-1.08-.58-1.3m-2,1.87a1.9,1.9,0,0,0,.61.62m.11,0c.36-.43-.15-1.08-.59-1.3m-8.64,6.57.07.13m-.82-.08a1.81,1.81,0,0,0,.61.62m.11,0c.36-.43-.15-1.07-.58-1.29M-4.55,12.22l-.06-.13m0,0s0,0,0,0m.06.12-.06-.12m0,0a5.31,5.31,0,0,0,2.66,0m.06.13-.06-.13m43.22,2.81.07.12m-.81-.07a1.7,1.7,0,0,0,.61.61m.11,0c.36-.43-.16-1.07-.59-1.29M-2.7,11h0m0,0-.06-.12m0,0s0,0,0,0m.06.1h0m0,0-.06-.12m0,0a5.31,5.31,0,0,0,2.66,0M0,11l-.06-.13M1,8.65v0m0,0L.94,8.53m0,0s0,0,0,0M6.5,5s0,0,0,0m.06.13L6.51,5M4.71,6.28l-.07-.13m0,0s0,0,0,0m0,.11h0m0,0-.06-.13M-.85,9.84l-.06-.12m0,0s0,0,0,0m.07.12L-.9,9.73m0,0a5.31,5.31,0,0,0,2.66,0m.07.13-.07-.13M-1,13.47s0,0,0,0m.07.13L-1,13.49m0,0a5.31,5.31,0,0,0,2.66,0m.07.13-.07-.13m4.8-4.61h0m0,0-.06-.12m0,0s0,0,0,0m0,.1h0m0,0-.06-.12m0,0A5.31,5.31,0,0,0,9,8.7m.06.13L9,8.7m1.1-2.23-.07-.12m0,0s0,0,0,0m.06.1h0m0,0-.07-.12m0,0a5.31,5.31,0,0,0,2.66,0m.07.13-.07-.13m-.75-1-.07-.13m0,0s0,0,0,0M12,5.3l-.07-.13m0,0a5.31,5.31,0,0,0,2.66,0m.07.13-.07-.13m4.55,2.93-.07-.13m0,0s0,0,0,0m.07.13-.07-.13m0,0a5.31,5.31,0,0,0,2.66,0m.07.13-.07-.13M19.26,4.29l-.06-.12m0,0s0,0,0,0m.06.1h0m0,0-.07-.12m7.33-.88-.06-.12m0,0s0,0,0,0m.07.12-.07-.12M9.75,17.77l-.07-.13m0,0s0,0,0,0m.05.1s0,0,0,0m0,0-.06-.12m0,0a5.27,5.27,0,0,0,2.65,0m.07.13-.07-.13M33.56,9.84l-.06-.12m0,0s0,0,0,0m.05.1h0m0,0-.06-.12m0,0a5.31,5.31,0,0,0,2.66,0m.06.13-.06-.13m-.82-1.17s0,0,0,0m.07.13-.07-.13m0,0A5.31,5.31,0,0,0,38,8.5m.07.13L38,8.5M28.14,9.65l-.07-.13m0,0s0,0,0,0m.06.1s0,0,0,0m0,0-.07-.13m0,0a5.31,5.31,0,0,0,2.66,0m.07.13-.07-.13m1.1-2.22a0,0,0,0,1,0,0m0,0-.07-.13m0,0s0,0,0,0m.05.11h0m0,0-.06-.13m0,0a5.32,5.32,0,0,0,2.66,0m.06.12-.06-.12m-13.33-4L21.05,3m0,0V3m.07.13L21.06,3M6.17,16.38l-.06-.12m0,0s0,0,0,0m.07.12-.07-.12m5.61-3.45-.07-.13m0,0s0,0,0,0m.05.11h0m0,0-.06-.13m1.84-1.21s0,0,0,0m.05.11h0m0,0-.06-.13m0,0a5.32,5.32,0,0,0,2.66,0m.06.12-.06-.12m6.65-5.8-.07-.13m0,0s0,0,0,0m.06.13-.06-.13m0,0a5.32,5.32,0,0,0,2.66,0m.06.13-.06-.13m-13.85,11-.07-.12m0,0s0,0,0,0m.06.12-.06-.12m0,0a5.31,5.31,0,0,0,2.66,0m.06.13-.06-.13M21,6.87h0m0,0-.07-.13m0,0s0,0,0,0m0,.11s0,0,0,0m0,0-.06-.13m0,0a5.27,5.27,0,0,0,2.65,0m.07.13-.07-.13m1.1-2.23-.06-.12m0,0s0,0,0,0m.05.1h0m0,0-.06-.12m0,0a5.31,5.31,0,0,0,2.66,0m.06.13-.06-.13M13.79,2.64a1.81,1.81,0,0,0,.62.61m.1,0c.36-.42-.15-1.07-.58-1.29M17.5.26a1.72,1.72,0,0,0,.61.62m.11,0c.36-.43-.16-1.08-.59-1.3m-15.08,14a1.84,1.84,0,0,0,.62.62m.1,0c.36-.43-.15-1.08-.58-1.3m3.57-1.7a1.72,1.72,0,0,0,.61.62m.11,0c.36-.43-.16-1.08-.59-1.3m7.76,3.41.07.12m-.81-.08a1.65,1.65,0,0,0,.61.62m.11,0c.36-.43-.16-1.07-.59-1.29m1.72-.51a1.7,1.7,0,0,0,.61.61m.11,0c.36-.43-.16-1.07-.59-1.29m5.42-2.89a1.78,1.78,0,0,0,.61.61m.11,0c.36-.42-.15-1.07-.58-1.29m2.46-.56.07.13M22.66,8a1.84,1.84,0,0,0,.62.62m.11,0c.35-.43-.16-1.08-.59-1.3m-5.56.48a1.72,1.72,0,0,0,.61.62m.11,0c.36-.43-.16-1.08-.59-1.3m1.72-.51a1.73,1.73,0,0,0,.61.62m.11,0c.36-.43-.16-1.08-.59-1.3M10.45,16.26l.07.13m-.82-.08a1.81,1.81,0,0,0,.61.62m.11,0c.36-.43-.15-1.07-.58-1.3m1.71-.51a1.75,1.75,0,0,0,.62.62m.11,0c.35-.43-.16-1.07-.59-1.29M22.79,4.22a1.75,1.75,0,0,0,.62.62m.1,0c.36-.43-.15-1.07-.58-1.3m3.57-1.7a1.65,1.65,0,0,0,.61.62m.11,0c.36-.43-.16-1.07-.59-1.29m-1.49,9.35.06.12m-.81-.08a1.65,1.65,0,0,0,.61.62m.11,0c.36-.43-.16-1.07-.59-1.29m-2,1.86a1.75,1.75,0,0,0,.62.62m.11,0c.36-.43-.16-1.07-.59-1.29m16.19,2.73-.07-.13m0,0s0,0,0,0m0,.11h0m0,0-.06-.13m0,0a5.32,5.32,0,0,0,2.66,0m.06.12-.06-.12M37,15l-.07-.13m0,0v0M37,15,37,14.88m0,0a5.31,5.31,0,0,0,2.66,0m.07.12-.07-.12M33.3,17.38l-.06-.13m0,0s0,0,0,0m.07.13-.07-.13m0,0a5.31,5.31,0,0,0,2.66,0m.06.13-.06-.13m-.76-1h0m0,0-.06-.13m0,0s0,0,0,0m.06.11s0,0,0,0m0,0-.07-.13m0,0a5.31,5.31,0,0,0,2.66,0m.07.13L37.76,16M0,7.06a6.86,6.86,0,0,0-1.27-.14m-.56.36A5,5,0,0,0,0,7.12M5.57,3.49a7,7,0,0,0-1.28-.14m-.55.36a5,5,0,0,0,1.85-.16m.07.12-.07-.12M9.27,1.12A6.21,6.21,0,0,0,8,1m-.55.36A5.06,5.06,0,0,0,9.3,1.17m.06.13L9.3,1.17M11.12-.07A6,6,0,0,0,9.85-.22M9.29.14A4.83,4.83,0,0,0,11.15,0m.06.13L11.15,0M22.58,13.21l-.06-.12m0,0s0,0,0,0m0,.1h0m0,0-.06-.12m0,0a5.31,5.31,0,0,0,2.66,0m.06.13-.06-.13M13.26,19s0,0,0,0m.06.13L13.27,19m0,0a5.32,5.32,0,0,0,2.66,0m.06.12L15.93,19m2.95-3.42-.07-.13m0,0s0,0,0,0m.06.11s0,0,0,0m0,0-.07-.13m0,0a5.31,5.31,0,0,0,2.66,0m.07.13-.07-.13m-2.73,3.92-.07-.13m0,0s0,0,0,0m.06.13-.06-.13m0,0a5.27,5.27,0,0,0,2.65,0m.07.12-.07-.12m-.75-1h0m0,0L20.53,18m0,0s0,0,0,0m.05.11h0m0,0-.06-.13m0,0a5.32,5.32,0,0,0,2.66,0m.06.12L23.21,18M37.27,7.47h0m0,0-.07-.13m0,0s0,0,0,0m.06.1h0m0,0-.07-.13m0,0a5.31,5.31,0,0,0,2.66,0m.07.13-.07-.13M20.47,21.93l-.06-.12m0,0s0,0,0,0m0,.1h0m0,0-.06-.12m0,0a5.31,5.31,0,0,0,2.66,0m.06.13-.06-.13m10-.78s0,0,0,0m.06.11a0,0,0,0,0,0,0m0,0L33.12,21m0,0a5.31,5.31,0,0,0,2.66,0m.07.13L35.78,21M17.42,5.47h0m2.24,8.73,0-.06m5.59-3.51,0-.06m-1.82,1.25,0-.06m7.45-4.69a.43.43,0,0,0,0-.07M34.46,4.7a.25.25,0,0,0,0-.07m-2.07,8.79,0-.07m1.89-1.12,0-.07m5.59-3.5,0-.06M22.33,20.75h0M37.9,9.85l0-.06M26,18.37h0m6.18-1.2,0-.06m-.75.05,0,.06m6.31-3.61,0-.07m-11.08,7.2,0-.06m4.83-2.12h0m4.46-3.77,0-.07m3.74-2.31,0-.07m1.89-1.12a.25.25,0,0,0,0-.07m3.74-2.31,0-.07M32,3.51a6.08,6.08,0,0,0,1.94.12M35.56,4.9A6,6,0,0,0,37.5,5m1.63,1.27a6.38,6.38,0,0,0,1.94.12M15.18,18h0m15.44-7.14,0-.06m3.74-2.32,0-.06M31.84,7.27h0M28.78,12l0-.06m-3.67,2.44,0-.07M36.18,7.27l0-.06M16.9,20.55h0m3.69-2.39h0M37.27,7.47h0m-16,13.07,0-.06m-.74.05,0,.06m2.6-1.24,0-.06m-.75.05,0,.06m12.82-3.22h0m8-2.39,0-.06m1.88-1.12,0-.07m1.88-1.12,0-.07m1.89-1.12,0-.07m-18.48,12,0-.07m-.74.05,0,.07m6.3-3.62,0-.06m-.74,0a.14.14,0,0,0,0,.06m2.61-1.24,0-.06m1.89-1.13,0-.06M41.35,15l0-.06m-4.43,3.83h0M43.3,10l0,.07m-10,5.19h0M6.44,8.86h0M3.37,13.62a.16.16,0,0,0,0-.07m3.74-2.31,0-.07M17.29,9.25h0M21,6.88h0M10.52,16.39l0-.06m1.89-1.13,0-.06M14.22,14l0-.06m7.45-4.69a.43.43,0,0,0,0-.07m-5.52,3.63,0-.06m7.44-4.69a.25.25,0,0,0,0-.07m3.74-2.31,0-.07m-.73,1.45h0M-3.78,10.84l0-.06M-.08,8.46l0-.06M1.77,7.27l0-.06M3.63,6.08l0-.06M11,1.33l0-.07M14.74-1a.43.43,0,0,1,0-.07m1.89-1.12,0-.06M-2.69,11h0m24-11.69a6.06,6.06,0,0,0,1.94.12M46.28,9.06a6.06,6.06,0,0,0,1.94.12M24.83.74a6.38,6.38,0,0,0,1.94.12M24.94,18.17l0-.06M26.79,17l0-.07m1.11-1.14,0,.07m2.6-1.24a.25.25,0,0,0,0-.07M28.41,2.12a6,6,0,0,0,1.94.12M7.2,7.47l0-.06M9.05,6.28l0-.06M20.16-.85l0-.07M18.31.34l0-.07M10.77,8.86l0-.07m3.74-2.31a.21.21,0,0,0,0-.06M12.63,7.67l0-.06m3.74-2.32,0-.06M11.86,9.06h0m3.7-2.38h0m6.32-5a.21.21,0,0,1,0-.06M18.18,4.1l0-.06M20,2.91l0-.06M23.74.53l0-.06m-9.35,9.78a.25.25,0,0,0,0-.07M16.2,9.06l0-.07M6.94,15l0-.06m1.88-1.13,0-.06m1.89-1.12,0-.07m1.89-1.12a.43.43,0,0,0,0-.07m29.15-3.9a.21.21,0,0,0,0-.06M32.41,9.52l.07.13M38,6l.06.12M21.3,16.66l.07.13m1.79-1.32.06.13M27,9.33l.06.12m-5.62,3.44.07.13m-3.77,2.25.06.13M28.84,8.14l.06.12m-.63-2.39h0M20.73,14.4l-.07-.12m.07.11h0m-.05-.11a5.31,5.31,0,0,0,2.66,0m.06.13-.06-.13m-3.7,2.35.06.13m-2.67,0s0,0,0,0M17,16.66a5.31,5.31,0,0,0,2.66,0m.07.13-.07-.13M15.69,2.91l-.06-.13m.06.12h0m-2,4.94h0m20-1.79h0m0-.12a5.32,5.32,0,0,0,2.66,0m.06.12-.06-.12M26.23,10.72a5.31,5.31,0,0,0,2.66,0m.07.13-.07-.13M28,13.29a5.31,5.31,0,0,0,2.66,0m.07.13-.07-.13M22.45,17h0m-.05-.12a5.32,5.32,0,0,0,2.66,0m.06.12-.06-.12M15.3,14.2l-.06-.12M9.88,14s0,0,0,0m30.83-1.4h0m3.7-2.38-.06-.13m.07.12h0M24,21.93l0,.06M13.31,17.76l0,.07M31.73,9.7l-.07-.13M11.77,10.68h0m8.85,6.16-.07-.13m12-11,.07.13M31.7,9.64l0,.06m0,0a1.65,1.65,0,0,0,.61.62m.11,0a.55.55,0,0,0,0-.67m-.2.54h.11m.06.13-.06-.13m0,.13h.11m-.7-1.42a.56.56,0,0,0-.09.67m.68.75-.06-.13M31.8,8.9h-.05m5.51-2.83a.14.14,0,0,0,0,.06m0,0a1.75,1.75,0,0,0,.62.62m-.62-.62L37.22,6m.79.74a.56.56,0,0,0,0-.67m-.2.54a.11.11,0,0,0,.11,0m.07.13-.07-.13m0,.13H38m-.7-1.42a.56.56,0,0,0-.09.68m.68.74-.07-.13m-.48-1.29h0M20.59,16.77l0,.07m0,0a1.7,1.7,0,0,0,.61.61m.11,0a.55.55,0,0,0,0-.66m-.2.54a.21.21,0,0,0,.11,0m.06.12-.06-.12m-.05.12a.11.11,0,0,0,.11,0M20.64,16a.57.57,0,0,0-.09.68m.68.74-.06-.12M20.69,16a0,0,0,0,0-.05,0m1.8-.45,0,.07m0,0a1.78,1.78,0,0,0,.61.61m-.61-.61-.06-.13m.78.74a.53.53,0,0,0,0-.66m-.2.54h.11m.06.12-.06-.12m-.05.12a.11.11,0,0,0,.11,0m-.69-1.42a.55.55,0,0,0-.09.68m.67.74L23,16.14m-.48-1.3h0m2.05-8,0,.07m0,0a1.87,1.87,0,0,0,.61.61m-.61-.61-.06-.13m.78.74a.53.53,0,0,0,0-.66m-.2.54h.11m.06.12-.06-.12m0,.12a.11.11,0,0,0,.11,0m-.69-1.42a.55.55,0,0,0-.09.68m.67.74-.06-.12m-.48-1.3h0m3.65-1.64a.14.14,0,0,0,0,.07m0,0a1.84,1.84,0,0,0,.62.62m-.62-.62-.06-.13m.79.75a.56.56,0,0,0,0-.67m-.2.54h.11m.07.13L28.94,5m0,.13H29m-.7-1.43a.56.56,0,0,0-.09.68m.68.75L28.83,5m-.48-1.3h0M17.63,19.1l0,.07M31.83,5.87l0,.07m0,0a1.7,1.7,0,0,0,.61.61m-.61-.61-.07-.13m.79.74a.55.55,0,0,0,0-.66m-.2.54a.21.21,0,0,0,.11,0m.06.12-.06-.12m-.05.12a.11.11,0,0,0,.11,0m-.7-1.42a.57.57,0,0,0-.09.68m.68.74-.06-.12m-.48-1.3h-.05m-15,14a.09.09,0,0,0,0,.06m0,0a1.65,1.65,0,0,0,.61.62m-.61-.62-.07-.12m.79.74a.55.55,0,0,0,0-.66m-.2.53a.11.11,0,0,0,.11,0m.07.13-.07-.13m0,.13a.21.21,0,0,0,.11,0m-.7-1.42a.56.56,0,0,0-.09.68m.68.74-.07-.13M17,18.41s0,0,0,0M8.73,13.69l.06.12m3.64-2.5.07.13M8,13.8a.14.14,0,0,0,0,.06m0,0a1.75,1.75,0,0,0,.62.62M8,13.86,8,13.74m.79.74a.56.56,0,0,0,0-.67m-.2.54a.11.11,0,0,0,.11,0m.07.13-.07-.13m0,.13h.11m-.7-1.42a.54.54,0,0,0-.09.68m.68.74-.07-.13m-.48-1.29h0m3.65-1.64,0,.07m0,0a1.7,1.7,0,0,0,.61.61m-.61-.61-.07-.13m.79.74a.55.55,0,0,0,0-.66m-.2.54h.1m.07.12L12.4,12m0,.12h.11m-.7-1.42a.57.57,0,0,0-.09.68m.68.74L12.3,12m-.48-1.3h-.05m4.37-1.75.06.13m-2.63,1.17,0,.07m0,0a1.78,1.78,0,0,0,.61.61m-.61-.61-.07-.13m.79.74a.53.53,0,0,0,0-.66m-.2.54a.21.21,0,0,0,.11,0m.06.12-.06-.12m0,.12a.11.11,0,0,0,.11,0m-.7-1.42a.57.57,0,0,0-.09.68m.68.74-.06-.12m-.48-1.3h-.05M15.42,9l0,.07m0,0a1.87,1.87,0,0,0,.61.61m.11,0a.53.53,0,0,0,0-.66M16,9.6h.11m.06.12-.06-.12m-.05.12a.11.11,0,0,0,.11,0M15.48,8.3a.55.55,0,0,0-.09.68m.67.74L16,9.6m-.48-1.3s0,0,0,0m1.66,3.32,0,.06m0,0a1.75,1.75,0,0,0,.62.62m-.62-.62-.06-.12m.79.74a.56.56,0,0,0,0-.67m-.2.54a.11.11,0,0,0,.11,0m.07.13-.07-.13m0,.13h.11m-.7-1.42a.54.54,0,0,0-.09.68m.68.74-.07-.13m-.48-1.29s0,0,0,0m1.8-.45a.09.09,0,0,0,0,.06m0,0a1.65,1.65,0,0,0,.61.62M19,10.49,19,10.37m.79.74a.58.58,0,0,0,0-.67m-.21.54a.11.11,0,0,0,.11,0m.07.13L19.68,11m0,.13h.11m-.7-1.42a.56.56,0,0,0-.09.68m.68.74L19.57,11m-.48-1.29h0m-5.71,8.14a1.78,1.78,0,0,0,.61.61m-.61-.61-.06-.13m.78.74a.53.53,0,0,0,0-.66m-.2.54H14m.06.12L14,18.32m-.05.12a.11.11,0,0,0,.11,0M13.37,17a.55.55,0,0,0-.09.68m.67.74-.06-.12M13.41,17h0m1.79-.45,0,.07m0,0a1.9,1.9,0,0,0,.61.62m-.61-.62-.06-.13m.78.75a.55.55,0,0,0,0-.67m-.2.54a.2.2,0,0,0,.11,0m.06.13-.06-.13m0,.13h.11m-.69-1.43a.55.55,0,0,0-.09.68m.67.75-.06-.13m-.48-1.3h0m-.81-9.48.07.13m-.78,0,0,.06m0,0a1.72,1.72,0,0,0,.61.62m-.61-.62-.07-.13m.79.75a.55.55,0,0,0,0-.67m-.2.54a.21.21,0,0,0,.11,0m.06.13L14.39,7m-.05.13h.11m-.7-1.42a.56.56,0,0,0-.09.67m.68.75L14.28,7m-.48-1.3h-.05m1.8-.45,0,.06m0,0a1.81,1.81,0,0,0,.61.62m-.61-.62-.06-.13M16.3,6a.55.55,0,0,0,0-.67m-.2.54h.11M16.3,6l-.06-.13m0,.13h.11m-.69-1.42a.53.53,0,0,0-.09.67m.67.75-.06-.13m-.48-1.29h0M18.12,4l.06.12m-.78,0,0,.06m0,0a1.81,1.81,0,0,0,.61.62m-.61-.62L17.37,4m.78.75a.55.55,0,0,0,0-.67m-.2.54a.2.2,0,0,0,.11,0m.06.13-.06-.13M18,4.77a.2.2,0,0,0,.11,0m-.69-1.42a.53.53,0,0,0-.09.67m.67.75L18,4.64M17.5,3.35s0,0,0,0m1.8-.45a.14.14,0,0,0,0,.06m0,0a1.75,1.75,0,0,0,.62.62M19.28,3l-.06-.12m.79.74a.56.56,0,0,0,0-.67m-.2.54h.11m.07.13-.07-.13m0,.13H20m-.7-1.42a.54.54,0,0,0-.09.68m.68.74-.07-.13m-.48-1.29s0,0,0,0M4.44,12.41l0,.07m0,0a1.78,1.78,0,0,0,.61.61m-.61-.61-.06-.13m.78.74a.53.53,0,0,0,0-.66M5,13h.11m.06.12L5.13,13m0,.12a.11.11,0,0,0,.11,0m-.7-1.42a.56.56,0,0,0-.08.68m.67.74L5,13m-.48-1.3h0M8.14,10l0,.07m0,0a1.84,1.84,0,0,0,.62.62m-.62-.62L8.11,10m.79.75a.56.56,0,0,0,0-.67m-.2.54h.11m.07.13-.07-.13m0,.13H8.9M8.2,9.29a.55.55,0,0,0-.09.68m.68.75-.07-.13m-.48-1.3h0m2.51-.56.06.13m-.77,0a.09.09,0,0,0,0,.07m0,0a1.72,1.72,0,0,0,.61.62M10,8.91,10,8.78m.79.75a.56.56,0,0,0,0-.67m-.2.54h.11m.07.13-.07-.13m0,.13h.11m-.7-1.43a.56.56,0,0,0-.09.68m.68.75-.07-.13m-.48-1.3h0m1.8-.44,0,.06m0,0a1.72,1.72,0,0,0,.61.62m-.61-.62-.07-.13m.79.75a.56.56,0,0,0,0-.67m-.21.54h.11m.07.13-.07-.13m0,.13h.11m-.7-1.43a.57.57,0,0,0-.09.68m.68.75-.07-.13M12,6.91h0m-5,8,.06.12m-.78,0,0,.06m0,0a1.81,1.81,0,0,0,.61.62m-.61-.62-.06-.12m.78.74a.55.55,0,0,0,0-.67m-.2.54a.11.11,0,0,0,.11,0m.06.13-.06-.13m0,.13h.11m-.69-1.42a.54.54,0,0,0-.09.68m.67.74-.06-.13m-.48-1.29h0m3.65-1.64,0,.06m0,0a1.65,1.65,0,0,0,.61.62m-.61-.62-.07-.12m.79.74a.56.56,0,0,0,0-.66m-.21.53a.11.11,0,0,0,.11,0m.07.13-.07-.13m0,.13a.21.21,0,0,0,.11,0m-.7-1.42a.56.56,0,0,0-.09.68m.68.74-.07-.13M10,11.87H9.92M23.67.41l.07.12M21.11,1.71s0,0,0,.06m0,0a1.65,1.65,0,0,0,.61.62m-.61-.62-.07-.12m.79.74a.58.58,0,0,0,0-.67m-.21.54a.11.11,0,0,0,.11,0m.07.13-.07-.13m0,.13h.11M21.16,1a.56.56,0,0,0-.09.68m.68.74-.07-.13M21.21,1a0,0,0,0,0-.05,0M23,.52l0,.06m0,0a1.65,1.65,0,0,0,.61.62M23,.58,22.92.46m.79.74a.56.56,0,0,0,0-.67m-.21.54a.11.11,0,0,0,.11,0m.07.13-.07-.13m0,.13a.2.2,0,0,0,.11,0M23-.22a.57.57,0,0,0-.09.68m.68.74-.07-.13M23.06-.22a0,0,0,0,0,0,0m3.26,9.66,0,.06m0,0a1.75,1.75,0,0,0,.62.62M26.3,9.5l-.06-.12m.78.74a.55.55,0,0,0,0-.67m-.2.54A.11.11,0,0,0,27,10m.06.13L27,10m0,.13a.17.17,0,0,0,.1,0M26.33,8.7a.54.54,0,0,0-.09.68m.68.74L26.85,10M26.37,8.7h0M20.72,13l0,.06m0,0a1.65,1.65,0,0,0,.61.62m-.61-.62-.07-.13m.79.75a.56.56,0,0,0,0-.67m-.2.54h.1m.07.13-.07-.13m0,.13h.11m-.7-1.42a.56.56,0,0,0-.09.67m.68.75-.06-.13m-.48-1.29h-.05M17,15.39a.14.14,0,0,0,0,.06m0,0a1.84,1.84,0,0,0,.62.62M17,15.45,17,15.32m.79.75a.56.56,0,0,0,0-.67m-.2.54h.11m.07.13-.07-.13m0,.13h.11m-.7-1.43a.56.56,0,0,0-.09.68m.68.75-.07-.13m-.48-1.3h0M28.13,8.25a.14.14,0,0,0,0,.06m0,0a1.75,1.75,0,0,0,.62.62m-.62-.62-.06-.12m.79.74a.56.56,0,0,0,0-.67m-.2.54a.11.11,0,0,0,.11,0m.07.13-.07-.13m0,.13h.11m-.7-1.42a.56.56,0,0,0-.09.68m.68.74L28.7,8.8m-.48-1.29h0M31.8,25.29h0m1.84-1.19h0m1.84-1.2h0M32,20.82l.06.13M24.51,8.14a5.32,5.32,0,0,0,2.66,0m.06.12-.06-.12m1-2.35a5.31,5.31,0,0,0,2.66,0m.07.13-.07-.13m13.36,8.16a5.31,5.31,0,0,0,2.66,0M47,14l-.07-.13M17.49,1.6a5.32,5.32,0,0,0,2.66,0m.06.12-.06-.12M15.64,2.79a5.2,5.2,0,0,0,2.66,0m.06.13-.06-.13m1-2.34A5.31,5.31,0,0,0,22,.38m.07.12L22,.38M.82,12.3a5.31,5.31,0,0,0,2.66,0m.07.13-.07-.13m37.05,4a5.31,5.31,0,0,0,2.66,0m.06.13-.06-.13m-11.92,6a5.32,5.32,0,0,0,2.66,0m.06.13-.06-.13m1-2.34a5.31,5.31,0,0,0,2.66,0m.07.13-.07-.13m3-7.3a5.32,5.32,0,0,0,2.66,0m.06.12-.06-.12m1-2.35a5.31,5.31,0,0,0,2.66,0m.07.13L47,10.09M2.6,15h0m25,8.31,0,.07M24.06,22,24,21.86M2.68,11.11a5.32,5.32,0,0,0,2.66,0m.06.13-.06-.13M13.79,4a5.31,5.31,0,0,0,2.66,0m.06.13-.06-.13m8.11,4.31h0m3.73,15.61c.36-.43-.15-1.08-.58-1.3M41.54,7.34l.07.13m-.78,0,0,.06m0,0a1.65,1.65,0,0,0,.61.62m.11,0a.56.56,0,0,0,0-.67m-.2.54h.11m.06.13L41.52,8m-.05.13h.11m-.7-1.42a.56.56,0,0,0-.09.67m.68.75L41.41,8m-.48-1.29h0M24.06,22a1.84,1.84,0,0,0,.62.62m.11,0a.56.56,0,0,0,0-.67m-.2.54h.11m.07.13-.07-.13m0,.13a.21.21,0,0,0,.11,0m-.7-1.42a.53.53,0,0,0-.09.67m.68.75-.07-.13m-.48-1.3h0m3.65-1.64,0,.06m0,0a1.65,1.65,0,0,0,.61.62m-.61-.62-.07-.13m.79.75a.56.56,0,0,0,0-.67m-.21.54h.11m.07.13-.07-.13m0,.13h.11m-.7-1.42a.56.56,0,0,0-.09.67m.68.75-.07-.13m-.47-1.29h-.05m1.8-.45,0,.06m0,0a1.65,1.65,0,0,0,.61.62m.11,0a.55.55,0,0,0,0-.67m-.2.54a.21.21,0,0,0,.11,0m.06.13-.06-.13m-.05.13a.2.2,0,0,0,.11,0m-.7-1.42a.56.56,0,0,0-.09.67m.68.75-.06-.13m-.48-1.29a0,0,0,0,0-.05,0m13.63-7.7,0,.06M28.35,23.26l0,.07M42.55,10l0,.07m0,0a1.9,1.9,0,0,0,.61.62m-.61-.62L42.52,10m.78.75a.55.55,0,0,0,0-.67m-.2.54h.11m.06.13-.06-.13m-.05.13h.11m-.69-1.43a.55.55,0,0,0-.09.68m.67.75-.06-.13m-.48-1.3h0m-15,14.09a1.7,1.7,0,0,0,.61.61m-.61-.61-.07-.13m.79.74a.55.55,0,0,0,0-.66m-.2.54h.1m.07.12-.07-.12m0,.12a.11.11,0,0,0,.11,0m-.7-1.42a.57.57,0,0,0-.09.68m.68.74-.06-.12m-.48-1.3h-.05m3.65-1.64,0,.07m0,0a1.9,1.9,0,0,0,.61.62M31.34,21l-.06-.13m.78.75a.55.55,0,0,0,0-.67m-.2.54a.2.2,0,0,0,.11,0m.06.13L32,21.49m-.05.13h.11m-.69-1.43a.55.55,0,0,0-.09.68m.67.75-.06-.13m-.48-1.3h0M33.29,16l0,.06m0,0a1.81,1.81,0,0,0,.61.62M33.32,16l-.06-.12m.78.74a.55.55,0,0,0,0-.67m-.2.54a.11.11,0,0,0,.11,0m.06.13L34,16.53m0,.13a.2.2,0,0,0,.11,0m-.69-1.42a.54.54,0,0,0-.09.68m.67.74-.06-.13m-.48-1.29h0m-30.62-4h0m2.6-.19,0,0m0,0,.07.13M5.31,11a4.92,4.92,0,0,0-2.64.06m2.67,0s0,0,0,0m.06.16a0,0,0,0,0,0,0m-2.67.06a5.32,5.32,0,0,0,2.66,0M13.84,4.1a0,0,0,0,1,0,0m2.6-.19s0,0,0,0m0,0,.07.12m-.1-.15A4.92,4.92,0,0,0,13.78,4m2.67,0a0,0,0,0,0,0,0m.06.15s0,0,0,0m-2.67.07a5.31,5.31,0,0,0,2.66,0M23,1.92h0m2.6-.19s0,0,0,0m0,0,.07.12m-.1-.15a4.92,4.92,0,0,0-2.64.07m2.67,0a0,0,0,0,0,0,0m.06.15s0,0,0,0M23,1.93a5.31,5.31,0,0,0,2.66,0M8,15.2H8m2.6-.19s0,0,0,0m0,0,.06.12M10.6,15A4.92,4.92,0,0,0,8,15.06m2.67,0s0,0,0,0m.06.15s0,0,0,0M8,15.21a5.31,5.31,0,0,0,2.66,0M24.56,8.26h0m2.6-.19,0,0m0,0,.07.13m-.1-.16a4.92,4.92,0,0,0-2.64.07m2.67,0a0,0,0,0,0,0,0m.06.15s0,0,0,0m-2.67.06a5.31,5.31,0,0,0,2.66,0m1-2.35h0m2.6-.19,0,0m0,0,.06.13m-.1-.16a5,5,0,0,0-2.64.07m2.67,0a0,0,0,0,0,0,0m.06.16a0,0,0,0,0,0,0m-2.66.06a5.32,5.32,0,0,0,2.66,0m-7.6,8.36,0,0m0,0,.07.13m-.1-.15a4.92,4.92,0,0,0-2.64.06m2.67,0s0,0,0,0m.06.16a0,0,0,0,0,0,0m-2.67.06a5.31,5.31,0,0,0,2.66,0M19.64,16.6l0,0m0,0a5,5,0,0,0-2.65.06m2.67,0s0,0,0,0m.06.16a0,0,0,0,0,0,0M17,16.79a5.32,5.32,0,0,0,2.66,0m14-10.68L33.63,6m-16.53,7a5.31,5.31,0,0,0,2.66,0m.07.13-.07-.13m2.9-3.53a5.32,5.32,0,0,0,2.66,0m.06.12-.06-.12m-11.92,6a5.31,5.31,0,0,0,2.66,0m.06.13-.06-.13m-.81-1.15a5.31,5.31,0,0,0,2.66,0m.06.13-.06-.13M35,19.94s0,0,0,0M11.86,9h0m40.31,3.16h0M50.32,13.4h0m-3.72,2.37h0M44.76,17h0m-.49-3h0m2.6-.19s0,0,0,0m0,0L47,14m-.1-.15a4.92,4.92,0,0,0-2.64.07m2.67,0s0,0,0,0M47,14s0,0,0,0M44.3,14A5.31,5.31,0,0,0,47,14M17.54,1.72h0m2.59-.19s0,0,0,0m0,0,.07.13m-.1-.16a4.92,4.92,0,0,0-2.64.07m2.67,0a0,0,0,0,0,0,0m.06.15s0,0,0,0m-2.66.06a5.27,5.27,0,0,0,2.65,0m-1.91,1,0,0m0,0,.07.13m-.1-.16a4.92,4.92,0,0,0-2.64.07m2.67,0s0,0,0,0m.06.15s0,0,0,0m-2.67.06a5.31,5.31,0,0,0,2.66,0m1-2.35h0M22,.35l0,0m0,0,.06.13M22,.32a4.92,4.92,0,0,0-2.64.07M22,.38a0,0,0,0,0,0,0m.06.15a0,0,0,0,0,0,0M19.41.54a5.31,5.31,0,0,0,2.66,0M.88,12.42h0m2.6-.19,0,0m0,0,.06.13m-.09-.15a5,5,0,0,0-2.65.06m2.67,0s0,0,0,0m.06.16a0,0,0,0,0,0,0m-2.66.06a5.32,5.32,0,0,0,2.66,0m2.75.22h0m2.59-.19,0,0m0,0,.07.13m-.1-.16a5,5,0,0,0-2.64.07m2.67,0a0,0,0,0,0,0,0m.06.15s0,0,0,0m-2.66.06a5.27,5.27,0,0,0,2.65,0M2.6,15h0m2.6-.19,0,0m0,0,.07.13m-.1-.16a4.92,4.92,0,0,0-2.64.07m2.67,0s0,0,0,0m.06.15s0,0,0,0M2.61,15a5.31,5.31,0,0,0,2.66,0m2.88-3.54h0m2.6-.19,0,0m0,0,.06.13m-.1-.16a5,5,0,0,0-2.64.07m2.67,0a0,0,0,0,0,0,0m.06.15a0,0,0,0,0,0,0m-2.66.06a5.2,5.2,0,0,0,2.66,0m2.88-3.54h0m2.6-.19,0,0m0,0,.07.13m-.1-.15a4.92,4.92,0,0,0-2.64.06m2.67,0s0,0,0,0m.06.16a0,0,0,0,0,0,0m-2.67.06a5.31,5.31,0,0,0,2.66,0M15.3,14.19h0M33.69,6.08h0m2.6-.19s0,0,0,0m0,0,.07.13m-.1-.16a4.92,4.92,0,0,0-2.64.07m2.67,0a0,0,0,0,0,0,0m.06.15s0,0,0,0m-2.67.06a5.31,5.31,0,0,0,2.66,0M26.28,10.83l0,0m2.6-.19s0,0,0,0m0,0,.06.12m-.1-.15a4.92,4.92,0,0,0-2.64.07m2.67,0s0,0,0,0m.06.15s0,0,0,0m-2.66.07a5.31,5.31,0,0,0,2.66,0M28,13.41h0m2.6-.19,0,0m0,0,.06.13m-.09-.15a5,5,0,0,0-2.65.06m2.67,0s0,0,0,0m.06.16a0,0,0,0,0,0,0M28,13.42a5.32,5.32,0,0,0,2.66,0M25.06,16.8s0,0,0,0m0,0,.07.13m-.1-.16a5,5,0,0,0-2.64.07m2.67,0a0,0,0,0,0,0,0m.06.15s0,0,0,0M22.46,17a5.2,5.2,0,0,0,2.66,0m-8-3.93h0m2.6-.19s0,0,0,0m0,0,.06.12m-.1-.15a4.92,4.92,0,0,0-2.64.07m2.67,0s0,0,0,0m.06.15s0,0,0,0M17.17,13a5.31,5.31,0,0,0,2.66,0m2.88-3.54h0m2.6-.19,0,0m0,0,.07.13m-.1-.16a4.92,4.92,0,0,0-2.64.07m2.67,0s0,0,0,0m.06.15s0,0,0,0m-2.67.06a5.31,5.31,0,0,0,2.66,0m-11.93,6h0m2.6-.18s0,0,0,0m0,0,.07.12m-.1-.15a4.92,4.92,0,0,0-2.64.06m2.67,0s0,0,0,0m.06.15s0,0,0,0m-2.67.06a5.31,5.31,0,0,0,2.66,0M15.3,14.2h0m2.6-.18s0,0,0,0m0,0,.06.12m-.1-.15a4.92,4.92,0,0,0-2.64.07m2.67,0s0,0,0,0m0,.15s0,0,0,0m-2.66.06a5.27,5.27,0,0,0,2.65,0m-3.5-5.31,0,0m0,0,.07.13m-.1-.15a4.92,4.92,0,0,0-2.64.06m2.66,0s0,0,0,0m.06.16a0,0,0,0,0,0,0m-2.67.06a5.32,5.32,0,0,0,2.66,0m2.88-3.55h0M20,5.3l0,0m0,0,.06.13M20,5.28a4.92,4.92,0,0,0-2.64.06m2.67,0s0,0,0,0m0,.16s0,0,0,0m-2.66.06a5.27,5.27,0,0,0,2.65,0M9.88,14h0m2.6-.19,0,0m0,0,.06.12m-.09-.15a5,5,0,0,0-2.65.07m2.67,0s0,0,0,0m.06.15s0,0,0,0M9.89,14a5.31,5.31,0,0,0,2.66,0m5.62-7.49s0,0,0,0m0,0,.07.13m-.1-.15a4.92,4.92,0,0,0-2.64.06m2.67,0s0,0,0,0m.06.16s0,0,0,0m-2.67.06a5.31,5.31,0,0,0,2.66,0m22.35,9.73a0,0,0,0,0,0,0m2.6-.18s0,0,0,0m0,0,.07.12m-.1-.15a4.92,4.92,0,0,0-2.64.07m2.67,0s0,0,0,0m.06.15s0,0,0,0m-2.67.06a5.2,5.2,0,0,0,2.66,0m-11.93,6a0,0,0,0,0,0,0m2.6-.19s0,0,0,0m0,0,.07.13m-.1-.15a4.92,4.92,0,0,0-2.64.06m2.67,0s0,0,0,0m.06.16s0,0,0,0m-2.67.06a5.31,5.31,0,0,0,2.66,0M35,20s0,0,0,0m2.6-.19,0,0m0,0,.06.13m-.09-.15a5,5,0,0,0-2.65.06m2.67,0s0,0,0,0m.06.16a0,0,0,0,0,0,0M35,20a5.32,5.32,0,0,0,2.66,0m5.62-7.49s0,0,0,0m0,0,.07.13m-.1-.16a5,5,0,0,0-2.64.07m2.67,0a0,0,0,0,0,0,0m.06.15s0,0,0,0m-2.67.06a5.31,5.31,0,0,0,2.66,0m1-2.35h0m2.6-.19,0,0m0,0,.06.13M47,10a4.92,4.92,0,0,0-2.64.06m2.67,0a0,0,0,0,0,0,0m.06.16s0,0,0,0m-2.66.06a5.32,5.32,0,0,0,2.66,0M5.26,9.2c.35-.43-.16-1.07-.59-1.29M8.36,3.78a5.32,5.32,0,0,0,2.66,0m.06.12L11,3.75m1.1-2.23a0,0,0,0,0,0,0M4.4,13.69a5.32,5.32,0,0,0,2.66,0m.06.12-.06-.12m3-3.41L10,10.12m0,0a5.31,5.31,0,0,0,2.66,0m.07.13-.07-.13m35.33,1.42a5.27,5.27,0,0,0,2.65,0m.07.12-.07-.12M21.69,5.36l.07.13M25.39,3l.07.13M9.12,2.39l.06.13M10.84,5l.06.12M36,10.91l.06.13M6.51,5a5.32,5.32,0,0,0,2.66,0m.06.12-.06-.12M4.66,6.16a5.31,5.31,0,0,0,2.66,0m.06.13-.06-.13M26.49,3.19a5.31,5.31,0,0,0,2.66,0m.06.13-.06-.13M.1,7.24,0,7.12M46.27,9a0,0,0,0,0,0,0m0-.12v0M37.11,20.6s0,0,0,0m0,0L37,20.47m-7.14-8.26h0M29.46,1.9l.6.23m3,1.16.6.23m3,1.15.6.24m3.57,1.38-.6-.23m3.57,1.39.61.23m3,1.16.6.23M.28,6.1l.37-.24m1.48-1,.37-.24M5.83,2.53l.38-.24M11.39-1l.37-.24m1.48-.95.37-.24m1.48-.95.26-.16M-7.13,10.85l.37-.24m1.48-.94.38-.25m1.47-.94L-3,8.24m34.63,6.55h0m-2,4.94h0M39,10l-.07-.13M19,11.83l-.07-.13m8.81,9.24-.07-.12m-3.51-1.26-.06-.13m.07.11v0m-8.42.67.06.13m-.61-.63a0,0,0,0,0,0,0m0,0-.06-.13M32,3.5l-.07-.13m14.24,9.45-.07-.13m.07.12s0,0,0,0m-.06-.12a5.2,5.2,0,0,0,2.66,0m.07.13-.07-.13m-6.3,2.52h0M-.27,12.1l.06.13M3.43,9.72l.07.13m-5.62,3.44.06.13m6.53,2.14h0m0,0-.06-.12m25.1,8.08-.06-.13M25.9,22.13,25.83,22m15-13.16h0M-3.6,9.62l-.07-.13m42.4,8.07h0M2,6.05l-.07-.12m-3.64,2.5-.06-.13M30.26,25.86l.06.13m12.9-8.46.06.13M42.67,17h-.05m0,0-.06-.12m-1.83-5.62-.07-.13M15.82-.87h0M4.58,10h0M14,.33,13.9.2m0,0a5.27,5.27,0,0,0,2.65,0m.07.13L16.57.18M8.29,7.65h0M26.15,14.6l-.06-.13m.07.12h0M2.86,7.45s0,0,0,0m9.2-6.06a5.31,5.31,0,0,0,2.66,0m.07.12-.07-.12M10.26,2.71l-.06-.13M10,10.24l-.07-.13M22.32,20.73h0M5.32,8.6l0,.06m18.7,14.65a0,0,0,0,0,0,0M8.6,17.45l.06.13m6.77-7.15h0M29.73,16h0m2.6-.19,0,0m0,0,.07.13m-.1-.16a4.92,4.92,0,0,0-2.64.07m2.67,0s0,0,0,0m.06.15s0,0,0,0M29.74,16a5.31,5.31,0,0,0,2.66,0m-.82-1.16h0m2.6-.19s0,0,0,0m0,0,.07.13m-.1-.16a5,5,0,0,0-2.64.07m2.67,0a0,0,0,0,0,0,0m.06.15s0,0,0,0m-2.67.06a5.31,5.31,0,0,0,2.66,0m-.82-1.16h0M36,13.43s0,0,0,0m0,0,.07.13M36,13.4a5,5,0,0,0-2.64.07m2.67,0a0,0,0,0,0,0,0m.06.16s0,0,0,0m-2.66.06a5.27,5.27,0,0,0,2.65,0M19.51,20.37l0,0m0,0,.06.13m-.09-.16a5,5,0,0,0-2.65.07m2.67,0s0,0,0,0m.06.15s0,0,0,0m-2.66.06a5.31,5.31,0,0,0,2.66,0M24,23.32h0m2.6-.19a.05.05,0,0,0,0,0m0,0,.06.13m-.1-.15a4.92,4.92,0,0,0-2.64.06m2.67,0s0,0,0,0m.06.16s0,0,0,0m-2.66.06a5.32,5.32,0,0,0,2.66,0m2.88-3.55a0,0,0,0,0,0,0m2.6-.18s0,0,0,0m0,0,.07.12m-.1-.15a4.92,4.92,0,0,0-2.64.07m2.67,0a0,0,0,0,0,0,0m.06.15s0,0,0,0m-2.67.06a5.31,5.31,0,0,0,2.66,0m4.87-8.5h0m2.6-.19,0,0m0,0,.06.13M39.72,11a5,5,0,0,0-2.65.06m2.67,0s0,0,0,0m.06.16a0,0,0,0,0,0,0m-2.66.06a5.32,5.32,0,0,0,2.66,0M39,10s0,0,0,0m2.6-.19,0,0m0,0,.07.13m-.1-.15a4.92,4.92,0,0,0-2.64.06m2.66,0s0,0,0,0m.06.16a0,0,0,0,0,0,0M39,10.05a5.32,5.32,0,0,0,2.66,0M29,6.89l0,0m0,0,.06.13M29,6.86a5,5,0,0,0-2.64.07m2.67,0a0,0,0,0,0,0,0m0,.15s0,0,0,0m-2.66.06a5.27,5.27,0,0,0,2.65,0M19,11.83h0m2.6-.19,0,0m0,0,.06.12m-.09-.15a5,5,0,0,0-2.65.07m2.67,0s0,0,0,0m.06.15s0,0,0,0M19,11.84a5.31,5.31,0,0,0,2.66,0m-6.25-1.36h0m2.6-.19s0,0,0,0m0,0,.07.13m-.1-.16a4.92,4.92,0,0,0-2.64.07m2.67,0a0,0,0,0,0,0,0m.06.15s0,0,0,0m-2.67.06a5.31,5.31,0,0,0,2.66,0m1.8-1.34,0,0m0,0L20,9.2M19.86,9a5,5,0,0,0-2.64.07m2.67,0a0,0,0,0,0,0,0m.06.15a0,0,0,0,0,0,0m-2.66.06a5.2,5.2,0,0,0,2.66,0M37.35,21.73h0m1.84-1.2h0m1.84-1.2h0m1.84-1.2h0M27.75,20.94h0m2.6-.19,0,0m0,0,.07.13m-.1-.15a4.92,4.92,0,0,0-2.64.06m2.66,0s0,0,0,0m.06.16s0,0,0,0M27.76,21a5.32,5.32,0,0,0,2.66,0m3.64-2.53s0,0,0,0m0,0,.07.12m-.1-.15a4.92,4.92,0,0,0-2.64.07m2.67,0s0,0,0,0m.06.15s0,0,0,0m-2.67.07a5.31,5.31,0,0,0,2.66,0m-9.19,2s0,0,0,0m0,0,.07.12m-.1-.15a4.92,4.92,0,0,0-2.64.07m2.67,0s0,0,0,0m.06.15s0,0,0,0m-2.67.07a5.31,5.31,0,0,0,2.66,0m-.82-1.16h0m2.6-.19s0,0,0,0m0,0,.06.12m-.1-.15a4.92,4.92,0,0,0-2.64.07m2.67,0s0,0,0,0m.06.15s0,0,0,0m-2.66.07a5.31,5.31,0,0,0,2.66,0m23.77-6.75.07.12m-.62-.62h0m0,0L50,12.15m-52.63.64h-.05m0,0-.06-.13m34.7-9.28v0M-3.85,10.71l.07.13m-.78,0,0,.06m0,0a1.73,1.73,0,0,0,.61.62m-.61-.62-.07-.13m.79.75a.55.55,0,0,0,0-.67m-.2.54h.11m.06.13-.06-.13m0,.13h.11m-.7-1.42a.56.56,0,0,0-.09.67m.68.75L-4,11.38m-.48-1.29h0M1,7.26a.09.09,0,0,0,0,.06m0,0a1.65,1.65,0,0,0,.61.62M1,7.32,1,7.2m.79.74a.56.56,0,0,0,0-.67m-.2.54a.11.11,0,0,0,.11,0m.07.13-.07-.13m0,.13h.11m-.7-1.42A.56.56,0,0,0,1,7.2m.68.74-.07-.13M1.09,6.52h0M49.94,13l-.07-.12m-50-4.49.06.12m50.85,4.67a.7.7,0,0,0-.08-.23M50,12.15a.57.57,0,0,0-.09.68m.9.3L50.71,13m-.7-.85h0m.11.13L50,12.15m.32,1.26-.07-.12M-.86,8.45l0,.06m0,0a1.75,1.75,0,0,0,.62.62m-.62-.62-.06-.13m.78.75a.55.55,0,0,0,0-.67M-.28,9h.11m.06.13L-.17,9m0,.13h.1M-.8,7.71a.53.53,0,0,0-.09.67m.68.75L-.28,9M-.76,7.71h0M39.12,6.27s0,0,0,0m0-.12v0m.06.14h0m1.94.12L41,6.28m-1.87,0a6.33,6.33,0,0,0,1.94.12m-2-.27s0,0,0,0m1.13-.09-.07-.13m.07.13a3.76,3.76,0,0,0-.9.15M15.87,20.47l-.06-.11m.06.11-.07-.13m-.67-.74s0,0,0,0m.11.13-.07-.13m-.14.53L14.92,20m.17-.4a.58.58,0,0,0-.17.4m.23-.27a.51.51,0,0,0-.16.4M22.9,23l.06.13m-.61-.63a0,0,0,0,0-.05,0m0,0-.06-.13M32,3.49h0m0,0h0m1.94.12-.06-.13M32,3.51a6,6,0,0,0,1.94.12m-2-.27h0M33,3.29,33,3.16m.06.13a3.32,3.32,0,0,0-.9.14M23,23.25a.61.61,0,0,0-.05-.12m.05.12L23,23.12m-.67-.75h0m.11.13-.07-.13m-.14.54-.07-.13m.17-.41a.56.56,0,0,0-.17.41m.23-.28a.53.53,0,0,0-.16.41m24-10.09h0m2.6-.19,0,0m0,0,.06.13m-.09-.16a5,5,0,0,0-2.65.07m2.67,0s0,0,0,0m.06.15s0,0,0,0m-2.66.06a5.31,5.31,0,0,0,2.66,0M42.43,15.2h0m2.6-.19s0,0,0,0m0,0,.06.12M45,15a4.92,4.92,0,0,0-2.64.07M45,15s0,0,0,0m.05.15s0,0,0,0m-2.66.07a5.27,5.27,0,0,0,2.65,0M15.68,1.51l0,.06m0,0a1.73,1.73,0,0,0,.61.62m-.61-.62-.07-.12m.79.74a.53.53,0,0,0,0-.66m-.2.54a.21.21,0,0,0,.11,0m.06.12-.06-.12m-.05.12a.2.2,0,0,0,.11,0M15.73.77a.57.57,0,0,0-.09.68m.68.74-.06-.12M15.78.77a0,0,0,0,0,0,0M19.38-.87l0,.07m0,0A1.81,1.81,0,0,0,20-.19M19.41-.8l-.06-.13m.78.74a.53.53,0,0,0,0-.66M20-.31a.2.2,0,0,0,.11,0m.06.12-.06-.12m0,.12a.09.09,0,0,0,.1,0m-.69-1.42a.55.55,0,0,0-.09.68M20-.19,20-.31m-.48-1.3s0,0,0,0M9,6.16l.06.12m-.78,0,0,.06m0,0A1.81,1.81,0,0,0,8.91,7M8.3,6.33,8.24,6.2M9,7a.55.55,0,0,0,0-.67m-.2.54H9M9,7,9,6.82M8.91,7H9M8.33,5.53a.53.53,0,0,0-.09.67M8.91,7l-.06-.13M8.37,5.53s0,0,0,0M12,3.89,12,4m0,0a1.65,1.65,0,0,0,.61.62M12,4l-.07-.12m.79.74a.58.58,0,0,0,0-.67m-.21.54a.11.11,0,0,0,.11,0m.07.13-.07-.13m0,.13h.11M12,3.15a.56.56,0,0,0-.09.68m.68.74-.07-.13m-.47-1.29H12m.08-3s0,.05,0,.07m0,0a1.62,1.62,0,0,0,.61.61M12.14.19,12.07.06m.79.74a.56.56,0,0,0,0-.66m-.21.54h.11m.07.12L12.79.68m0,.12a.11.11,0,0,0,.11,0m-.7-1.42a.56.56,0,0,0-.09.68m.68.74L12.68.68M12.2-.62h0M-1,12.21a.14.14,0,0,0,0,.07m0,0a1.84,1.84,0,0,0,.62.62M-1,12.28-1,12.15m.79.75a.56.56,0,0,0,0-.67m-.2.54H-.3m.07.13-.07-.13m0,.13h.11m-.7-1.43a.55.55,0,0,0-.09.68m.68.75-.07-.13m-.48-1.3h0m5.5-2.82,0,.06m0,0a1.65,1.65,0,0,0,.61.62M4.6,8.71l-.07-.13m.79.75a.55.55,0,0,0,0-.67m-.2.54a.21.21,0,0,0,.11,0m.06.13L5.26,9.2m0,.13h.11m-.7-1.42a.56.56,0,0,0-.09.67m.68.75L5.15,9.2M4.67,7.91h0M2.72,9.84l0,.06m0,0a1.72,1.72,0,0,0,.61.62M2.75,9.9l-.07-.13m.79.75a.56.56,0,0,0,0-.67m-.21.54H3.4m.07.13-.07-.13m0,.13h.11m-.7-1.43a.57.57,0,0,0-.09.68m.68.75-.07-.13m-.47-1.3h0M-2,13.54a.61.61,0,0,0-.05-.12m.05.12-.06-.13m-.67-.75h0m.11.13-.07-.13m-.14.53-.07-.12m.17-.41a.58.58,0,0,0-.17.41m.23-.28a.53.53,0,0,0-.16.4M12.88-1.17a7,7,0,0,0-1.12-.11M13-1.21l0-.05m0,0a.05.05,0,0,0,0,0m0,0,.06.13m-1.31-.17-.06-.13m1.3.2s0,0,0,0m.06.16s0,0,0,0m-1.86.19L11.14-1m.07.13a5.06,5.06,0,0,0,1.86-.16m-5,18H8m0,0-.06-.13M14.73-2.36a8.17,8.17,0,0,0-1.12-.11m1.24.07,0-.05m0,0,0,0m0,0,.06.12m-1.31-.17-.06-.12m1.3.19v0m.06.15s0,0,0,0m-1.86.19L13-2.24m.07.13a5.06,5.06,0,0,0,1.86-.16m-6.2,20-.06-.12m.06.12-.07-.13M8,16.82h0m.11.13L8,16.82m-.14.54-.06-.13m.16-.41a.55.55,0,0,0-.16.41M8,17a.57.57,0,0,0-.16.41M28.4,2.1h0M5.14,16.31a.61.61,0,0,0,0-.12m0,.12-.06-.13m-.67-.74h0m.1.12-.06-.12M4.27,16l-.07-.13m.17-.4a.52.52,0,0,0-.17.4m.23-.28a.55.55,0,0,0-.16.41M28.34,2V2m.06.13h0m1.94.12-.07-.12m-1.87,0a6,6,0,0,0,1.94.12m-2-.26h0m1.13-.09-.07-.13m.07.13a3,3,0,0,0-.9.15m7,2.83h0m-16.1,17-.05-.12m.05.12-.07-.13M18.71,21h-.05m.11.12L18.71,21m-.15.53-.06-.13m.16-.4a.51.51,0,0,0-.16.4m.23-.28a.6.6,0,0,0-.17.41M35.49,4.77v0m2,.27-.07-.13m-1.87,0A6.31,6.31,0,0,0,37.5,5m-2-.27s0,0,0,0m1.12-.09-.06-.12m.06.12a3.94,3.94,0,0,0-.9.15M-2,9.52l.06.13M15.77-1a5.32,5.32,0,0,0,2.66,0m.06.13L18.43-1M2.81,7.35a5.27,5.27,0,0,0,2.65,0m.07.13-.07-.13m4.75-4.72a5.31,5.31,0,0,0,2.66,0m.07.12-.07-.12M27.62,24.71h0m2.6-.19,0,0m0,0,.07.13m-.1-.16a5,5,0,0,0-2.64.07m2.67,0s0,0,0,0m.06.15s0,0,0,0m-2.67.06a5.31,5.31,0,0,0,2.66,0m-.82-1.17h0m0,0h0m2.6-.19s0,0,0,0m0,0,.07.13m-.1-.16a5,5,0,0,0-2.64.07m2.67,0a0,0,0,0,0,0,0m.06.16a0,0,0,0,0,0,0m-2.67.06a5.31,5.31,0,0,0,2.66,0m3.15-11.09h0m0,0h0m2.6-.19a.05.05,0,0,0,0,0m0,0,.06.13m-.1-.15a4.92,4.92,0,0,0-2.64.06m2.67,0s0,0,0,0m.06.16s0,0,0,0m-2.66.06a5.32,5.32,0,0,0,2.66,0m4.6-1h0m2.6-.19,0,0m0,0,.07.13m-.1-.16a5,5,0,0,0-2.64.07m2.67,0a0,0,0,0,0,0,0m.06.15s0,0,0,0m-2.67.06a5.2,5.2,0,0,0,2.66,0M27.88,17.17s0,0,0,0m.76,1,0,0m0,0,.06.13m-.09-.16a5,5,0,0,0-2.65.07m2.67,0s0,0,0,0m.06.15s0,0,0,0M26,18.38a5.31,5.31,0,0,0,2.66,0m-.82-1.16a0,0,0,0,0,0,0m2.6-.19,0,0m0,0,.06.13M30.46,17a4.92,4.92,0,0,0-2.64.07m2.66,0s0,0,0,0m.06.15s0,0,0,0m-2.66.06a5.31,5.31,0,0,0,2.66,0m-4.65,5s0,0,0,0m2.6-.19,0,0m0,0,.06.13m-.09-.15a5,5,0,0,0-2.65.06m2.67,0s0,0,0,0m.06.16a0,0,0,0,0,0,0m-2.66.06a5.32,5.32,0,0,0,2.66,0M40.84,8.85h0m2.6-.19,0,0m0,0,.07.13m-.1-.15a4.92,4.92,0,0,0-2.64.06m2.67,0s0,0,0,0m.06.16a0,0,0,0,0,0,0m-2.67.06a5.31,5.31,0,0,0,2.66,0m-.87-1.28v0M25.86,23.76a0,0,0,0,0-.05,0M7.33,2.4a7.08,7.08,0,0,0-1.12-.11m1.24.07,0,0m0,0,0,0m0,0,.07.13M6.21,2.29l-.07-.13m1.31.2s0,0,0,0m.06.16a0,0,0,0,0,0,0m-1.87.19-.06-.13m.06.13a5,5,0,0,0,1.86-.16m7.4-5.79-.06-.13m1.2.12L16-3.43m-1.07.13a7.22,7.22,0,0,0,1.14,0M-3.78,9.53A8.49,8.49,0,0,0-4.9,9.42m1.23.07,0-.05m0,0s0,0,0,0m0,0,.07.12M-4.9,9.42-5,9.3m1.3.19s0,0,0,0m.06.15s0,0,0,0m-1.87.19-.06-.13m.06.13A4.82,4.82,0,0,0-3.6,9.62M3.62,4.78A7,7,0,0,0,2.5,4.67m1.24.07,0-.06m0,0,0,0m0,0,.06.13M2.5,4.67l-.06-.13m1.3.2a0,0,0,0,0,0,0m.06.15s0,0,0,0M2,5,1.88,4.9M2,5a4.66,4.66,0,0,0,1.86-.16M39.49,18.58l0,0m0,0,.06.13m-.09-.15a4.92,4.92,0,0,0-2.64.06m2.66,0s0,0,0,0m.06.16a0,0,0,0,0,0,0m-2.66.06a5.32,5.32,0,0,0,2.66,0m-.82-1.17h0m2.6-.18,0,0m0,0,.07.12m-.1-.15a4.92,4.92,0,0,0-2.64.07m2.67,0s0,0,0,0m.06.15s0,0,0,0m-2.67.06a5.31,5.31,0,0,0,2.66,0m7.07-3h0M-5.64,10.72a8.18,8.18,0,0,0-1.11-.11m1.23.07,0,0m0,0,0,0m0,0,.06.12m-1.3-.17-.07-.12m1.3.19s0,0,0,0m.06.15s0,0,0,0M-7.31,11l-.07-.13m.07.13a4.83,4.83,0,0,0,1.86-.16M1.77,6a8.32,8.32,0,0,0-1.12-.1m1.24.07,0-.06m0,0,0,0m0,0L2,6M.65,5.86.59,5.73m1.3.2a0,0,0,0,0,0,0M2,6.05A0,0,0,0,0,2,6M.1,6.21,0,6.09m.07.12A4.66,4.66,0,0,0,2,6.05M-5.7,11.9l.07.13m3.7-3.69A8.47,8.47,0,0,0-3,8.24m1.24.06,0-.05m0,0s0,0,0,0m0,0,.07.13M-3,8.24l-.07-.13m1.31.19s0,0,0,0m.06.15v0m-1.87.18-.06-.13m.06.13a4.82,4.82,0,0,0,1.86-.16m-3.83,3.72,0-.12m0,.12L-5.65,12m-.66-.75h-.05m.11.12-.06-.13m-.15.54-.06-.13m.16-.4a.51.51,0,0,0-.16.4m.23-.28a.58.58,0,0,0-.17.41M4.7,4.88l0,.06m0,0a1.65,1.65,0,0,0,.61.62m-.61-.62-.07-.12m.79.74a.55.55,0,0,0,0-.66m-.2.53a.11.11,0,0,0,.11,0m.06.13-.06-.13m0,.13a.2.2,0,0,0,.11,0m-.7-1.42a.57.57,0,0,0-.09.68m.68.74-.06-.13M4.8,4.14h0m1.8-.45,0,.07m0,0a1.87,1.87,0,0,0,.61.61m-.61-.61-.06-.13m.78.74a.53.53,0,0,0,0-.66m-.2.54h.11m.06.12-.06-.12m0,.12H7.3M6.61,3a.54.54,0,0,0-.09.68m.67.74-.06-.12M6.65,3s0,0,0,0M3.56,6l.07.12M-2.71,9.64l0,.06m0,0a1.81,1.81,0,0,0,.61.62m-.61-.62-.06-.13m.78.75a.55.55,0,0,0,0-.67m-.2.54H-2m.06.13L-2,10.19m0,.13H-2M-2.65,8.9a.53.53,0,0,0-.09.67m.67.75-.06-.13M-2.61,8.9h0m5.5-2.83,0,.06m0,0a1.65,1.65,0,0,0,.61.62m-.61-.62L2.81,6m.79.74a.56.56,0,0,0,0-.67m-.21.54a.11.11,0,0,0,.11,0m.07.13-.07-.13m0,.13H3.6M2.9,5.33A.57.57,0,0,0,2.81,6m.68.74-.07-.13M3,5.33H2.9M26.47,24.39l.07.13m7.42-1,.06.13M33.41,23a0,0,0,0,0,0,0m0,0-.06-.13M11.62,18.34s0,0,0,0m0,0-.07-.13M42.69,7.65h0M12.29,19.08l0-.11m0,.11L12.23,19m-.67-.75a0,0,0,0,0-.05,0m.11.13-.06-.13m-.15.53-.06-.12m.16-.41a.53.53,0,0,0-.16.41m.23-.28a.58.58,0,0,0-.17.4M44.64,7.79l-.06-.12m-1.88,0a6,6,0,0,0,1.94.12m-2-.26s0,0,0,0m1.12-.09-.06-.13m.06.13a3,3,0,0,0-.9.15M25.92,23.89s0,0,0,0m0,0-.07-.13M46.27,9.05h0m1.94.12-.07-.13m-1.87,0a6,6,0,0,0,1.94.12m-2-.27h0m1.13-.09-.07-.12m.07.12a3.76,3.76,0,0,0-.9.15M26.59,24.63l-.05-.11m.05.11-.07-.12m-.71-.75h0m.11.13-.06-.13m-.15.53-.06-.12m.16-.41a.53.53,0,0,0-.16.41m.23-.28a.54.54,0,0,0-.17.4m4,1.07h0m0,0-.06-.13m.77.87a.37.37,0,0,0-.05-.11m.05.11L30.31,26m-.67-.75s0,0,0,0m.1.13-.06-.13m-.14.53-.07-.12m.17-.41a.54.54,0,0,0-.17.41m.23-.28a.51.51,0,0,0-.16.4m4.61-1.93a1,1,0,0,0-.09-.22m-.72-.76a.56.56,0,0,0-.09.68m.06.13-.06-.13m.9.3L34,23.7m-.7-.85s0,0,0,0m.11.13-.07-.13m.32,1.27L33.6,24m4.06-2.89.07.13m.08.22a2,2,0,0,0-.08-.22M37,20.47a.57.57,0,0,0-.09.68m.07.13-.07-.13m.9.3-.06-.13m-.7-.85h0m.11.13-.06-.13m0,.13h0m.3,1.14-.07-.13m6.07-3.73a1,1,0,0,0-.09-.22m-.72-.75a.55.55,0,0,0-.09.67m.06.13-.06-.13m.9.3-.07-.12m-.7-.85s0,0,0,0m.11.12-.07-.12m.32,1.26L42.86,18M25.92,20.8l-.07-.13M24.44,12h0M10.27,2.7h0M4.45,13.8h0M26.6,20.62l.06.13m-.77,0a.09.09,0,0,0,0,.06m0,0a1.65,1.65,0,0,0,.61.62m.11,0a.56.56,0,0,0,0-.67m-.2.54a.2.2,0,0,0,.11,0m.07.13-.07-.13m0,.13h.11M25.94,20a.54.54,0,0,0-.09.67m.68.75-.07-.13M26,20s0,0,0,0m5.53-2.77a1.81,1.81,0,0,0,.61.62m-.61-.62-.06-.12m.78.74a.55.55,0,0,0,0-.67m-.2.54a.11.11,0,0,0,.11,0m.06.13-.06-.13m-.05.13h.11m-.69-1.42a.54.54,0,0,0-.09.68m.67.74L32,17.72m-.48-1.29h0m3.65-1.64a.14.14,0,0,0,0,.06m0,0a1.75,1.75,0,0,0,.62.62m-.62-.62-.06-.12m.79.74a.55.55,0,0,0,0-.66m-.2.53a.11.11,0,0,0,.11,0m.07.13-.07-.13m0,.13h.11m-.7-1.42a.54.54,0,0,0-.09.68m.68.74-.07-.13m-.48-1.29s0,0,0,0M37,13.6l0,.07m0,0a1.7,1.7,0,0,0,.61.61M37,13.67,37,13.54m.79.74a.56.56,0,0,0,0-.66m-.21.54h.11m.07.12-.07-.12m0,.12h.11m-.7-1.42a.56.56,0,0,0-.09.68m.68.74-.07-.12m-.47-1.3h-.05m6.09.83.06.12m-.78,0,0,.06m0,0a1.81,1.81,0,0,0,.61.62m-.61-.62-.06-.12m.78.74a.55.55,0,0,0,0-.67m-.2.54a.11.11,0,0,0,.11,0m.06.13-.06-.13m0,.13h.11m-.69-1.42a.54.54,0,0,0-.09.68m.67.74L43,14.35m-.48-1.29h0m1.79-.45,0,.06m0,0a1.75,1.75,0,0,0,.62.62m-.62-.62-.06-.12m.79.74a.55.55,0,0,0,0-.66m-.2.53a.11.11,0,0,0,.11,0m.07.13L45,13.16m0,.13a.21.21,0,0,0,.11,0m-.7-1.42a.54.54,0,0,0-.09.68m.68.74-.07-.13m-.48-1.29h0m-2.92-.76.07.13M33.91,19.7l0,.06m6.76-8.54,0,.07m0,0a1.78,1.78,0,0,0,.61.61m.11,0a.53.53,0,0,0,0-.66m-.2.54h.11m.06.12-.06-.12m0,.12a.11.11,0,0,0,.11,0m-.7-1.42a.57.57,0,0,0-.09.68m.68.74-.06-.12m-.48-1.3h0m-7.59,9.27,0,.06m0,0a1.84,1.84,0,0,0,.62.62m-.62-.62-.06-.13m.78.75a.55.55,0,0,0,0-.67m-.2.54h.11m.06.13-.06-.13m0,.13a.17.17,0,0,0,.1,0M33.22,19a.55.55,0,0,0-.09.68m.68.75-.07-.13M33.26,19h0m5.66-6.52-.07-.13m-6.53.94.07.13M45.12,8.73l.06.13M31.57,13.4l0,.07m0,0a1.78,1.78,0,0,0,.61.61m-.61-.61-.06-.13m.78.74a.53.53,0,0,0,0-.66m-.2.54h.11m.06.12L32.26,14m0,.12a.11.11,0,0,0,.11,0m-.7-1.42a.56.56,0,0,0-.08.68m.67.74L32.15,14m-.48-1.3h-.05M44.4,8.84l0,.07m0,0a1.84,1.84,0,0,0,.62.62m-.62-.62-.06-.13m.78.75a.55.55,0,0,0,0-.67M45,9.4h.11m.06.13-.06-.13m0,.13h.1M44.46,8.1a.55.55,0,0,0-.09.68m.68.75L45,9.4M44.5,8.1h0m-5.61,4.31,0,.07m0,0a1.7,1.7,0,0,0,.61.61m.11,0a.55.55,0,0,0,0-.66m-.21.54h.11m.07.12L39.53,13m0,.12a.11.11,0,0,0,.11,0m-.7-1.42a.57.57,0,0,0-.09.68m.68.74L39.42,13M39,11.67H38.9M29.49,22.19a1.81,1.81,0,0,0,.61.62m-.61-.62-.07-.13m.79.75a.55.55,0,0,0,0-.67m-.2.54a.21.21,0,0,0,.11,0m.06.13-.06-.13m0,.13a.2.2,0,0,0,.11,0m-.7-1.43a.57.57,0,0,0-.09.68m.68.75L30,22.68m-.48-1.3h0M15.82-.86a0,0,0,0,0,0,0M18.43-1s0,0,0,0m0,0,.07.13m-.1-.15A4.92,4.92,0,0,0,15.76-1m2.67,0s0,0,0,0m.06.16a0,0,0,0,0,0,0m-2.67.06a5.31,5.31,0,0,0,2.66,0M4.58,10a0,0,0,0,0,0,0m2.6-.19s0,0,0,0m0,0,.07.13m-.1-.15a4.92,4.92,0,0,0-2.64.06m2.67,0s0,0,0,0m.06.16a0,0,0,0,0,0,0m-2.67.06a5.31,5.31,0,0,0,2.66,0M14,.33s0,0,0,0m2.6-.19,0,0m0,0,.07.13m-.1-.15a4.92,4.92,0,0,0-2.64.06m2.66,0s0,0,0,0m.06.16a0,0,0,0,0,0,0M14,.34a5.32,5.32,0,0,0,2.66,0M8.28,7.66h0m2.6-.18s0,0,0,0m0,0,.06.12m-.1-.15a4.92,4.92,0,0,0-2.64.07m2.67,0v0m.06.15s0,0,0,0M8.3,7.67a5.32,5.32,0,0,0,2.66,0m9.9,3h0m2.6-.19,0,0m0,0,.07.13m-.1-.16a4.92,4.92,0,0,0-2.64.07m2.66,0s0,0,0,0m.06.15s0,0,0,0m-2.67.06a5.31,5.31,0,0,0,2.66,0m6.59-5.92h0m2.6-.19,0,0m0,0,.06.13m-.09-.15a5,5,0,0,0-2.65.06m2.67,0s0,0,0,0m.06.16a0,0,0,0,0,0,0m-2.66.06a5.32,5.32,0,0,0,2.66,0m-15,13.12a.05.05,0,0,0,0,0m0,0,.06.13m-.1-.15a4.92,4.92,0,0,0-2.64.06m2.67,0a0,0,0,0,0,0,0m.06.16s0,0,0,0M15.19,18a5.32,5.32,0,0,0,2.66,0M24.43,12l-.06-.12m.06.12h0m2.6-.18s0,0,0,0m0,0,.07.12m-.1-.15a4.92,4.92,0,0,0-2.64.07m2.67,0s0,0,0,0m.06.15s0,0,0,0M24.44,12a5.31,5.31,0,0,0,2.66,0m-2.8,3.79h0m2.6-.19,0,0m0,0,.06.13m-.1-.15a4.92,4.92,0,0,0-2.64.06m2.67,0a0,0,0,0,0,0,0m0,.16s0,0,0,0m-2.66.06a5.27,5.27,0,0,0,2.65,0m-.82-1.17h0m2.6-.19,0,0m0,0,.06.13m-.1-.15a4.92,4.92,0,0,0-2.64.06m2.67,0s0,0,0,0m.06.16s0,0,0,0m-2.66.06a5.32,5.32,0,0,0,2.66,0m1-2.36h0m2.6-.19,0,0m0,0,.07.13m-.1-.15a4.92,4.92,0,0,0-2.64.06m2.67,0s0,0,0,0m.06.16a0,0,0,0,0,0,0m-2.67.06a5.32,5.32,0,0,0,2.66,0M31.71,11h0m2.6-.19,0,0m0,0,.07.13m-.1-.15a4.92,4.92,0,0,0-2.64.06m2.67,0s0,0,0,0m.06.16s0,0,0,0M31.72,11a5.31,5.31,0,0,0,2.66,0M8.41,3.9h0M11,3.72l0,0m0,0,.06.13M11,3.69a4.92,4.92,0,0,0-2.64.07m2.67,0a0,0,0,0,0,0,0m.05.15s0,0,0,0m-2.66.06a5.27,5.27,0,0,0,2.65,0M2.86,7.47h0m2.6-.19s0,0,0,0m0,0,.06.12m-.09-.15a4.92,4.92,0,0,0-2.64.07m2.66,0s0,0,0,0m.06.15s0,0,0,0m-2.66.07a5.31,5.31,0,0,0,2.66,0m9.2-6.1,0,0m0,0,.06.13m-.09-.16a5.05,5.05,0,0,0-2.65.07m2.67,0s0,0,0,0m.06.15s0,0,0,0m-2.66.06a5.2,5.2,0,0,0,2.66,0M10.26,2.71h0m2.6-.19,0,0m0,0,.06.13m-.1-.16a5,5,0,0,0-2.64.07m2.67,0a0,0,0,0,0,0,0m.06.15a0,0,0,0,0,0,0m-2.66.06a5.31,5.31,0,0,0,2.66,0M4.45,13.81h0m2.6-.19s0,0,0,0m0,0,.07.13M7,13.6a4.92,4.92,0,0,0-2.64.07m2.67,0a0,0,0,0,0,0,0m.06.15s0,0,0,0m-2.67.06a5.31,5.31,0,0,0,2.66,0M10,10.24h0m2.6-.19,0,0m0,0,.06.13M12.59,10a5,5,0,0,0-2.65.06m2.67,0s0,0,0,0m.06.16a0,0,0,0,0,0,0M10,10.25a5.32,5.32,0,0,0,2.66,0M30.69,7l.07.13M18.87,14.2l0,.06m0,0a1.72,1.72,0,0,0,.61.62m-.61-.62-.07-.13m.79.75a.58.58,0,0,0,0-.67m-.21.54h.11m.07.13-.07-.13m0,.13h.11m-.7-1.42a.54.54,0,0,0-.09.67m.68.75-.07-.13M19,13.45h0M30,7.06l0,.06m0,0a1.65,1.65,0,0,0,.61.62M30,7.12,29.94,7m.79.74a.55.55,0,0,0,0-.66m-.21.53a.11.11,0,0,0,.11,0m.07.13-.07-.13m0,.13h.11M30,6.32a.57.57,0,0,0-.09.68m.68.74-.07-.13m-.47-1.29a0,0,0,0,0,0,0M1,8.54a5.31,5.31,0,0,0,2.66,0m.07.13L3.61,8.5m15.6-4.32a5.31,5.31,0,0,0,2.66,0m.07.13-.07-.13M18,7.74l.06.13m1.79-1.32.06.13m3.64-2.51.07.13m3.64-2.5.06.12M8.46,1.76h0M1,8.66H1M18.73-2.26l.61.23m3,1.15.6.24m3,1.15.61.23M50.9,10.22l.61.24M24.76.6a0,0,0,0,0,0,0m.05.12L24.76.6m25,9.71h0m.05.12-.07-.13m-1.55,3.16h0m0,0-.07-.13m-8.6,6.57.07.13M39,19.41s0,0,0,0m0,0-.07-.13m-19.43-.76c.36-.43-.15-1.08-.58-1.3m9.06-1.37-.07-.13m10.92.52-.07-.13m-43.23-3.9h0M6.56,5.09,6.5,5M-.84,9.83h0m20-1.79s0,0,0,0M21.25-.67s0,0,0,0M24.77.61v0M46.92,15.16l.07.12m-.62-.63h0m0,0-.07-.13M30.14,3.36l-.07-.13M26.83,13.76c.36-.43-.16-1.08-.59-1.3M6.45,7.52l-.06-.13M48,11.62h0m1.8-1.31v0M.9,14.18h0m0,0-.07-.13M17.62-2.17v0m.06.13h0M21.2-.78l0,0m.07.14a0,0,0,0,0,0,0m1.94.12-.07-.13m-1.87,0a6.33,6.33,0,0,0,1.94.12m-2-.27h0m1.13-.09L22.24-1m.07.12a3.76,3.76,0,0,0-.9.15M19.62-1.92,19.56-2M17.68-2a6,6,0,0,0,1.94.12m-2-.27s0,0,0,0m1.12-.08-.06-.13m.06.13a3.38,3.38,0,0,0-.9.14m7,2.84h0M1.57,14.92a1.17,1.17,0,0,0-.05-.11m.05.11L1.5,14.8m-.66-.75a0,0,0,0,0,0,0m.11.13-.06-.13m-.15.53-.06-.13m.16-.4a.53.53,0,0,0-.16.4m.23-.27a.52.52,0,0,0-.17.4M24.82.73a0,0,0,0,1,0,0m1.94.12L26.71.73m-1.88,0a6.33,6.33,0,0,0,1.94.12m-2-.27s0,0,0,0M25.88.51,25.82.38m.06.13a3.85,3.85,0,0,0-.9.15M45.07,16.35l.06.12m.09.23a.92.92,0,0,0-.09-.23m-.72-.75a.55.55,0,0,0-.09.67m.06.13-.06-.13m.9.31-.07-.13m-.7-.85h0m.11.12-.07-.12M44.77,17l-.06-.13m-3.2,2.22a.65.65,0,0,0-.08-.22m-.72-.75a.53.53,0,0,0-.09.67m.06.13-.06-.13m.89.3L41.45,19m-.7-.86h0m.1.12-.06-.13m.32,1.27L41,19.23m8.83-8.8h0m0,0h0m1.94.12-.06-.13m-1.88,0a6.33,6.33,0,0,0,1.94.12m-2-.27h0m1.13-.09-.06-.12m.06.12a3.76,3.76,0,0,0-.9.15m-1.08,4a2.09,2.09,0,0,0-.08-.23m-.73-.75A.57.57,0,0,0,48,14m.07.12L48,14m.9.3-.06-.13m-.7-.85h0m.11.13-.06-.13m.32,1.26-.07-.13M35.26,21.79h0m0,0-.06-.13M32.26,25a.85.85,0,0,0-.09-.22M31.45,24a.56.56,0,0,0-.09.68m.06.13-.06-.13m.9.3-.07-.13m-.7-.85h0m.11.13L31.49,24m.32,1.26-.06-.12M36,22.64a2,2,0,0,0-.08-.22m-.73-.76a.56.56,0,0,0-.09.68m.07.13-.07-.13m.9.3-.07-.13m-.7-.85h0m.11.13-.07-.13m.32,1.27-.06-.13m4.21-2.54a.65.65,0,0,0-.08-.22m-.73-.76a.57.57,0,0,0-.09.68m.07.13L38.76,20m.9.3-.06-.12m-.7-.86h0m.11.13-.06-.13m.32,1.27-.07-.13m7.92-4.91a1.55,1.55,0,0,0-.08-.23m-.73-.75a.57.57,0,0,0-.09.68m.07.12-.07-.12m.9.3L47,15.38m-.69-.85h-.05m.11.12-.06-.12m.32,1.26-.07-.13m1.43-4h0m2.6-.19,0,0m0,0,.07.13m-.1-.16a4.92,4.92,0,0,0-2.64.07m2.66,0s0,0,0,0m.06.15s0,0,0,0M48,11.64a5.31,5.31,0,0,0,2.66,0M21,5.48l0,.06m0,0a1.72,1.72,0,0,0,.61.62M21,5.54l-.07-.13m.79.75a.58.58,0,0,0,0-.67M21.55,6h.11m.07.13L21.66,6m0,.13h.11M21,4.73a.57.57,0,0,0-.09.68m.68.75L21.55,6m-.47-1.3h0M24.68,3.1l0,.06m0,0a1.73,1.73,0,0,0,.61.62m-.61-.62L24.65,3m.78.75a.55.55,0,0,0,0-.67m-.2.54a.21.21,0,0,0,.11,0m.06.13-.06-.13m-.05.13a.2.2,0,0,0,.11,0m-.7-1.42a.54.54,0,0,0-.08.67m.67.75-.06-.13m-.48-1.29h-.05m9.66,2.21.07.13m-15,13.21,0,.07m-.78,0,0,.07m0,0a1.7,1.7,0,0,0,.61.61M18.77,18l-.07-.13m.79.74a.55.55,0,0,0,0-.66m-.21.54a.2.2,0,0,0,.11,0m.07.12-.07-.12m0,.12a.11.11,0,0,0,.11,0m-.7-1.42a.57.57,0,0,0-.09.68m.68.74-.07-.12m-.47-1.3h-.05M33.68,4.68l0,.07m0,0a1.87,1.87,0,0,0,.61.61m-.61-.61-.06-.13m.78.74a.53.53,0,0,0,0-.66m-.2.54h.11m.06.12-.06-.12m0,.12a.11.11,0,0,0,.11,0m-.69-1.42a.55.55,0,0,0-.09.68m.67.74-.06-.12m-.48-1.3h0M26.4,5.67l0,.07m0,0a1.78,1.78,0,0,0,.61.61m-.61-.61-.06-.13m.78.74a.53.53,0,0,0,0-.66m-.2.54h.11m.06.12-.06-.12M27,6.35a.11.11,0,0,0,.11,0m-.69-1.42a.55.55,0,0,0-.09.68m.67.74L27,6.23m-.48-1.3h0M30.11,3.3l0,.06m0,0a1.72,1.72,0,0,0,.61.62m.11,0a.58.58,0,0,0,0-.67m-.21.54h.11m.07.13-.07-.13m0,.13a.21.21,0,0,0,.11,0m-.7-1.43a.56.56,0,0,0-.09.68m.68.75-.07-.13m-.47-1.3h-.05M26.89,13.16l0,.06m-.78,0,0,.06m0,0a1.84,1.84,0,0,0,.62.62m-.62-.62-.06-.13m.79.75a.56.56,0,0,0,0-.67m-.2.54h.11m.07.13-.07-.13m0,.13h.11m-.7-1.43a.55.55,0,0,0-.09.68m.68.75-.07-.13m-.48-1.3h0m7.35-4,0,.06m0,0a1.81,1.81,0,0,0,.61.62m-.61-.62-.06-.13m.78.75a.55.55,0,0,0,0-.67m-.2.54h.11m.06.13L34.24,9m-.05.13h.11m-.69-1.42a.53.53,0,0,0-.09.67m.67.75L34.13,9m-.48-1.29h0m2.51-.56.06.12M24.88,18.05l.06.12M35.4,7.26l0,.06m0,0a1.81,1.81,0,0,0,.61.62m-.61-.62-.06-.12m.78.74a.55.55,0,0,0,0-.67m-.2.54a.11.11,0,0,0,.11,0m.06.13-.06-.13M36,7.94h.11m-.69-1.42a.54.54,0,0,0-.09.68m.67.74L36,7.81M35.5,6.52h0M24.16,18.16l0,.06m0,0a1.75,1.75,0,0,0,.62.62m-.62-.62-.06-.12m.78.74a.55.55,0,0,0,0-.67m-.2.54a.11.11,0,0,0,.11,0m.06.13-.06-.13m0,.13a.17.17,0,0,0,.1,0m-.69-1.42a.54.54,0,0,0-.09.68m.68.74-.07-.13m-.48-1.29s0,0,0,0M10.15,5.14,10.09,5m.16-3.71,0,.07m0,0A1.81,1.81,0,0,0,10.9,2m-.62-.61-.06-.13M11,2a.55.55,0,0,0,0-.66m-.2.54h.11M11,2l-.07-.12m0,.12A.11.11,0,0,0,11,2M10.31.57a.55.55,0,0,0-.09.68M10.9,2l-.07-.12M10.35.57h0M8.4,2.5l0,.07m0,0A1.87,1.87,0,0,0,9,3.18m-.61-.61-.06-.13m.78.74a.53.53,0,0,0,0-.66M9,3.06h.11m.06.12-.06-.12M9,3.18a.11.11,0,0,0,.11,0M8.46,1.76a.55.55,0,0,0-.09.68M9,3.18,9,3.06M8.5,1.76s0,0,0,0m8.06-4.13.07.13M14.67-1.18l.07.13m1.07-1.2,0,.06m0,0a1.72,1.72,0,0,0,.61.62m-.61-.62-.07-.13m.79.75a.55.55,0,0,0,0-.67m-.2.54a.21.21,0,0,0,.11,0m.06.13L16.5-1.7m-.05.13a.2.2,0,0,0,.11,0M15.86-3a.57.57,0,0,0-.09.68m.68.75-.06-.13M15.91-3h-.05M14-1.07,14-1m0,0a1.72,1.72,0,0,0,.61.62M14-1l-.07-.13m.79.75a.56.56,0,0,0,0-.67m-.21.54a.2.2,0,0,0,.11,0m.07.13-.07-.13m0,.13a.2.2,0,0,0,.11,0M14-1.81a.57.57,0,0,0-.09.68m.68.75-.07-.13m-.47-1.3H14M6.42,7.46l0,.06m0,0a1.81,1.81,0,0,0,.61.62m.11,0a.55.55,0,0,0,0-.67M7,8h.11m.06.13L7.11,8m-.05.13h.11M6.48,6.72a.53.53,0,0,0-.09.67m.67.75L7,8M6.52,6.72h0m3.65-1.64a.14.14,0,0,0,0,.06m0,0a1.75,1.75,0,0,0,.62.62m.11,0a.56.56,0,0,0,0-.67m-.2.54h.11m.07.13-.07-.13m0,.13h.11m-.7-1.42a.56.56,0,0,0-.09.68m.68.74-.07-.13m-.48-1.29h0m42.44,7.6a.58.58,0,0,0-.08-.22M51.82,11a.55.55,0,0,0-.09.68m.06.12-.06-.12m.89.3-.06-.13m-.7-.85s0,0,0,0m.11.13L51.86,11m.32,1.26-.06-.12M.87,11s0,.05,0,.07m0,0a1.72,1.72,0,0,0,.61.62M.9,11.09.83,11m.79.75a.58.58,0,0,0,0-.67m-.21.54h.11m.07.13-.07-.13m0,.13h.11m-.7-1.43A.56.56,0,0,0,.83,11m.68.75-.07-.13M1,10.28h0m21.42,9.13-.06-.12m6.27-2.95c.36-.43-.15-1.08-.58-1.3M6.56,5.08h0M-1,13.61-1,13.48m.07.12h0M12,5.27s0,0,0,0m14.56-2h0m8.76,7.79L35.24,11m0,.06,0,.07m0,0a1.84,1.84,0,0,0,.62.62m.1,0a.55.55,0,0,0,0-.67m-.2.54H36m.06.13L36,11.58m0,.13H36m-.69-1.43a.55.55,0,0,0-.09.68m.68.75-.07-.13m-.48-1.3h0m-1.91,1.93,0,.07m0,0a1.9,1.9,0,0,0,.61.62m-.61-.62-.06-.13m.78.75a.55.55,0,0,0,0-.67m-.2.54h.11m.06.13-.06-.13m0,.13h.11m-.69-1.43a.55.55,0,0,0-.09.68m.67.75L34,12.77m-.48-1.3h0m4.36-1.75.06.13M39,8.65l0,.06m0,0a1.65,1.65,0,0,0,.61.62M39,8.71l-.07-.13m.79.75a.56.56,0,0,0,0-.67m-.21.54a.2.2,0,0,0,.11,0m.07.13-.07-.13m0,.13h.11M39,7.91a.56.56,0,0,0-.09.67m.68.75-.07-.13m-.47-1.29h0m-1.9,1.93a.09.09,0,0,0,0,.06m0,0a1.72,1.72,0,0,0,.61.62m-.61-.62-.07-.13m.79.75a.56.56,0,0,0,0-.67m-.2.54h.11m.07.13-.07-.13m0,.13h.11m-.7-1.43a.56.56,0,0,0-.09.68m.68.75-.07-.13m-.48-1.3h0M26,17A.14.14,0,0,0,26,17m0,0a1.75,1.75,0,0,0,.62.62M26,17,26,16.91m.79.74a.55.55,0,0,0,0-.66m-.2.53a.11.11,0,0,0,.11,0m.07.13-.07-.13m0,.13a.21.21,0,0,0,.11,0m-.7-1.42a.56.56,0,0,0-.09.68m.68.74-.07-.13m-.48-1.29s0,0,0,0m-3.73,3.18A1.81,1.81,0,0,0,23,20m.11,0a.55.55,0,0,0,0-.67m-.2.54a.11.11,0,0,0,.11,0m.06.13L23,19.9M23,20h.11m-.69-1.42a.54.54,0,0,0-.09.68M23,20l-.06-.13m-.48-1.29h0m6.24-2.88,0,.07m-4.36-1.41,0,.07m0,0a1.9,1.9,0,0,0,.61.62m-.61-.62-.06-.13m.78.75a.55.55,0,0,0,0-.67m-.2.54A.2.2,0,0,0,25,15m.06.13L25,15m-.05.13H25m-.69-1.43a.55.55,0,0,0-.09.68m.67.75L24.87,15m-.48-1.3h0m3.55,2.2a1.7,1.7,0,0,0,.61.61m.11,0a.56.56,0,0,0,0-.66m-.21.54a.2.2,0,0,0,.11,0m.07.12-.07-.12m0,.12a.11.11,0,0,0,.11,0M27.92,15a.57.57,0,0,0-.09.68m.68.74-.07-.12M28,15h0m.79-3.14.07.13m1.78-1.32.07.13M28,12s0,0,0,.06m0,0a1.72,1.72,0,0,0,.61.62M28,12.08,28,12m.79.75a.58.58,0,0,0,0-.67m-.21.54h.11m.07.13-.07-.13m0,.13a.21.21,0,0,0,.11,0m-.7-1.42A.54.54,0,0,0,28,12m.68.75-.07-.13m-.48-1.3h0m1.8-.45,0,.06m0,0a1.65,1.65,0,0,0,.61.62m-.61-.62-.07-.13m.79.75a.56.56,0,0,0,0-.67m-.21.54h.11m.07.13-.07-.13m0,.13h.11m-.7-1.42a.56.56,0,0,0-.09.67m.68.75-.07-.13M30,10.09H29.9M21.17,20.43l.07.12m-.75.05a1.65,1.65,0,0,0,.61.62m-.61-.62-.07-.13m.79.75a.55.55,0,0,0,0-.67m-.2.54a.21.21,0,0,0,.11,0m.06.13-.06-.13m0,.13a.2.2,0,0,0,.11,0m-.7-1.42a.56.56,0,0,0-.09.67m.68.75L21,21.09m-.48-1.29a0,0,0,0,0,0,0m9.21-5.21,0,.07m0,0a1.7,1.7,0,0,0,.61.61m-.61-.61-.07-.13m.79.74a.55.55,0,0,0,0-.66m-.2.54h.1m.07.12-.07-.12m0,.12a.11.11,0,0,0,.11,0m-.7-1.42a.57.57,0,0,0-.09.68m.68.74-.06-.12m-.48-1.3h-.05m9.66,2.22.07.12m-3.77,2.25.06.13m2.93-2.39,0,.06m0,0a1.65,1.65,0,0,0,.61.62m.11,0a.56.56,0,0,0,0-.67m-.2.54h.11m.06.13-.06-.13m0,.13a.2.2,0,0,0,.11,0m-.7-1.42a.56.56,0,0,0-.09.67m.68.75-.06-.13m-.48-1.29h0M35,18.62a1.75,1.75,0,0,0,.62.62M35,18.62,35,18.49m.79.75a.56.56,0,0,0,0-.67m-.2.54a.2.2,0,0,0,.11,0m.07.13-.07-.13m0,.13a.21.21,0,0,0,.11,0m-.7-1.42a.54.54,0,0,0-.09.67m.68.75-.07-.13m-.48-1.29s0,0,0,0m13.62-7.7.07.13m-1.92,1.06.06.13M48,10.23l0,.07m0,0a1.7,1.7,0,0,0,.61.61M48,10.3l-.07-.13m.79.74a.55.55,0,0,0,0-.66m-.21.54a.2.2,0,0,0,.11,0m.07.12-.07-.12m0,.12a.11.11,0,0,0,.11,0M48,9.49a.57.57,0,0,0-.09.68m.68.74-.07-.12m-.47-1.3h0m-1.9,1.93a.13.13,0,0,0,0,.07m0,0a1.7,1.7,0,0,0,.61.61m-.61-.61-.07-.13m.79.74a.55.55,0,0,0,0-.66m-.2.54h.11m.07.12L46.81,12m0,.12h.11m-.7-1.42a.56.56,0,0,0-.09.68m.68.74L46.7,12m-.48-1.3h0m-9.31,6.69,0,.06m0,0a1.65,1.65,0,0,0,.61.62m-.61-.62-.07-.13m.79.75a.56.56,0,0,0,0-.67m-.21.54h.11m.07.13-.07-.13m0,.13h.11m-.7-1.42a.56.56,0,0,0-.09.67m.68.75-.07-.13M37,16.63h0M-4.55,12.22h0m2.6-.19s0,0,0,0m0,0,.07.13M-2,12a4.92,4.92,0,0,0-2.64.06m2.67,0s0,0,0,0m.06.16a0,0,0,0,0,0,0m-2.67.06a5.31,5.31,0,0,0,2.66,0M40.57,15l0,.06m0,0a1.73,1.73,0,0,0,.61.62m-.61-.62-.06-.12m.78.74a.55.55,0,0,0,0-.67m-.2.54a.11.11,0,0,0,.11,0m.06.13-.06-.13m0,.13h.11m-.7-1.42a.56.56,0,0,0-.08.68m.67.74-.06-.13m-.48-1.29h-.05M-.09,10.85l0,0m0,0L0,11m-.1-.15a4.92,4.92,0,0,0-2.64.06m2.67,0s0,0,0,0M0,11s0,0,0,0M-2.69,11A5.31,5.31,0,0,0,0,11M1,8.67,1,8.54m2.67-.06,0,0m0,0,.06.12m-.09-.15a5,5,0,0,0-2.65.07m2.67,0s0,0,0,0m.06.15s0,0,0,0M1,8.67a5.31,5.31,0,0,0,2.66,0M6.56,5.09h0m2.6-.19s0,0,0,0m0,0L9.24,5m-.1-.16A4.92,4.92,0,0,0,6.5,5m2.67,0a0,0,0,0,0,0,0m.06.15s0,0,0,0M6.57,5.1a5.31,5.31,0,0,0,2.66,0M4.71,6.28h0m2.6-.19s0,0,0,0m0,0,.07.13m-.1-.16a4.92,4.92,0,0,0-2.64.07m2.67,0a0,0,0,0,0,0,0m.06.15v0m-2.67.06a5.31,5.31,0,0,0,2.66,0M-.85,9.84h0m2.6-.18s0,0,0,0m0,0,.06.12m-.1-.15a4.92,4.92,0,0,0-2.64.07m2.67,0s0,0,0,0m.06.15s0,0,0,0m-2.66.06a5.32,5.32,0,0,0,2.66,0M-1,13.61h0m2.6-.19,0,0m0,0,.06.13m-.1-.16A5,5,0,0,0-1,13.47m2.67,0a0,0,0,0,0,0,0m.06.16s0,0,0,0M-1,13.62a5.32,5.32,0,0,0,2.66,0M9,8.67s0,0,0,0m0,0,.07.13M9,8.65a4.92,4.92,0,0,0-2.64.06M9,8.7s0,0,0,0m.06.16s0,0,0,0m-2.67.06a5.31,5.31,0,0,0,2.66,0m1-2.36s0,0,0,0m2.6-.18,0,0m0,0,.06.12m-.09-.15a5,5,0,0,0-2.65.07m2.67,0s0,0,0,0m.06.15s0,0,0,0m-2.66.06a5.2,5.2,0,0,0,2.66,0M12,5.29h0m2.6-.19s0,0,0,0m0,0,.06.12m-.09-.15a4.92,4.92,0,0,0-2.64.07m2.66,0s0,0,0,0m.06.15s0,0,0,0M12,5.3a5.31,5.31,0,0,0,2.66,0m4.48,2.8h0m2.6-.19,0,0m0,0,.06.13m-.09-.15a5,5,0,0,0-2.65.06m2.67,0a0,0,0,0,0,0,0m.06.16a0,0,0,0,0,0,0m-2.66.06a5.32,5.32,0,0,0,2.66,0M19.26,4.29h0m2.6-.18s0,0,0,0m0,0,.06.12m-.1-.15a4.92,4.92,0,0,0-2.64.07m2.67,0s0,0,0,0m.06.15s0,0,0,0m-2.66.06a5.32,5.32,0,0,0,2.66,0m4.6-1s0,0,0,0m2.59-.19s0,0,0,0m0,0,.07.13m-.1-.15a4.92,4.92,0,0,0-2.64.06m2.67,0s0,0,0,0m.06.16s0,0,0,0m-2.66.06a5.27,5.27,0,0,0,2.65,0M9.75,17.77s0,0,0,0m2.6-.19,0,0m0,0,.06.13m-.09-.15a4.92,4.92,0,0,0-2.64.06m2.66,0s0,0,0,0m.06.16a0,0,0,0,0,0,0m-2.66.06a5.32,5.32,0,0,0,2.66,0M21.12,3.1v0m-15,13.26h0m8.35-13.8.07.13m6.51.37s0,0,0,0M21.06,3a5.31,5.31,0,0,0,2.66,0m.07.13L23.72,3M6.18,16.37h0m0-.11a5.31,5.31,0,0,0,2.66,0m.06.13-.06-.13m2.9-3.53a5.2,5.2,0,0,0,2.66,0m.06.13-.06-.13m-.76-1-.06-.13m9.32-5.83h0M11.6,16.57h0M35.41,8.65l-.06-.12m.07.11h0M33.56,9.84h0m2.6-.18s0,0,0,0m0,0,.07.12m-.1-.15a4.92,4.92,0,0,0-2.64.07m2.67,0s0,0,0,0m.06.15s0,0,0,0m-2.67.06a5.31,5.31,0,0,0,2.66,0m-.82-1.17,0,0M38,8.48s0,0,0,0m0,0,.06.12M38,8.45a4.92,4.92,0,0,0-2.64.07M38,8.5s0,0,0,0m.06.15s0,0,0,0m-2.66.07a5.31,5.31,0,0,0,2.66,0m-10,1h0m2.6-.19,0,0m0,0,.06.12m-.09-.15a5,5,0,0,0-2.65.07m2.67,0s0,0,0,0m.06.15s0,0,0,0m-2.66.07a5.31,5.31,0,0,0,2.66,0m3.64-2.53,0,0m0,0,.07.13m-.1-.16a4.92,4.92,0,0,0-2.64.07m2.67,0s0,0,0,0m.06.15s0,0,0,0m-2.67.06a5.31,5.31,0,0,0,2.66,0M23.73,2.93l0,0m0,0,.06.12M23.7,2.9A5,5,0,0,0,21.05,3m2.67,0s0,0,0,0m.06.15s0,0,0,0m-2.66.07a5.31,5.31,0,0,0,2.66,0m-15,13.13s0,0,0,0m0,0,.06.12m-.1-.15a4.92,4.92,0,0,0-2.64.07m2.67,0s0,0,0,0m.05.15s0,0,0,0m-2.66.06a5.16,5.16,0,0,0,2.65,0m2.89-3.54h0m2.6-.19,0,0m0,0,.07.13m-.1-.16a4.92,4.92,0,0,0-2.64.07m2.67,0a0,0,0,0,0,0,0m.06.15s0,0,0,0m-2.67.06a5.31,5.31,0,0,0,2.66,0m-.82-1.16h0m2.6-.19,0,0m0,0,.07.13m-.1-.16a4.92,4.92,0,0,0-2.64.07m2.67,0a0,0,0,0,0,0,0m.06.15s0,0,0,0m-2.67.06a5.31,5.31,0,0,0,2.66,0m6.59-5.92a0,0,0,0,0,0,0m2.6-.19,0,0m0,0,.07.13m-.1-.15a4.92,4.92,0,0,0-2.64.06m2.67,0s0,0,0,0m.06.16a0,0,0,0,0,0,0m-2.67.06a5.31,5.31,0,0,0,2.66,0M11.6,16.58a0,0,0,0,0,0,0m2.6-.19,0,0m0,0,.07.13m-.1-.15a4.92,4.92,0,0,0-2.64.06m2.67,0s0,0,0,0m.06.16a0,0,0,0,0,0,0m-2.67.06a5.31,5.31,0,0,0,2.66,0M23.6,6.69l0,0m0,0,.06.13m-.09-.15a4.92,4.92,0,0,0-2.64.06m2.66,0s0,0,0,0m.06.16a0,0,0,0,0,0,0M21,6.88a5.32,5.32,0,0,0,2.66,0m1-2.36h0m2.6-.19s0,0,0,0m0,0,.07.13m-.1-.15a4.92,4.92,0,0,0-2.64.06m2.67,0s0,0,0,0m.06.16a0,0,0,0,0,0,0M24.7,4.5a5.31,5.31,0,0,0,2.66,0m-6.46,4h0M-1.57,7.29l.37-.24M4,3.72l.38-.24M7.68,1.34l.38-.24M9.54.15l.37-.24m3.95,2.85-.07-.12M18.25.21l.06.13M13.83,2.7l0,.06m0,0a1.65,1.65,0,0,0,.61.62m.11,0a.55.55,0,0,0,0-.66m-.2.53a.09.09,0,0,0,.1,0m.07.13-.07-.13m0,.13a.2.2,0,0,0,.11,0M13.88,2a.57.57,0,0,0-.09.68m.68.74-.06-.13M13.93,2a0,0,0,0,0,0,0M17.53.32l0,.07m0,0a1.87,1.87,0,0,0,.61.61M17.56.39,17.5.26m.78.74a.53.53,0,0,0,0-.66m-.2.54a.2.2,0,0,0,.11,0m.06.12L18.22.88m0,.12a.11.11,0,0,0,.11,0M17.59-.42a.55.55,0,0,0-.09.68m.67.74L18.11.88m-.48-1.3s0,0,0,0M3.3,13.49l.07.13M7,11.11l.06.13M2.59,13.6l0,.07m0,0a1.7,1.7,0,0,0,.61.61m-.61-.61-.07-.13m.79.74a.55.55,0,0,0,0-.66m-.2.54h.1m.07.12-.07-.12m0,.12h.11m-.7-1.42a.57.57,0,0,0-.09.68m.68.74-.06-.12m-.48-1.3h0m3.65-1.64,0,.07m0,0a1.87,1.87,0,0,0,.61.61m-.61-.61-.06-.13M7,11.9a.53.53,0,0,0,0-.66m-.2.54H7M7,11.9,7,11.78m-.05.12a.11.11,0,0,0,.11,0m-.69-1.42a.55.55,0,0,0-.09.68m.67.74-.06-.12m-.48-1.3h0M16,12.7l.06.12M13.44,14l0,.06m0,0a1.81,1.81,0,0,0,.61.62m-.61-.62-.06-.13m.78.75a.55.55,0,0,0,0-.67m-.2.54h.11m.06.13-.06-.13m-.05.13h.11m-.7-1.42a.54.54,0,0,0-.08.67m.67.75L14,14.55m-.48-1.29h0m1.8-.45,0,.06m0,0a1.81,1.81,0,0,0,.61.62m-.61-.62-.06-.12m.78.74a.55.55,0,0,0,0-.67m-.2.54H16m.06.13L16,13.36m-.05.13H16m-.69-1.42a.54.54,0,0,0-.09.68m.67.74-.06-.13m-.48-1.29h0m6.21-2.94.07.13m-.78,0,0,.06m0,0a1.65,1.65,0,0,0,.61.62m-.61-.62-.07-.12m.79.74a.55.55,0,0,0,0-.66m-.21.53a.11.11,0,0,0,.11,0m.07.13-.07-.13m0,.13h.11M20.9,8.5a.57.57,0,0,0-.09.68m.68.74-.07-.13M21,8.5H20.9m1.8-.45,0,.07m0,0a1.7,1.7,0,0,0,.61.61m-.61-.61L22.66,8m.79.74a.53.53,0,0,0,0-.66m-.2.54h.11m.06.12-.06-.12m-.05.12a.11.11,0,0,0,.11,0m-.7-1.42a.57.57,0,0,0-.09.68m.68.74-.06-.12m-.48-1.3h-.05m-5.48.54,0,.07m0,0a1.73,1.73,0,0,0,.62.61m-.62-.61-.06-.13m.78.74a.53.53,0,0,0,0-.66m-.2.54H18m.06.12L18,8.41m0,.12a.09.09,0,0,0,.1,0m-.69-1.42a.55.55,0,0,0-.09.68m.68.74-.07-.12m-.48-1.3h0m1.8-.45a.14.14,0,0,0,0,.07m0,0a1.84,1.84,0,0,0,.62.62m-.62-.62-.06-.13m.79.75a.56.56,0,0,0,0-.67m-.2.54a.2.2,0,0,0,.11,0m.07.13-.07-.13m0,.13a.21.21,0,0,0,.11,0m-.7-1.43a.56.56,0,0,0-.09.68m.68.75-.07-.13m-.48-1.3h0M12.3,15.07l.07.13M9.74,16.38l0,.06m0,0a1.72,1.72,0,0,0,.61.62m-.61-.62-.07-.13m.79.75a.56.56,0,0,0,0-.67m-.21.54a.2.2,0,0,0,.11,0m.07.13-.07-.13m0,.13a.2.2,0,0,0,.11,0m-.7-1.42a.56.56,0,0,0-.09.67m.68.75-.07-.13m-.47-1.3H9.79m1.8-.45,0,.06m0,0a1.65,1.65,0,0,0,.61.62m-.61-.62-.07-.13m.79.75a.56.56,0,0,0,0-.67m-.2.54h.11m.06.13-.06-.13m0,.13a.2.2,0,0,0,.11,0m-.7-1.42a.56.56,0,0,0-.09.67m.68.75-.06-.13m-.48-1.29h0M22.83,4.29l0,.06m0,0a1.72,1.72,0,0,0,.61.62m-.61-.62-.07-.13m.79.75a.56.56,0,0,0,0-.67m-.2.54h.1m.07.13-.07-.13m0,.13a.2.2,0,0,0,.11,0m-.7-1.42a.56.56,0,0,0-.09.67m.68.75-.06-.13m-.48-1.3h-.05m3.65-1.64,0,.06m0,0a1.81,1.81,0,0,0,.61.62M26.56,2l-.06-.13m.78.75a.55.55,0,0,0,0-.67m-.2.54a.2.2,0,0,0,.11,0m.06.13-.06-.13m0,.13a.2.2,0,0,0,.11,0m-.69-1.42a.53.53,0,0,0-.09.67m.67.75-.06-.13m-.48-1.29s0,0,0,0M23.28,11.71l.07.12m1.07-1.2,0,.06m0,0a1.81,1.81,0,0,0,.61.62m-.61-.62-.06-.13m.78.75a.55.55,0,0,0,0-.67m-.2.54h.11m.06.13-.06-.13m-.05.13h.11m-.69-1.42a.53.53,0,0,0-.09.67m.67.75L25,11.18m-.48-1.29h0m-1.91,1.93,0,.06m0,0a1.73,1.73,0,0,0,.61.62m-.61-.62-.07-.13m.79.75a.55.55,0,0,0,0-.67m-.2.54a.21.21,0,0,0,.11,0m.06.13-.06-.13m-.05.13h.11m-.7-1.42a.56.56,0,0,0-.09.67m.68.75-.06-.13m-.48-1.29h-.05m10.69,6.29h0M37,15s0,0,0,0m1.85-1.19h0m2.6-.19,0,0m0,0,.07.13m-.1-.16a4.92,4.92,0,0,0-2.64.07m2.67,0s0,0,0,0m.06.15s0,0,0,0m-2.67.06a5.31,5.31,0,0,0,2.66,0M37,15h0m2.6-.19,0,0m0,0,.06.13m-.09-.16a5,5,0,0,0-2.65.07m2.67,0s0,0,0,0m.06.15s0,0,0,0M37,15a5.31,5.31,0,0,0,2.66,0M33.3,17.38h0m2.6-.19s0,0,0,0m0,0,.06.12m-.1-.15a4.92,4.92,0,0,0-2.64.07m2.67,0s0,0,0,0m0,.15s0,0,0,0m-2.66.07a5.27,5.27,0,0,0,2.65,0M37.77,16s0,0,0,0m0,0,.06.13m-.1-.16a4.92,4.92,0,0,0-2.64.07m2.67,0s0,0,0,0m.06.15s0,0,0,0m-2.66.06a5.31,5.31,0,0,0,2.66,0m-37.91-9a8.47,8.47,0,0,0-1.12-.1M0,7.12l0-.06m0,0,0,0m0,0,.07.13M-1.2,7.05l-.06-.13m1.3.2a0,0,0,0,0,0,0m.06.15s0,0,0,0m-1.86.18-.07-.12m.07.12A4.78,4.78,0,0,0,.1,7.24M5.48,3.59a7.08,7.08,0,0,0-1.12-.11m1.23.07,0-.06m0,0,0,0m0,0,.06.13m-1.3-.17-.07-.13m1.3.2s0,0,0,0m.06.15s0,0,0,0M3.8,3.84l-.06-.13m.06.13a4.84,4.84,0,0,0,1.86-.17M9.18,1.21A7.08,7.08,0,0,0,8.06,1.1m1.24.07,0,0m0,0s0,0,0,0m0,0,.07.13M8.06,1.1,8,1m1.31.2s0,0,0,0m.06.16a0,0,0,0,0,0,0M7.5,1.46l-.06-.13m.06.13A5,5,0,0,0,9.36,1.3M11,0A7.08,7.08,0,0,0,9.91-.09M11.15,0l0,0m0,0s0,0,0,0m0,0,.07.13M9.91-.09,9.85-.22m1.3.2s0,0,0,0m.06.16s0,0,0,0M9.36.27,9.29.14m.07.13A5,5,0,0,0,11.21.11m2.11,19.05L13.26,19m.06.12h0m5.43.19s0,0,0,0m3.83-6.15h0m2.6-.19,0,0m0,0,.07.13m-.1-.15a4.92,4.92,0,0,0-2.64.06m2.67,0s0,0,0,0m.06.16s0,0,0,0m-2.67.06a5.31,5.31,0,0,0,2.66,0m-11.93,6h0m2.6-.19s0,0,0,0m0,0,.07.13M15.9,19a5,5,0,0,0-2.64.07m2.67,0a0,0,0,0,0,0,0m.06.15s0,0,0,0m-2.67.06a5.2,5.2,0,0,0,2.66,0m2.89-3.54h0m2.6-.19,0,0m0,0,.06.13m-.09-.15a4.92,4.92,0,0,0-2.64.06m2.66,0s0,0,0,0m.06.16a0,0,0,0,0,0,0m-2.66.06a5.32,5.32,0,0,0,2.66,0m-2.8,3.79a0,0,0,0,0,0,0m2.6-.19,0,0m0,0,.06.13m-.09-.16a4.92,4.92,0,0,0-2.64.07m2.66,0s0,0,0,0m.06.15s0,0,0,0m-2.66.06a5.31,5.31,0,0,0,2.66,0M23.21,18l0,0m0,0,.07.13m-.1-.16a4.92,4.92,0,0,0-2.64.07m2.67,0s0,0,0,0m.06.15s0,0,0,0m-2.67.06a5.31,5.31,0,0,0,2.66,0M39.88,7.29l0,0m0,0,.06.12m-.09-.15a5,5,0,0,0-2.65.07m2.67,0s0,0,0,0m.06.15s0,0,0,0m-2.66.07a5.31,5.31,0,0,0,2.66,0M20.47,21.93a0,0,0,0,0,0,0m2.6-.18s0,0,0,0m0,0,.07.12m-.1-.15a4.92,4.92,0,0,0-2.64.07m2.67,0s0,0,0,0m.06.15s0,0,0,0m-2.67.06a5.31,5.31,0,0,0,2.66,0m10-.77L33.11,21m.06.13h0m2.6-.19a.05.05,0,0,0,0,0m0,0,.06.13m-.1-.15a4.92,4.92,0,0,0-2.64.06m2.67,0s0,0,0,0m.06.16s0,0,0,0m-2.66.06a5.32,5.32,0,0,0,2.66,0M30,8.46l-.07-.13m0,0s0,0,0,0m.06.13-.06-.13m0,0a5.16,5.16,0,0,0,2.65,0m.07.13-.07-.13M30,8.45s0,0,0,0m0,0h0m2.6-.19s0,0,0,0m0,0,.06.13m-.09-.16a4.92,4.92,0,0,0-2.64.07m2.66,0s0,0,0,0m.06.15s0,0,0,0M30,8.47a5.31,5.31,0,0,0,2.66,0" transform="translate(7.43 3.63)"/></g><text class="cls-5" transform="translate(17.36 23.94) scale(1.02 1)">L</text><text class="cls-5" transform="translate(41.17 23.94) scale(1.02 1)">w</text><line class="cls-6" x1="7.55" y1="16.73" x2="32.55" y2="26.23"/><line class="cls-6" x1="32.55" y1="26.23" x2="47.55" y2="16.73"/><line class="cls-6" x1="7.55" y1="15.73" x2="7.55" y2="17.73"/><line class="cls-6" x1="32.55" y1="25.24" x2="32.55" y2="27.24"/><line class="cls-6" x1="47.55" y1="15.73" x2="47.55" y2="17.73"/><text class="cls-5" transform="translate(48.15 9.23)">t</text><line class="cls-6" x1="49.05" y1="17.73" x2="49.05" y2="15.73"/><line class="cls-6" x1="49.05" y1="12.23" x2="49.05" y2="10.23"/><polygon class="cls-7" points="49.05 13.23 48.8 12.73 48.55 12.23 49.05 12.23 49.55 12.23 49.3 12.73 49.05 13.23"/><polygon class="cls-7" points="49.05 14.73 48.8 15.23 48.55 15.73 49.05 15.73 49.55 15.73 49.3 15.23 49.05 14.73"/><line class="cls-6" x1="48.05" y1="13.23" x2="50.05" y2="13.23"/><line class="cls-6" x1="48.05" y1="14.73" x2="50.05" y2="14.73"/></g></g></svg>
