<svg xmlns="http://www.w3.org/2000/svg"  width="230" height="230" viewBox="0 0 46.62 55.23"><defs><style>.cls-1{fill:#a0a0a0;}.cls-2,.cls-3,.cls-4{fill:none;stroke:#2d2d2d;stroke-miterlimit:10;stroke-width:0.25px;}.cls-3{stroke-dasharray:1 0.75;}.cls-4{stroke-dasharray:1 0.75;}.cls-5,.cls-6,.cls-7{fill:#2d2d2d;}.cls-6{font-size:4px;}.cls-6,.cls-7{font-family:RobotoMono-Regular, Roboto Mono;}.cls-7{font-size:3px;}</style></defs><g id="Layer_2" data-name="Layer 2"><g id="Layer_1-2" data-name="Layer 1"><path class="cls-1" d="M23.32,10.75a20,20,0,1,0,20,20A20,20,0,0,0,23.32,10.75Zm0,37a17,17,0,1,1,17-17A17,17,0,0,1,23.32,47.75Z"/><line class="cls-2" x1="23.4" y1="9.75" x2="23.4" y2="10.25"/><line class="cls-3" x1="23.4" y1="11" x2="23.4" y2="50.88"/><line class="cls-2" x1="23.4" y1="51.25" x2="23.4" y2="51.75"/><line class="cls-2" x1="44.32" y1="30.75" x2="43.82" y2="30.75"/><line class="cls-4" x1="43.07" y1="30.75" x2="3.36" y2="30.75"/><line class="cls-2" x1="2.99" y1="30.75" x2="2.49" y2="30.75"/><line class="cls-2" x1="33.21" y1="40.65" x2="34.63" y2="42.07"/><line class="cls-2" x1="38.16" y1="45.6" x2="39.58" y2="47.02"/><polygon class="cls-5" points="37.46 44.9 37.99 45.07 38.52 45.25 38.16 45.6 37.81 45.96 37.63 45.42 37.46 44.9"/><polygon class="cls-5" points="35.34 42.77 35.16 42.24 34.98 41.71 34.63 42.07 34.28 42.42 34.81 42.6 35.34 42.77"/><text class="cls-6" transform="translate(39.11 48.25) rotate(45)">t</text><text class="cls-6" transform="translate(22.12 3.42)">D</text><text class="cls-7" transform="translate(22.5 7.92)">y</text><text class="cls-7" transform="translate(22.5 54.42)">y</text><text class="cls-7" transform="translate(0 31.42)">x</text><text class="cls-7" transform="translate(44.82 31.42)">x</text><line class="cls-2" x1="3.32" y1="4.75" x2="43.32" y2="4.75"/><line class="cls-2" x1="3.32" y1="3.75" x2="3.32" y2="5.75"/><line class="cls-2" x1="43.32" y1="3.75" x2="43.32" y2="5.75"/><line class="cls-2" x1="3.32" y1="6.75" x2="3.32" y2="24.75"/><line class="cls-2" x1="43.32" y1="6.75" x2="43.32" y2="24.75"/></g></g></svg>
