<svg xmlns="http://www.w3.org/2000/svg" width="280" height="280" viewBox="0 0 48.4 47.63"><defs><style>.cls-1{fill:#a0a0a0;}.cls-2{font-size:4px;font-family:RobotoMono-Regular, Roboto Mono;}.cls-2,.cls-5{fill:#2d2d2d;}.cls-3{font-size:2px;font-family:RobotoMono-Medium, Roboto Mono;font-weight:500;}.cls-4{fill:none;stroke:#2d2d2d;stroke-miterlimit:10;stroke-width:0.25px;}</style></defs><g id="Layer_2" data-name="Layer 2"><g id="Layer_1-2" data-name="Layer 1"><path class="cls-1" d="M8.8.12h-3v40h3V24.62a3,3,0,0,1,3-3h23a3,3,0,0,1,3,3v15.5h3V.12h-3v15.5a3,3,0,0,1-3,3h-23a3,3,0,0,1-3-3Z"/><text class="cls-2" transform="translate(29 14.12)">t<tspan class="cls-3" x="2.4" y="0">w</tspan></text><line class="cls-4" x1="34.3" y1="34.12" x2="36.3" y2="34.12"/><line class="cls-4" x1="42.3" y1="34.12" x2="44.3" y2="34.12"/><polygon class="cls-5" points="41.3 34.13 41.8 33.88 42.3 33.63 42.3 34.13 42.3 34.63 41.8 34.38 41.3 34.13"/><polygon class="cls-5" points="37.3 34.13 36.8 33.88 36.3 33.63 36.3 34.13 36.3 34.63 36.8 34.38 37.3 34.13"/><text class="cls-2" transform="translate(44.8 35.29)">t<tspan class="cls-3" x="2.4" y="0">f</tspan></text><line class="cls-4" x1="30.8" y1="25.12" x2="30.8" y2="23.12"/><line class="cls-4" x1="30.8" y1="17.12" x2="30.8" y2="15.12"/><polygon class="cls-5" points="30.8 18.13 30.55 17.63 30.3 17.13 30.8 17.13 31.3 17.13 31.05 17.63 30.8 18.13"/><polygon class="cls-5" points="30.8 22.13 30.55 22.63 30.3 23.13 30.8 23.13 31.3 23.13 31.05 22.63 30.8 22.13"/><text class="cls-2" transform="translate(22.1 46.55)">h</text><line class="cls-4" x1="3.2" y1="40.12" x2="3.2" y2="0.13"/><line class="cls-4" x1="2.2" y1="40.12" x2="4.2" y2="40.12"/><line class="cls-4" x1="2.2" y1="0.13" x2="4.2" y2="0.13"/><line class="cls-4" x1="5.8" y1="42.62" x2="40.8" y2="42.62"/><line class="cls-4" x1="5.8" y1="41.62" x2="5.8" y2="43.62"/><line class="cls-4" x1="40.8" y1="41.62" x2="40.8" y2="43.62"/><text class="cls-2" transform="translate(0 21.29)">b</text><text class="cls-2" transform="translate(12.8 26.71)">r</text><line class="cls-4" x1="11.01" y1="23.83" x2="12.3" y2="25.12"/><polygon class="cls-5" points="10.3 23.13 10.83 23.3 11.36 23.48 11.01 23.83 10.65 24.19 10.48 23.66 10.3 23.13"/></g></g></svg>
