<svg xmlns="http://www.w3.org/2000/svg" width="320" height="320" viewBox="0 0 42.63 30.61"><defs><style>.cls-1{fill:#a0a0a0;stroke-linecap:round;stroke-linejoin:round;stroke-width:0.2px;}.cls-1,.cls-3{stroke:#2d2d2d;}.cls-2{font-size:3px;font-family:RobotoMono-Regular, Roboto Mono;}.cls-2,.cls-4{fill:#2d2d2d;}.cls-3{fill:none;stroke-miterlimit:10;stroke-width:0.25px;}</style></defs><g id="Layer_2" data-name="Layer 2"><g id="Layer_1-2" data-name="Layer 1"><polygon class="cls-1" points="0.13 11.1 25.13 20.6 25.13 19.1 0.13 9.6 0.13 11.1"/><polygon class="cls-1" points="40.13 11.1 25.13 20.6 25.13 19.1 40.13 9.6 40.13 11.1"/><polygon class="cls-1" points="40.13 9.6 15.13 0.1 0.13 9.6 25.13 19.1 40.13 9.6"/><text class="cls-2" transform="translate(9.93 20.31) scale(1.02 1)">L</text><text class="cls-2" transform="translate(33.74 20.31) scale(1.02 1)">w</text><line class="cls-3" x1="0.13" y1="13.1" x2="25.12" y2="22.6"/><line class="cls-3" x1="25.12" y1="22.6" x2="40.13" y2="13.1"/><line class="cls-3" x1="0.13" y1="12.1" x2="0.13" y2="14.1"/><line class="cls-3" x1="25.12" y1="21.61" x2="25.12" y2="23.61"/><line class="cls-3" x1="40.12" y1="12.1" x2="40.13" y2="14.1"/><text class="cls-2" transform="translate(40.72 5.6)">t</text><line class="cls-3" x1="41.63" y1="14.1" x2="41.63" y2="12.1"/><line class="cls-3" x1="41.63" y1="8.6" x2="41.63" y2="6.6"/><polygon class="cls-4" points="41.63 9.6 41.38 9.1 41.13 8.6 41.63 8.6 42.13 8.6 41.88 9.1 41.63 9.6"/><polygon class="cls-4" points="41.63 11.1 41.38 11.6 41.13 12.1 41.63 12.1 42.13 12.1 41.88 11.6 41.63 11.1"/><line class="cls-3" x1="40.63" y1="9.6" x2="42.63" y2="9.6"/><line class="cls-3" x1="40.63" y1="11.1" x2="42.63" y2="11.1"/></g></g></svg>
