<svg xmlns="http://www.w3.org/2000/svg" width="220" height="220" viewBox="0 0 37.88 35.25"><defs><style>.cls-1{font-size:3px;font-family:RobotoMono-Regular, Roboto Mono;}.cls-1,.cls-3{fill:#2d2d2d;}.cls-2,.cls-6{fill:none;}.cls-2,.cls-4,.cls-5,.cls-6{stroke:#2d2d2d;}.cls-2,.cls-4,.cls-5{stroke-miterlimit:10;stroke-width:0.25px;}.cls-4{fill:#a0a0a0;}.cls-5{fill:#fff;}.cls-6{stroke-linecap:round;stroke-linejoin:round;stroke-width:0.1px;}</style></defs><g id="Layer_2" data-name="Layer 2"><g id="Layer_1-2" data-name="Layer 1"><text class="cls-1" transform="translate(32.9 33.84) scale(1.02 1)">w</text><line class="cls-2" x1="30.63" y1="32.63" x2="35.13" y2="29.63"/><line class="cls-2" x1="30.62" y1="31.9" x2="30.63" y2="33.4"/><line class="cls-2" x1="35.12" y1="28.88" x2="35.13" y2="30.38"/><text class="cls-1" transform="translate(35.97 24.47)">t</text><line class="cls-2" x1="36.88" y1="30.73" x2="36.88" y2="29.23"/><line class="cls-2" x1="36.88" y1="26.48" x2="36.88" y2="24.98"/><polygon class="cls-3" points="36.88 27.48 36.63 26.98 36.38 26.48 36.88 26.48 37.38 26.48 37.13 26.98 36.88 27.48"/><polygon class="cls-3" points="36.88 28.23 36.63 28.73 36.38 29.23 36.88 29.23 37.38 29.23 37.13 28.73 36.88 28.23"/><line class="cls-2" x1="35.38" y1="27.48" x2="37.88" y2="27.48"/><line class="cls-2" x1="35.38" y1="28.23" x2="37.88" y2="28.23"/><path class="cls-4" d="M31.49,29.86a21.72,21.72,0,0,1-5.54,2L16.34,35a22.44,22.44,0,0,0,8.08-1c5-1.6,7.07-4.17,7.07-4.17"/><path class="cls-4" d="M17.92,35a20,20,0,0,0,10.9-3.31c.58-.37,1.14-.76,1.69-1.17l4.41-2.78.13.43L30.64,30.9c-.47.36-1,.7-1.46,1a20.78,20.78,0,0,1-13,3.12"/><path class="cls-2" d="M30.51,30.47l.13.43"/><path class="cls-4" d="M36.8,16.22a16.05,16.05,0,0,1-8,13.9l-3.93,2.39L8.11,5.06l4-2.41C22.59-4.15,36.88,3.6,36.8,16.22Z"/><circle class="cls-4" cx="16.21" cy="18.96" r="16.08"/><circle class="cls-5" cx="16.21" cy="18.96" r="6.43"/><path class="cls-4" d="M21.51,22.61a6.43,6.43,0,1,1-6.09-10,6.43,6.43,0,0,0,5.29,10.09A7,7,0,0,0,21.51,22.61Z"/><circle class="cls-6" cx="16.21" cy="18.96" r="16.08"/><circle class="cls-6" cx="16.21" cy="18.96" r="15.01"/><circle class="cls-6" cx="16.21" cy="18.96" r="13.94"/><circle class="cls-6" cx="16.21" cy="18.96" r="12.87"/><circle class="cls-6" cx="16.21" cy="18.96" r="11.8"/><circle class="cls-6" cx="16.21" cy="18.96" r="10.72"/><circle class="cls-6" cx="16.21" cy="18.96" r="9.65"/><circle class="cls-6" cx="16.21" cy="18.96" r="8.58"/><circle class="cls-6" cx="16.21" cy="18.96" r="7.51"/></g></g></svg>
