<svg xmlns="http://www.w3.org/2000/svg"  width="240" height="240" viewBox="0 0 32 47.88"><defs><style>.cls-1{fill:#a0a0a0;}.cls-2{fill:none;stroke:#2d2d2d;stroke-miterlimit:10;stroke-width:0.25px;}.cls-3{font-size:4px;font-family:RobotoMono-Regular, Roboto Mono;}.cls-3,.cls-5{fill:#2d2d2d;}.cls-4{font-size:2px;font-family:RobotoMono-Medium, Roboto Mono;font-weight:500;}</style></defs><g id="Layer_2" data-name="Layer 2"><g id="Layer_1-2" data-name="Layer 1"><path class="cls-1" d="M25.9,3.12v-3H5.9v3h5.5a3,3,0,0,1,3,3v28a3,3,0,0,1-3,3H5.9v3h20v-3H20.4a3,3,0,0,1-3-3v-28a3,3,0,0,1,3-3Z"/><line class="cls-2" x1="27.4" y1="40.13" x2="27.4" y2="37.13"/><text class="cls-3" transform="translate(28.4 40.04)">t<tspan class="cls-4" x="2.4" y="0">f</tspan></text><text class="cls-3" transform="translate(20.9 21.29)">t<tspan class="cls-4" x="2.4" y="0">w</tspan></text><text class="cls-3" transform="translate(26.4 21.29)">h<tspan class="cls-4" x="2.4" y="0">i</tspan></text><text class="cls-3" transform="translate(21.4 8.21)">r</text><line class="cls-2" x1="25.39" y1="35.63" x2="25.39" y2="4.63"/><text class="cls-3" transform="translate(0 21.29)">h</text><text class="cls-3" transform="translate(5 21.29)">d</text><text class="cls-3" transform="translate(14.7 46.79)">b</text><line class="cls-2" x1="3.4" y1="40.13" x2="3.4" y2="0.13"/><line class="cls-2" x1="8.4" y1="36.13" x2="8.4" y2="4.13"/><line class="cls-2" x1="10.9" y1="20.13" x2="12.9" y2="20.13"/><line class="cls-2" x1="18.9" y1="20.13" x2="20.9" y2="20.13"/><polygon class="cls-5" points="25.4 3.63 25.65 4.13 25.9 4.63 25.4 4.63 24.9 4.63 25.15 4.13 25.4 3.63"/><polygon class="cls-5" points="17.9 20.13 18.4 19.88 18.9 19.63 18.9 20.13 18.9 20.63 18.4 20.38 17.9 20.13"/><polygon class="cls-5" points="13.9 20.13 13.4 19.88 12.9 19.63 12.9 20.13 12.9 20.63 13.4 20.38 13.9 20.13"/><polygon class="cls-5" points="25.4 36.63 25.65 36.13 25.9 35.63 25.4 35.63 24.9 35.63 25.15 36.13 25.4 36.63"/><line class="cls-2" x1="19.61" y1="5.33" x2="20.9" y2="6.63"/><polygon class="cls-5" points="18.9 4.63 19.43 4.8 19.96 4.98 19.61 5.33 19.25 5.69 19.08 5.16 18.9 4.63"/><line class="cls-2" x1="2.4" y1="40.13" x2="4.4" y2="40.13"/><line class="cls-2" x1="2.4" y1="0.13" x2="4.4" y2="0.13"/><line class="cls-2" x1="5.9" y1="42.63" x2="25.9" y2="42.62"/><line class="cls-2" x1="5.9" y1="41.63" x2="5.9" y2="43.63"/><line class="cls-2" x1="25.9" y1="41.62" x2="25.9" y2="43.62"/></g></g></svg>
