<svg xmlns="http://www.w3.org/2000/svg" width="230" height="230" viewBox="0 0 42.8 47.38"><defs><style>.cls-1{fill:#a0a0a0;}.cls-2{font-size:4px;font-family:RobotoMono-Regular, Roboto Mono;}.cls-2,.cls-4{fill:#2d2d2d;}.cls-3{fill:none;stroke:#2d2d2d;stroke-miterlimit:10;stroke-width:0.25px;}</style></defs><g id="Layer_2" data-name="Layer 2"><g id="Layer_1-2" data-name="Layer 1"><path class="cls-1" d="M6.4,13.25v28a6,6,0,0,0,6,6h18a6,6,0,0,0,6-6v-28a6,6,0,0,0-6-6h-18A6,6,0,0,0,6.4,13.25Zm24,31h-18a3,3,0,0,1-3-3v-28a3,3,0,0,1,3-3h18a3,3,0,0,1,3,3v28A3,3,0,0,1,30.4,44.25Z"/><text class="cls-2" transform="translate(20.2 3.42)">B</text><line class="cls-3" x1="6.4" y1="4.75" x2="36.4" y2="4.75"/><line class="cls-3" x1="6.4" y1="3.75" x2="6.4" y2="5.75"/><line class="cls-3" x1="36.4" y1="3.75" x2="36.4" y2="5.75"/><text class="cls-2" transform="translate(0 28.42)">H</text><line class="cls-3" x1="3.9" y1="47.25" x2="3.9" y2="7.25"/><line class="cls-3" x1="2.9" y1="47.25" x2="4.9" y2="47.25"/><line class="cls-3" x1="2.9" y1="7.25" x2="4.9" y2="7.25"/><line class="cls-3" x1="29.9" y1="27.25" x2="31.9" y2="27.25"/><line class="cls-3" x1="37.9" y1="27.25" x2="39.9" y2="27.25"/><polygon class="cls-4" points="36.9 27.25 37.4 27 37.9 26.75 37.9 27.25 37.9 27.75 37.4 27.5 36.9 27.25"/><polygon class="cls-4" points="32.9 27.25 32.4 27 31.9 26.75 31.9 27.25 31.9 27.75 32.4 27.5 32.9 27.25"/><text class="cls-2" transform="translate(40.4 28.42)">t</text></g></g></svg>
