<svg xmlns="http://www.w3.org/2000/svg" xmlns:xlink="http://www.w3.org/1999/xlink" width="230" height="230" viewBox="0 0 27.31 29.91"><defs><style>.cls-1,.cls-4,.cls-7,.cls-9{fill:none;}.cls-2{font-size:4px;font-family:RobotoMono-Regular, Roboto Mono;}.cls-2,.cls-8{fill:#2d2d2d;}.cls-3{font-size:2px;font-family:RobotoMono-Medium, Roboto Mono;font-weight:500;}.cls-4,.cls-5,.cls-7,.cls-9{stroke:#2d2d2d;stroke-miterlimit:10;}.cls-4,.cls-5,.cls-9{stroke-width:0.25px;}.cls-5{fill:#a0a0a0;}.cls-6{clip-path:url(#clip-path);}.cls-7{stroke-width:0.1px;}.cls-9{stroke-dasharray:1.04 0.78;}</style><clipPath id="clip-path" transform="translate(1.45)"><path class="cls-1" d="M19.7,16.25a6.63,6.63,0,0,1-.07,1A7.51,7.51,0,0,1,13.7,23.6l-.5,2.6c-.33,0-.66.05-1,.05s-.67,0-1-.05l-.5-2.6a7.51,7.51,0,0,1-5.93-6.35,7.18,7.18,0,0,1,0-2A7.51,7.51,0,0,1,10.7,8.9l.5-2.6c.33,0,.66,0,1,0s.67,0,1,0l.5,2.6a7.51,7.51,0,0,1,5.93,6.35A6.63,6.63,0,0,1,19.7,16.25Z"/></clipPath></defs><g id="Layer_2" data-name="Layer 2"><g id="Layer_1-2" data-name="Layer 1"><text class="cls-2" transform="translate(1.45 27.42)">d</text><text class="cls-2" transform="translate(12.45 3.42)">d<tspan class="cls-3" x="2.4" y="0">h</tspan></text><line class="cls-4" x1="3.65" y1="4.75" x2="23.65" y2="4.75"/><line class="cls-4" x1="3.65" y1="3.75" x2="3.65" y2="5.75"/><line class="cls-4" x1="23.65" y1="3.75" x2="23.65" y2="5.75"/><circle class="cls-4" cx="13.65" cy="16.25" r="10"/><circle class="cls-5" cx="13.65" cy="16.25" r="7.5"/><line class="cls-4" x1="21.1" y1="15.25" x2="23.6" y2="15.25"/><line class="cls-4" x1="21.1" y1="17.25" x2="23.6" y2="17.25"/><line class="cls-4" x1="12.15" y1="8.9" x2="12.65" y2="6.3"/><line class="cls-4" x1="15.15" y1="8.9" x2="14.65" y2="6.3"/><line class="cls-4" x1="15.15" y1="23.6" x2="14.65" y2="26.2"/><line class="cls-4" x1="12.15" y1="23.6" x2="12.65" y2="26.2"/><line class="cls-4" x1="6.2" y1="17.25" x2="3.7" y2="17.25"/><line class="cls-4" x1="6.2" y1="15.25" x2="3.7" y2="15.25"/><g class="cls-6"><line class="cls-7" x1="0.04" y1="15.74" x2="14.16" y2="29.87"/><line class="cls-7" x1="1.23" y1="14.55" x2="15.36" y2="28.68"/><line class="cls-7" x1="2.42" y1="13.36" x2="16.55" y2="27.49"/><line class="cls-7" x1="3.61" y1="12.17" x2="17.74" y2="26.3"/><line class="cls-7" x1="4.8" y1="10.98" x2="18.93" y2="25.11"/><line class="cls-7" x1="5.99" y1="9.78" x2="20.12" y2="23.91"/><line class="cls-7" x1="7.19" y1="8.59" x2="21.32" y2="22.72"/><line class="cls-7" x1="8.38" y1="7.4" x2="22.51" y2="21.53"/><line class="cls-7" x1="9.57" y1="6.21" x2="23.7" y2="20.34"/><line class="cls-7" x1="10.76" y1="5.02" x2="24.89" y2="19.15"/><line class="cls-7" x1="11.95" y1="3.83" x2="26.08" y2="17.95"/><line class="cls-7" x1="13.15" y1="2.63" x2="27.27" y2="16.76"/></g><line class="cls-4" x1="18.25" y1="11.66" x2="4.65" y2="25.25"/><polygon class="cls-8" points="18.96 10.95 18.43 11.13 17.9 11.3 18.25 11.66 18.61 12.01 18.78 11.48 18.96 10.95"/><polygon class="cls-8" points="8.35 21.56 8.88 21.38 9.41 21.2 9.06 20.85 8.71 20.5 8.53 21.03 8.35 21.56"/><line class="cls-4" x1="13.65" y1="6.25" x2="13.65" y2="6.75"/><line class="cls-9" x1="13.65" y1="7.53" x2="13.65" y2="25.36"/><line class="cls-4" x1="13.65" y1="25.75" x2="13.65" y2="26.25"/><line class="cls-4" x1="3.65" y1="16.25" x2="4.15" y2="16.25"/><line class="cls-9" x1="4.94" y1="16.25" x2="22.76" y2="16.25"/><line class="cls-4" x1="23.15" y1="16.25" x2="23.65" y2="16.25"/></g></g></svg>
