<svg xmlns="http://www.w3.org/2000/svg" xmlns:xlink="http://www.w3.org/1999/xlink" width="230" height="230" viewBox="0 0 27.31 27.31"><defs><style>.cls-1,.cls-5,.cls-6{fill:none;}.cls-2{font-size:4px;font-family:RobotoMono-Regular, Roboto Mono;}.cls-2,.cls-7{fill:#2d2d2d;}.cls-3{fill:#a0a0a0;}.cls-3,.cls-5,.cls-6{stroke:#2d2d2d;stroke-miterlimit:10;}.cls-3,.cls-6{stroke-width:0.25px;}.cls-4{clip-path:url(#clip-path);}.cls-5{stroke-width:0.1px;}</style><clipPath id="clip-path" transform="translate(1.45 6.03)"><circle class="cls-1" cx="12.2" cy="7.63" r="7.5"/></clipPath></defs><g id="Layer_2" data-name="Layer 2"><g id="Layer_1-2" data-name="Layer 1"><text class="cls-2" transform="translate(1.45 24.82)">d</text><circle class="cls-3" cx="13.65" cy="13.65" r="7.5"/><g class="cls-4"><line class="cls-5" x1="0.04" y1="13.15" x2="14.16" y2="27.27"/><line class="cls-5" x1="1.23" y1="11.95" x2="15.36" y2="26.08"/><line class="cls-5" x1="2.42" y1="10.76" x2="16.55" y2="24.89"/><line class="cls-5" x1="3.61" y1="9.57" x2="17.74" y2="23.7"/><line class="cls-5" x1="4.8" y1="8.38" x2="18.93" y2="22.51"/><line class="cls-5" x1="5.99" y1="7.19" x2="20.12" y2="21.32"/><line class="cls-5" x1="7.19" y1="5.99" x2="21.32" y2="20.12"/><line class="cls-5" x1="8.38" y1="4.8" x2="22.51" y2="18.93"/><line class="cls-5" x1="9.57" y1="3.61" x2="23.7" y2="17.74"/><line class="cls-5" x1="10.76" y1="2.42" x2="24.89" y2="16.55"/><line class="cls-5" x1="11.95" y1="1.23" x2="26.08" y2="15.36"/><line class="cls-5" x1="13.15" y1="0.04" x2="27.27" y2="14.16"/></g><line class="cls-6" x1="18.25" y1="9.06" x2="4.65" y2="22.65"/><polygon class="cls-7" points="18.96 8.35 18.43 8.53 17.9 8.71 18.25 9.06 18.61 9.41 18.78 8.88 18.96 8.35"/><polygon class="cls-7" points="8.35 18.96 8.88 18.78 9.41 18.61 9.06 18.25 8.71 17.9 8.53 18.43 8.35 18.96"/></g></g></svg>
