<svg xmlns="http://www.w3.org/2000/svg" width="230" height="230" viewBox="0 0 50.55 53.45"><defs><style>.cls-1{fill:#a0a0a0;}.cls-2{fill:none;stroke:#2d2d2d;stroke-miterlimit:10;stroke-width:0.25px;}.cls-3{font-size:4px;font-family:RobotoMono-Regular, Roboto Mono;}.cls-3,.cls-4{fill:#2d2d2d;}</style></defs><g id="Layer_2" data-name="Layer 2"><g id="Layer_1-2" data-name="Layer 1"><path class="cls-1" d="M24.4,47.25v-34a3,3,0,0,0-3-3H5.9v-3h40v3H30.4a3,3,0,0,0-3,3v34Z"/><line class="cls-2" x1="47.4" y1="10.25" x2="47.4" y2="7.25"/><text class="cls-3" transform="translate(48.15 9.55)">s</text><line class="cls-2" x1="24.4" y1="48.75" x2="27.4" y2="48.75"/><text class="cls-3" transform="translate(24.7 52.37)">t</text><text class="cls-3" transform="translate(0 28.42)">h</text><line class="cls-2" x1="3.4" y1="47.25" x2="3.4" y2="7.25"/><line class="cls-2" x1="2.4" y1="47.25" x2="4.4" y2="47.25"/><line class="cls-2" x1="2.4" y1="7.25" x2="4.4" y2="7.25"/><text class="cls-3" transform="translate(24.7 3.42)">b</text><line class="cls-2" x1="5.9" y1="4.75" x2="45.9" y2="4.75"/><line class="cls-2" x1="5.9" y1="3.75" x2="5.9" y2="5.75"/><line class="cls-2" x1="45.9" y1="3.75" x2="45.9" y2="5.75"/><text class="cls-3" transform="translate(31.4 15.34)">r</text><line class="cls-2" x1="29.61" y1="12.46" x2="30.9" y2="13.75"/><polygon class="cls-4" points="28.9 11.75 29.43 11.93 29.96 12.11 29.61 12.46 29.25 12.81 29.08 12.28 28.9 11.75"/></g></g></svg>
