<svg xmlns="http://www.w3.org/2000/svg"  width="270" height="270" viewBox="0 0 46.43 47.38"><defs><style>.cls-1{fill:#a0a0a0;}.cls-2{fill:none;stroke:#2d2d2d;stroke-miterlimit:10;stroke-width:0.25px;}.cls-3{font-size:4px;}.cls-3,.cls-4,.cls-5{fill:#2d2d2d;}.cls-3,.cls-5{font-family:RobotoMono-Regular, Roboto Mono;}.cls-5{font-size:3px;}</style></defs><g id="Layer_2" data-name="Layer 2"><g id="Layer_1-2" data-name="Layer 1"><path class="cls-1" d="M7.3.13h-1l0,40h25v-1a3,3,0,0,0-3-3h-18v-33A3,3,0,0,0,7.3.13Z"/><line class="cls-2" x1="3.8" y1="0.13" x2="3.8" y2="40.04"/><line class="cls-2" x1="4.8" y1="0.13" x2="2.8" y2="0.13"/><line class="cls-2" x1="2.8" y1="40.04" x2="4.8" y2="40.04"/><text class="cls-3" transform="translate(0 21.25)">a</text><polyline class="cls-2" points="6.3 41.63 6.3 42.63 6.3 43.63"/><line class="cls-2" x1="31.3" y1="42.63" x2="6.3" y2="42.63"/><line class="cls-2" x1="31.3" y1="41.63" x2="31.3" y2="43.63"/><text class="cls-3" transform="translate(17 46.79)">b</text><line class="cls-2" x1="6.3" y1="6.13" x2="10.3" y2="6.13"/><polygon class="cls-4" points="11.3 6.13 10.8 6.38 10.3 6.63 10.3 6.13 10.3 5.63 10.8 5.88 11.3 6.13"/><polygon class="cls-4" points="5.3 6.13 5.8 6.38 6.3 6.63 6.3 6.13 6.3 5.63 5.8 5.88 5.3 6.13"/><text class="cls-5" transform="translate(7.4 9.02)">t</text><line class="cls-2" x1="25.3" y1="40.13" x2="25.3" y2="36.13"/><polygon class="cls-4" points="25.31 35.13 25.56 35.63 25.81 36.13 25.31 36.13 24.81 36.13 25.06 35.63 25.31 35.13"/><polygon class="cls-4" points="25.31 41.13 25.56 40.63 25.81 40.13 25.31 40.13 24.81 40.13 25.06 40.63 25.31 41.13"/><text class="cls-5" transform="translate(22.91 39)">t</text></g></g></svg>
