<svg xmlns="http://www.w3.org/2000/svg"  width="270" height="270" viewBox="0 0 30.3 50.25"><defs><style>.cls-1{font-size:4px;font-family:RobotoMono-Regular, Roboto Mono;}.cls-1,.cls-4{fill:#2d2d2d;}.cls-2{font-size:2px;font-family:RobotoMono-Medium, Roboto Mono;font-weight:500;}.cls-3{fill:none;stroke:#2d2d2d;stroke-miterlimit:10;stroke-width:0.25px;}.cls-5{fill:#a0a0a0;}</style></defs><g id="Layer_2" data-name="Layer 2"><g id="Layer_1-2" data-name="Layer 1"><text class="cls-1" transform="translate(13 33.92)">t<tspan class="cls-2" x="2.4" y="0">w</tspan></text><line class="cls-3" x1="2.4" y1="32.75" x2="4.4" y2="32.75"/><line class="cls-3" x1="10.4" y1="32.75" x2="12.4" y2="32.75"/><polygon class="cls-4" points="9.4 32.75 9.9 32.5 10.4 32.25 10.4 32.75 10.4 33.25 9.9 33 9.4 32.75"/><polygon class="cls-4" points="5.4 32.75 4.9 32.5 4.4 32.25 4.4 32.75 4.4 33.25 4.9 33 5.4 32.75"/><text class="cls-1" transform="translate(13 39)">t<tspan class="cls-2" x="2.4" y="0">f</tspan></text><line class="cls-3" x1="14.9" y1="50.25" x2="14.9" y2="48.25"/><line class="cls-3" x1="14.9" y1="42" x2="14.9" y2="40"/><polygon class="cls-4" points="14.9 43 14.65 42.5 14.4 42 14.9 42 15.4 42 15.15 42.5 14.9 43"/><polygon class="cls-4" points="14.9 47.25 14.65 47.75 14.4 48.25 14.9 48.25 15.4 48.25 15.15 47.75 14.9 47.25"/><text class="cls-1" transform="translate(0 27.92)">h</text><line class="cls-3" x1="3.4" y1="46.75" x2="3.4" y2="6.75"/><line class="cls-3" x1="2.4" y1="46.75" x2="4.4" y2="46.75"/><line class="cls-3" x1="2.4" y1="6.75" x2="4.4" y2="6.75"/><text class="cls-1" transform="translate(20.9 27.92)">d</text><line class="cls-3" x1="19.8" y1="42.75" x2="19.8" y2="10.75"/><line class="cls-3" x1="18.8" y1="10.75" x2="20.8" y2="10.75"/><line class="cls-3" x1="18.8" y1="42.75" x2="20.8" y2="42.75"/><text class="cls-1" transform="translate(12.2 3.42)">b</text><line class="cls-3" x1="5.9" y1="4.75" x2="20.9" y2="4.75"/><line class="cls-3" x1="5.9" y1="3.75" x2="5.9" y2="5.75"/><line class="cls-3" x1="20.9" y1="3.75" x2="20.9" y2="5.75"/><path class="cls-5" d="M20.9,6.75H5.9v40h15a2.83,2.83,0,0,0-2.48-2.81l-6.89-.86a3,3,0,0,1-2.63-3V13.4a3,3,0,0,1,2.63-3l6.89-.86A2.82,2.82,0,0,0,20.9,6.75Z"/><text class="cls-1" transform="translate(12.9 15.34)">r</text><line class="cls-3" x1="11.11" y1="12.46" x2="12.4" y2="13.75"/><polygon class="cls-4" points="10.4 11.75 10.93 11.93 11.46 12.11 11.11 12.46 10.75 12.81 10.58 12.28 10.4 11.75"/></g></g></svg>
