<svg id="Group_1441" data-name="Group 1441" xmlns="http://www.w3.org/2000/svg" width="22.522" height="17.364" viewBox="0 0 22.522 17.364">
  <path id="Path_2288" data-name="Path 2288" d="M-1623.453,445.161h-21.2a1.4,1.4,0,0,1-.172-.008.334.334,0,0,1-.01-.067h0q0-7.334,0-14.668v-1.482a.379.379,0,0,0-.379-.379.379.379,0,0,0-.38.379h0v1.482q0,7.334,0,14.667h0a1.11,1.11,0,0,0,.038.274c.018.071.033.122.04.158a.38.38,0,0,0,.184.256,1.073,1.073,0,0,0,.365.125,1.955,1.955,0,0,0,.313.021h21.2a.379.379,0,0,0,.379-.379A.379.379,0,0,0-1623.453,445.161Z" transform="translate(1645.595 -428.557)" fill="#777"/>
  <path id="Path_2289" data-name="Path 2289" d="M-1600.565,501.1h0a4.166,4.166,0,0,1-1.491-.357,3.974,3.974,0,0,1-1.236-.89,3.7,3.7,0,0,1-.681-1.04,9.837,9.837,0,0,1-.444-1.246c-.291-.964-.529-1.963-.868-2.953a11.587,11.587,0,0,0-.463-1.176,5.666,5.666,0,0,0-.68-1.118,3.847,3.847,0,0,0-.808-.779,2.871,2.871,0,0,0-1.075-.463,4.575,4.575,0,0,0-.917-.1,3.282,3.282,0,0,0-1.588.387,3.612,3.612,0,0,0-1.234,1.142,9.708,9.708,0,0,0-1.215,2.764c-.311,1.014-.55,2.027-.882,2.992a5,5,0,0,1-.492,1.05,3.71,3.71,0,0,1-.738.857,4.118,4.118,0,0,1-1.743.851,3.485,3.485,0,0,1-.82.078l-.23,0a.379.379,0,0,0-.386.372.38.38,0,0,0,.372.386l.244,0a4.225,4.225,0,0,0,1-.1,4.878,4.878,0,0,0,2.057-1.011,4.468,4.468,0,0,0,.888-1.03,5.761,5.761,0,0,0,.568-1.209c.347-1.012.588-2.034.889-3.015a9,9,0,0,1,1.113-2.554,2.852,2.852,0,0,1,.973-.908,2.519,2.519,0,0,1,1.226-.3,3.814,3.814,0,0,1,.765.082,2.11,2.11,0,0,1,.793.342,3.089,3.089,0,0,1,.647.628,4.909,4.909,0,0,1,.588.97,10.842,10.842,0,0,1,.432,1.1c.324.944.561,1.933.86,2.925a10.528,10.528,0,0,0,.48,1.342,4.458,4.458,0,0,0,.822,1.249,4.734,4.734,0,0,0,1.471,1.057,4.923,4.923,0,0,0,1.76.424.38.38,0,0,0,.4-.356A.379.379,0,0,0-1600.565,501.1Z" transform="translate(1621.372 -489.082)" fill="#777"/>
</svg>
