<svg xmlns="http://www.w3.org/2000/svg" width="22.782" height="24.451" viewBox="0 0 22.782 24.451">
  <g id="Group_1374" data-name="Group 1374" transform="translate(-263.901 -477.066)">
    <path id="Path_2216" data-name="Path 2216" d="M284.826,487.541a8.671,8.671,0,0,0-2.837-6.367,10.285,10.285,0,0,0-13.8,0,8.564,8.564,0,0,0,0,12.735,10.1,10.1,0,0,0,6.9,2.658,1.026,1.026,0,0,1,.49.119.946.946,0,0,1,.359.345,1.481,1.481,0,0,1,.18.771,6.6,6.6,0,0,1-.174,1.255c-.024.113-.047.222-.068.327a17.854,17.854,0,0,0,6.446-5.326A11.523,11.523,0,0,0,284.826,487.541Zm-8.955,3.973h-4.464V490.36h4.464Zm3.593-3.065h-8.057V487.3h8.057Zm0-3.063h-8.057v-1.153h8.057Z" transform="translate(0.203 0.203)" fill="transparent" stroke="rgba(0,0,0,0)" stroke-width="1"/>
    <path id="Path_2217" data-name="Path 2217" d="M282.978,480.533a11.438,11.438,0,0,0-15.372,0,9.716,9.716,0,0,0,0,14.424,11.247,11.247,0,0,0,7.558,2.96l0,.087a5.666,5.666,0,0,1-.151,1.021,6.337,6.337,0,0,0-.174,1.123,1.027,1.027,0,0,0,.1.48.713.713,0,0,0,.64.389l.274-.046.028-.01.027-.012a19.042,19.042,0,0,0,7.539-6,12.628,12.628,0,0,0,2.728-7.2A9.825,9.825,0,0,0,282.978,480.533Zm-6.9,19.053c.021-.1.044-.214.068-.327a6.6,6.6,0,0,0,.174-1.255,1.481,1.481,0,0,0-.18-.771.946.946,0,0,0-.359-.345,1.026,1.026,0,0,0-.491-.119,10.1,10.1,0,0,1-6.9-2.658,8.563,8.563,0,0,1,0-12.735,10.285,10.285,0,0,1,13.8,0,8.671,8.671,0,0,1,2.837,6.367,11.523,11.523,0,0,1-2.5,6.516A17.853,17.853,0,0,1,276.081,499.587Z" transform="translate(0 0)" stroke="rgba(0,0,0,0)" stroke-width="1"/>
    <rect id="Rectangle_721" data-name="Rectangle 721" width="8.057" height="1.153" transform="translate(271.61 484.436)" stroke="rgba(0,0,0,0)" stroke-width="1"/>
    <rect id="Rectangle_722" data-name="Rectangle 722" width="8.057" height="1.153" transform="translate(271.61 487.498)" stroke="rgba(0,0,0,0)" stroke-width="1"/>
    <rect id="Rectangle_723" data-name="Rectangle 723" width="4.464" height="1.153" transform="translate(271.61 490.563)" stroke="rgba(0,0,0,0)" stroke-width="1"/>
  </g>
</svg>
