<svg xmlns="http://www.w3.org/2000/svg" width="17.795" height="13.077" viewBox="0 0 17.795 13.077">
  <g id="Group_1190" data-name="Group 1190" transform="translate(0.5 0.5)">
    <path id="Path_1689" data-name="Path 1689" d="M1602.506-55.278c-.026.093-.05.187-.077.28a2.1,2.1,0,0,1-2.024,1.523q-6.29,0-12.579,0a2.091,2.091,0,0,1-2.115-2.123q0-3.912,0-7.823a2.092,2.092,0,0,1,2.131-2.123c4.166,0,8.332.009,12.5-.006a2.144,2.144,0,0,1,2.137,1.753.2.2,0,0,0,.029.056Zm-8.406.755h6.248a1.06,1.06,0,0,0,1.109-1.1q0-3.887,0-7.773a1.059,1.059,0,0,0-1.108-1.1h-12.43a1.065,1.065,0,0,0-1.158,1.149q0,3.837,0,7.675a1.065,1.065,0,0,0,1.157,1.15Z" transform="translate(-1585.711 65.55)" stroke="rgba(0,0,0,0)" stroke-width="1"/>
    <path id="Path_1690" data-name="Path 1690" d="M1655.944,18.944l3.494-2.856c.626-.512,1.257-1.018,1.876-1.538a.465.465,0,0,1,.748.075.5.5,0,0,1-.108.723l-4.656,3.811q-.5.4-.99.81a.559.559,0,0,1-.829.005c-1.873-1.533-3.743-3.071-5.625-4.593a.6.6,0,0,1-.1-.8.526.526,0,0,1,.783-.048q2.21,1.8,4.418,3.609Z" transform="translate(-1647.547 -11.752)" stroke="rgba(0,0,0,0)" stroke-width="1"/>
  </g>
</svg>
