<svg xmlns="http://www.w3.org/2000/svg" width="16.44" height="12.999" viewBox="0 0 16.44 12.999">
  <g id="Component_678_2" data-name="Component 678 – 2" transform="translate(0.5 0.5)">
    <path id="Path_1795" data-name="Path 1795" d="M401.99,495.951c-.745,0-1.491-.007-2.236-.007H386.615v-.173q0-3.378,0-6.756c0-.1.011-.161.119-.2q2.966-1.175,5.929-2.358c.028-.011.056-.02.1-.036l.312.609-4.86,1.81,0,.017h13.672l.006-.017-5.7-1.795v-.029c.3-.078.611-.15.914-.238a.8.8,0,0,1,.507.014c1.455.5,2.913.983,4.37,1.473Zm-5.538-.944V490.4l.3-.014v-.583h-.9v5.2Zm-7.069-5.207v5.206h.605v-4.6l.307-.019V489.8Zm2.768,5.206v-4.6l.307-.019V489.8h-.912v5.2Zm-3.69-5.2h-.911v5.2h.6V490.4c.065,0,.11,0,.155,0,.112.011.164-.026.155-.15C388.453,490.1,388.461,489.959,388.461,489.8Zm5.243,0v5.205h.6v-4.6l.295-.015V489.8Zm4.3,0v5.206h.6v-4.6a1.428,1.428,0,0,0,.223-.014c.032-.007.081-.049.082-.077.008-.168,0-.337,0-.514Zm2.762,5.207v-4.6l.289-.015V489.8h-.9v5.2Z" transform="translate(-386.614 -483.955)" stroke="rgba(0,0,0,0)" stroke-width="1"/>
    <path id="Path_1796" data-name="Path 1796" d="M611.516,404.591h1.561c-.1.3-.183.576-.276.853-.048.142-.117.277-.159.42a1.275,1.275,0,0,1-.49.663c-.076.058-.15.117-.22.181a.561.561,0,0,0-.188.555.47.47,0,0,0,.439.4.513.513,0,0,0,.6-.287,3.21,3.21,0,0,0,.109-.334h.751a1.167,1.167,0,0,1-.888,1.222,1.7,1.7,0,0,1-1.5-.276,1.051,1.051,0,0,1-.1-1.509,6.053,6.053,0,0,1,.481-.407c.22-.179.246-.261.161-.527s-.168-.533-.251-.8C611.538,404.7,611.531,404.655,611.516,404.591Z" transform="translate(-604.139 -404.591)" stroke="rgba(0,0,0,0)" stroke-width="1"/>
  </g>
</svg>
