<svg xmlns="http://www.w3.org/2000/svg" width="13.781" height="12.732" viewBox="0 0 13.781 12.732">
  <g id="Component_677_3" data-name="Component 677 – 3" transform="translate(0.5 0.501)">
    <path id="Path_1778" data-name="Path 1778" d="M-1101.271-1378.064v-.913h1.076v-.213q0-3.869,0-7.738a.509.509,0,0,1,.325-.52q2.357-1.129,4.707-2.275a.618.618,0,0,1,.578,0q2.366,1.148,4.734,2.288a.472.472,0,0,1,.3.476q-.006,3.854,0,7.707v.264h1.071v.923Zm8.316-4.419h-3.847v3.492h3.847Zm-5.641-3.788v.65h1.971v-.65Zm4.707,0h-1.979v.652h1.979Zm.753.661c.642,0,1.276,0,1.909,0a.1.1,0,0,0,.074-.071c.006-.194,0-.388,0-.587h-1.986Zm-2.729.759v.651h1.976v-.651Zm-2.734,0v.65h1.977v-.65Zm5.464,0v.656h1.973v-.656Z" transform="translate(1101.271 1389.795)" stroke="rgba(0,0,0,0)" stroke-width="1"/>
  </g>
</svg>
