<svg xmlns="http://www.w3.org/2000/svg" width="16.182" height="16.184" viewBox="0 0 16.182 16.184">
  <g id="Group_1191" data-name="Group 1191" transform="translate(0.5 0.5)">
    <path id="Path_1692" data-name="Path 1692" d="M845.367,851.113h-4.038a.705.705,0,0,1-.783-.776q0-2.682,0-5.363a.7.7,0,0,1,.773-.77h8.125a.7.7,0,0,1,.759.751q0,2.706,0,5.412a.7.7,0,0,1-.748.745Z" transform="translate(-837.783 -835.929)" stroke="rgba(0,0,0,0)" stroke-width="1"/>
    <path id="Path_1693" data-name="Path 1693" d="M769.04,722.634c0-.459.012-.9,0-1.34a2.622,2.622,0,0,0-.11-.7,2.027,2.027,0,0,0-1.942-1.406q-4.144,0-8.289,0a2.057,2.057,0,0,0-2.064,2.046c-.006.457,0,.914,0,1.407a6.736,6.736,0,0,1-.888-.047.663.663,0,0,1-.5-.707q0-1.955,0-3.911c0-.269,0-.539,0-.808a.7.7,0,0,1,.744-.753h13.7a.7.7,0,0,1,.735.729q0,2.375,0,4.751a.691.691,0,0,1-.711.733C769.494,722.638,769.275,722.634,769.04,722.634Z" transform="translate(-755.243 -712.281)" stroke="rgba(0,0,0,0)" stroke-width="1"/>
    <path id="Path_1694" data-name="Path 1694" d="M840.876,591.386c0-.746-.019-1.482.009-2.217a.656.656,0,0,1,.716-.544h8.109a.712.712,0,0,1,.807.8q0,.889,0,1.777v.183Z" transform="translate(-838.097 -588.624)" stroke="rgba(0,0,0,0)" stroke-width="1"/>
  </g>
</svg>
