<svg xmlns="http://www.w3.org/2000/svg" width="18.062" height="15.913" viewBox="0 0 18.062 15.913">
  <path id="Path_2343" data-name="Path 2343" d="M-688.549-549.522l-.653-.543c-.49-.407-1-.828-1.49-1.247a50.108,50.108,0,0,1-4.468-4.112,8.747,8.747,0,0,1-2.034-3.071,5.317,5.317,0,0,1,.3-4.6,4.733,4.733,0,0,1,4.067-2.329,4.738,4.738,0,0,1,.568.034,5.335,5.335,0,0,1,3.316,1.818c.1.109.2.214.3.318l.021.022.029.006.026,0,.041.008.035-.033c.12-.115.238-.232.351-.345.246-.244.478-.475.733-.686a4.742,4.742,0,0,1,3.107-1.161,4.742,4.742,0,0,1,3.585,1.635,4.743,4.743,0,0,1,.682,1.033,5.4,5.4,0,0,1-.053,4.719,10.117,10.117,0,0,1-2.136,2.925,63.462,63.462,0,0,1-5,4.493c-.241.2-.482.4-.724.6Zm-4.251-15.113a3.951,3.951,0,0,0-3,1.377,4.01,4.01,0,0,0-.531.8,4.554,4.554,0,0,0-.028,3.886,8.614,8.614,0,0,0,1.842,2.658,51.016,51.016,0,0,0,4.29,3.944c.4.34.788.668,1.2,1.016l.475.4.06-.05.468-.391c.3-.254.592-.493.883-.741a54.03,54.03,0,0,0,4.55-4.159,8.681,8.681,0,0,0,1.836-2.63,4.6,4.6,0,0,0,.032-3.84,3.986,3.986,0,0,0-3.583-2.262,3.928,3.928,0,0,0-1.7.386,3.963,3.963,0,0,0-.886.578,15.428,15.428,0,0,0-1.248,1.27c-.111.114-.214.235-.324.363l-.084.1,0-.005c-.042-.05-.079-.093-.12-.135a18.6,18.6,0,0,0-1.555-1.6A3.954,3.954,0,0,0-692.8-564.634Z" transform="translate(697.577 565.435)" fill="#777"/>
</svg>
