<svg xmlns="http://www.w3.org/2000/svg" width="14.685" height="15.188" viewBox="0 0 14.685 15.188">
  <g id="Component_680_2" data-name="Component 680 – 2" transform="translate(0.5 0.5)">
    <path id="Path_1798" data-name="Path 1798" d="M119.925,303.979c1.662,0,3.324,0,4.985,0a.768.768,0,0,1,.587.244c.721.728,1.448,1.449,2.172,2.174a.59.59,0,0,1,0,.888c-.739.744-1.484,1.482-2.222,2.226a.719.719,0,0,1-.552.2c-1.084,0-2.168,0-3.252,0l-6.683,0c-.509,0-.722-.219-.722-.733,0-1.43.006-2.859,0-4.289a.656.656,0,0,1,.7-.707C116.6,303.987,118.264,303.979,119.925,303.979Z" transform="translate(-114.236 -301.031)" stroke="rgba(0,0,0,0)" stroke-width="1"/>
    <path id="Path_1799" data-name="Path 1799" d="M219.2,485.855c0,.4,0,.768,0,1.137,0,1.137,0,2.275,0,3.412,0,.148-.042.194-.191.193-.673-.007-1.346,0-2.019,0-.064,0-.128-.008-.216-.014,0-.374,0-.736,0-1.1,0-1.137,0-2.275,0-3.412,0-.174.047-.221.22-.218.655.01,1.31,0,1.965,0Z" transform="translate(-213.107 -476.409)" stroke="rgba(0,0,0,0)" stroke-width="1"/>
    <path id="Path_1800" data-name="Path 1800" d="M218.015,223.855c-.339,0-.678-.005-1.017,0-.135,0-.193-.031-.187-.177.01-.261,0-.523,0-.785a1.208,1.208,0,0,1,2.417-.032c.012.285,0,.571.005.856,0,.117-.051.137-.152.136C218.729,223.852,218.372,223.855,218.015,223.855Z" transform="translate(-213.144 -221.675)" stroke="rgba(0,0,0,0)" stroke-width="1"/>
  </g>
</svg>
