<svg xmlns="http://www.w3.org/2000/svg" width="21.426" height="21.433" viewBox="0 0 21.426 21.433">
  <g id="Group_1378" data-name="Group 1378" transform="translate(-327.228 -483.702)">
    <path id="Path_2221" data-name="Path 2221" d="M337.936,504.635a10.215,10.215,0,1,1,.006,0Zm-.024-19.154a8.968,8.968,0,1,0,.008,0Z" transform="translate(0)" stroke="rgba(0,0,0,0)" stroke-width="1"/>
    <path id="Path_2222" data-name="Path 2222" d="M341.543,498.02a.863.863,0,0,1-.518-.173c-.9-.868-1.8-1.762-2.658-2.657a.86.86,0,0,1-.2-.542c-.013-.737-.012-1.478-.01-2.219V488.8c0-.454.251-.747.637-.747s.644.289.645.751v1.346c0,1.3,0,2.591-.008,3.886a.933.933,0,0,0,.319.755c.571.549,1.129,1.112,1.688,1.676l.447.45a.623.623,0,0,1,.189.676.535.535,0,0,1-.488.424Z" transform="translate(-0.856 -0.316)" stroke="rgba(0,0,0,0)" stroke-width="1"/>
  </g>
</svg>
