<svg xmlns="http://www.w3.org/2000/svg" width="17.611" height="17.931" viewBox="0 0 17.611 17.931">
  <path id="Path_2392" data-name="Path 2392" d="M8.806,17.931a8.887,8.887,0,0,0,8.806-8.966A8.887,8.887,0,0,0,8.806,0,8.887,8.887,0,0,0,0,8.966,8.887,8.887,0,0,0,8.806,17.931ZM9.83,7.383,7.309,7.7l-.09.426.5.093c.323.079.387.2.317.525l-.812,3.887c-.213,1.005.115,1.478.889,1.478a2.259,2.259,0,0,0,1.612-.67l.1-.466a1.206,1.206,0,0,1-.755.275c-.3,0-.413-.216-.335-.6ZM8.806,6.164A1.121,1.121,0,1,0,7.7,5.043,1.111,1.111,0,0,0,8.806,6.164Z" fill="#000000" fill-rule="evenodd"/>
</svg>
