<svg xmlns="http://www.w3.org/2000/svg" width="23.159" height="20.676" viewBox="0 0 23.159 20.676">
  <g id="Path_1482" data-name="Path 1482" transform="translate(0.536 0.502)">
    <path id="Path_1482-2" data-name="Path 1482" d="M338.268,465.287c.45-.43.859-.873,1.319-1.253a5.854,5.854,0,0,1,9.1,1.862,6.684,6.684,0,0,1-.064,5.812,12.4,12.4,0,0,1-2.609,3.573,76.637,76.637,0,0,1-6.06,5.445c-.554.465-1.112.925-1.679,1.4-.891-.744-1.784-1.479-2.667-2.228a60.54,60.54,0,0,1-5.417-4.985,10.767,10.767,0,0,1-2.486-3.755,6.578,6.578,0,0,1,.373-5.659,5.823,5.823,0,0,1,5.723-2.835,6.577,6.577,0,0,1,4.087,2.24q.177.192.356.381C338.254,465.287,338.263,465.286,338.268,465.287Zm.009,15.289c.556-.466,1.1-.914,1.635-1.37a65.088,65.088,0,0,0,5.5-5.027,10.443,10.443,0,0,0,2.2-3.151,5.459,5.459,0,0,0,.039-4.556,4.686,4.686,0,0,0-7.293-1.532,18.462,18.462,0,0,0-1.5,1.526c-.2.206-.38.429-.579.655-.092-.105-.158-.188-.231-.264a22.374,22.374,0,0,0-1.877-1.932,4.672,4.672,0,0,0-6.588.5,4.729,4.729,0,0,0-.628.942,5.415,5.415,0,0,0-.032,4.606,10.361,10.361,0,0,0,2.207,3.184,61.381,61.381,0,0,0,5.186,4.767C336.959,479.477,337.612,480.018,338.277,480.576Z" transform="translate(-327.236 -462.603)" fill="#030504" stroke="rgba(0,0,0,0)" stroke-width="1"/>
  </g>
</svg>
