<svg xmlns="http://www.w3.org/2000/svg" width="22.29" height="22.468" viewBox="0 0 22.29 22.468">
  <g id="Group_1372" data-name="Group 1372" transform="translate(0.502 0.5)">
    <path id="Path_2210" data-name="Path 2210" d="M306.635,418.185v8.622a9.074,9.074,0,0,1-1.767,5.412l-.093.143-.007.016H310.9c2.913,0,6.35,0,9.743.01h0a.8.8,0,0,0,.683-.336,8.148,8.148,0,0,0,1.923-5.323V413.047H306.635Zm2.278-.967a.5.5,0,0,1,.471-.4c.1-.007.19-.007.3-.007H320.3l.2.007a.519.519,0,0,1,.5.521.531.531,0,0,1-.45.532l-.16.015H309.55a.69.69,0,0,1-.563-.25A.468.468,0,0,1,308.914,417.218Zm.469,4.519.166-.01h10.792l.225.023a.512.512,0,0,1,.427.553.5.5,0,0,1-.454.492,2.417,2.417,0,0,1-.337.018H309.628l-.242-.012a.542.542,0,0,1-.5-.527A.559.559,0,0,1,309.382,421.736Z" transform="translate(-303.036 -411.97)" fill="none" stroke="rgba(0,0,0,0)" stroke-width="1"/>
    <path id="Path_2211" data-name="Path 2211" d="M324.623,418.378v-5.493c0-.568-.155-.727-.727-.727H306.6c-.58,0-.727.153-.727.745V426.72a8.149,8.149,0,0,1-2.3,5.923.649.649,0,0,0-.229.479.736.736,0,0,0,.339.492l.013.012h18.064l.014-.015a8.557,8.557,0,0,0,2.357-3.623,9.165,9.165,0,0,0,.5-3.109C324.623,422.835,324.623,422.356,324.623,418.378Zm-1.074-.011v8.549a8.147,8.147,0,0,1-1.923,5.323.8.8,0,0,1-.683.336h0c-3.393-.008-6.83-.01-9.743-.01h-6.128l.007-.016.093-.143a9.075,9.075,0,0,0,1.767-5.412v-13.76h16.611Z" transform="translate(-303.338 -412.158)" fill="#030504" stroke="rgba(0,0,0,0)" stroke-width="1"/>
    <path id="Path_2212" data-name="Path 2212" d="M308.666,421.284l.242.012h10.573a2.416,2.416,0,0,0,.337-.018.5.5,0,0,0,.454-.492.512.512,0,0,0-.427-.553l-.225-.023H308.828l-.166.01a.559.559,0,0,0-.492.537A.541.541,0,0,0,308.666,421.284Z" transform="translate(-302.315 -408.453)" fill="#030504" stroke="rgba(0,0,0,0)" stroke-width="1"/>
    <path id="Path_2213" data-name="Path 2213" d="M308.829,417.229h10.837l.16-.015a.532.532,0,0,0,.45-.532.519.519,0,0,0-.5-.521l-.2-.007H308.967c-.113,0-.207,0-.3.007a.5.5,0,0,0-.471.4.468.468,0,0,0,.073.419A.69.69,0,0,0,308.829,417.229Z" transform="translate(-302.315 -409.312)" fill="#030504" stroke="rgba(0,0,0,0)" stroke-width="1"/>
  </g>
</svg>
