<svg xmlns="http://www.w3.org/2000/svg" width="16.04" height="18.954" viewBox="0 0 16.04 18.954">
  <path id="Path_1688" data-name="Path 1688" d="M2787.611-1230.022a7.622,7.622,0,0,1-2.182,5.5c-1.644,1.666-3.307,3.313-4.962,4.968a.468.468,0,0,1-.77,0c-1.631-1.631-3.267-3.256-4.89-4.895a7.388,7.388,0,0,1-2.2-6.079,7.521,7.521,0,0,1,6.037-6.632,7.494,7.494,0,0,1,8.784,5.795A13.323,13.323,0,0,1,2787.611-1230.022Zm-10.562-.172a3.044,3.044,0,0,0,3.014,3.045,3.042,3.042,0,0,0,3.056-3.044,3.027,3.027,0,0,0-3-3.027A3.028,3.028,0,0,0,2777.048-1230.194Z" transform="translate(-2772.072 1237.808)" stroke="rgba(0,0,0,0)" stroke-width="1"/>
</svg>
