<svg xmlns="http://www.w3.org/2000/svg" width="20.947" height="25.665" viewBox="0 0 20.947 25.665">
  <g id="Component_686_16" data-name="Component 686 – 16" transform="translate(0.504 0.5)">
    <path id="Path_2218" data-name="Path 2218" d="M315.815,525.65c-.224,0-.467-.158-.763-.5-1.041-1.213-2.1-2.4-3.16-3.6l-.08-.088c-1.227-1.392-2.441-2.768-3.644-4.167a9.3,9.3,0,0,1-2.26-5.5,9.956,9.956,0,0,1,7.715-10.528l.16-.036a10.43,10.43,0,0,1,2.2-.246,8.785,8.785,0,0,1,2.4.327,9.88,9.88,0,0,1,1.489.541,9.718,9.718,0,0,1,1.359.761,11.147,11.147,0,0,1,1.248.958,12.778,12.778,0,0,1,1.071,1.141,12.439,12.439,0,0,1,.888,1.3A10.187,10.187,0,0,1,325.571,509a9.807,9.807,0,0,1-2.422,8.694l-2.836,3.2c-1.248,1.408-2.493,2.812-3.724,4.231C316.293,525.479,316.04,525.65,315.815,525.65Zm0-23.423a8.723,8.723,0,0,0-6.631,14.373c.766.895,1.544,1.777,2.323,2.649l1,1.125,2.03,2.31,1.127,1.266.116.111,2.3-2.5,1.09-1.235c1.091-1.235,2.181-2.468,3.251-3.722a8.23,8.23,0,0,0,1.988-6.995A8.649,8.649,0,0,0,315.815,502.227Z" transform="translate(-305.872 -500.985)" stroke="rgba(0,0,0,0)" stroke-width="1"/>
    <path id="Path_2219" data-name="Path 2219" d="M314.887,513.33a3.231,3.231,0,1,1,.023,0Zm-.036-5.3a2.073,2.073,0,0,0-2.049,2.063,2.1,2.1,0,0,0,2.085,2.085,2.066,2.066,0,0,0,1.48-.616,2.035,2.035,0,0,0,.594-1.459,2.085,2.085,0,0,0-2.063-2.072Z" transform="translate(-304.945 -500.039)" stroke="rgba(0,0,0,0)" stroke-width="1"/>
  </g>
</svg>
