<svg xmlns="http://www.w3.org/2000/svg" width="25.457" height="16.85" viewBox="0 0 25.457 16.85">
  <g id="Group_1373" data-name="Group 1373" transform="translate(-304.455 -435.681)">
    <path id="Path_2214" data-name="Path 2214" d="M305.429,451.98a.471.471,0,0,1-.441-.4.476.476,0,0,1,0-.143V436.745c0-.382.178-.552.577-.554h8.8c2.28,0,4.023,0,5.651-.01h.03a.841.841,0,0,1,.581.181.82.82,0,0,1,.155.6c-.025.723-.021,1.453-.016,2.157v1.091a1.151,1.151,0,0,1-.052.383.459.459,0,0,1-.426.28l-.116-.009a.481.481,0,0,1-.389-.473v-3.144l-13.741-.063-.063,13.717,13.743.063.062-1v-2.183a.46.46,0,0,1,.334-.468.509.509,0,0,1,.161-.027h0a.442.442,0,0,1,.384.2.7.7,0,0,1,.1.341c.009,1.244.01,2.458,0,3.61,0,.362-.181.531-.571.531H305.423Z" transform="translate(0 0)" fill="#e20100" stroke="rgba(0,0,0,0)" stroke-width="1"/>
    <path id="Path_2215" data-name="Path 2215" d="M323.484,449.289a.424.424,0,0,1-.373-.247.467.467,0,0,1,.037-.54,1.361,1.361,0,0,1,.143-.154l3.5-3.5a.862.862,0,0,1,.147-.111l.138-.1.021-.085-.11-.174-16.951-.03a1.075,1.075,0,0,1-.225-.021.5.5,0,0,1-.346-.48.49.49,0,0,1,.4-.462,2.3,2.3,0,0,1,.277-.018h17.108l-.305-.325a2.123,2.123,0,0,0-.151-.16l-1.138-1.139c-.8-.8-1.611-1.613-2.422-2.414a.466.466,0,0,1-.166-.532.842.842,0,0,1,.4-.353.594.594,0,0,1,.508.225l3.643,3.646c.362.361.738.733,1.15,1.139a.589.589,0,0,1,.2.407.572.572,0,0,1-.2.388l-1.2,1.194c-1.179,1.178-2.39,2.389-3.6,3.585a.91.91,0,0,1-.4.239Z" transform="translate(0.438 0.222)" fill="#e20100" stroke="rgba(0,0,0,0)" stroke-width="1"/>
  </g>
</svg>
