<svg xmlns="http://www.w3.org/2000/svg" width="14.063" height="11.895" viewBox="0 0 14.063 11.895">
  <g id="Component_679_2" data-name="Component 679 – 2" transform="translate(0.5 0.5)">
    <path id="Path_1797" data-name="Path 1797" d="M643.672,444.452v8.573a.181.181,0,0,0-.021.046,1.654,1.654,0,0,1-1.694,1.372c-1.99-.014-3.98,0-5.969,0-1.242,0-2.483,0-3.725,0a1.622,1.622,0,0,1-1.654-1.667q0-3.508,0-7.016a1.266,1.266,0,0,1,.055-.375,1.06,1.06,0,0,1,1.031-.732c0,.04.005.081.005.123q0,1.384,0,2.768,0,2.628,0,5.255a.539.539,0,0,0,1.062.14,1.249,1.249,0,0,0,.015-.279q0-3.993,0-7.985a1.237,1.237,0,0,1,.041-.314,1.081,1.081,0,0,1,1.09-.806q1.856,0,3.712,0h4.936a1.011,1.011,0,0,1,.841.379A3.064,3.064,0,0,1,643.672,444.452Zm-5.432,4.542h0q-1.352,0-2.7,0a.544.544,0,1,0,.023,1.086q2.677,0,5.355,0a.688.688,0,0,0,.212-.031.53.53,0,0,0,.353-.615.544.544,0,0,0-.549-.437Q639.585,448.992,638.24,448.993Zm-.016,3.266q1.352,0,2.7,0a.545.545,0,0,0,.378-.953.624.624,0,0,0-.439-.134q-1.371,0-2.741,0h-2.576a.549.549,0,0,0-.461.2.517.517,0,0,0-.068.574.528.528,0,0,0,.513.312Q636.879,452.261,638.224,452.259ZM636.6,447.9c.361,0,.722,0,1.083,0a.514.514,0,0,0,.534-.489c.016-.394.015-.79,0-1.184a.514.514,0,0,0-.519-.5q-1.1-.009-2.2,0a.526.526,0,0,0-.526.542c0,.353,0,.705,0,1.058a.532.532,0,0,0,.562.569C635.887,447.9,636.244,447.9,636.6,447.9Z" transform="translate(-630.609 -443.548)" stroke="rgba(0,0,0,0)" stroke-width="1"/>
  </g>
</svg>
