<svg xmlns="http://www.w3.org/2000/svg" width="14.495" height="14.463" viewBox="0 0 14.495 14.463">
  <g id="Component_676_2" data-name="Component 676 – 2" transform="translate(0.499 0.499)">
    <path id="Path_1790" data-name="Path 1790" d="M682.835,591.833l-1.105-1.11.793-1.562-.541-1.312-1.592-.508a3.367,3.367,0,0,1,0-1.623l1.591-.518.547-1.314-.777-1.5a5.747,5.747,0,0,1,1.121-1.144l1.519.769,1.318-.536.514-1.588a3.426,3.426,0,0,1,1.624-.012l.525,1.59,1.319.536,1.527-.776a6.575,6.575,0,0,1,1.114,1.153l-.777,1.5.545,1.313,1.594.521a3.425,3.425,0,0,1,0,1.622l-1.591.509-.545,1.309.775,1.518A7.037,7.037,0,0,1,691.2,591.8l-1.532-.783-1.287.546-.525,1.594a3.5,3.5,0,0,1-1.619,0l-.519-1.587-1.312-.539Zm4.189-2.646a2.691,2.691,0,0,0,2.693-2.665,2.682,2.682,0,0,0-5.364-.023A2.693,2.693,0,0,0,687.024,589.187Z" transform="translate(-680.287 -579.783)" stroke="rgba(0,0,0,0)" stroke-width="1"/>
  </g>
</svg>
