<svg xmlns="http://www.w3.org/2000/svg" width="17.98" height="13.74" viewBox="0 0 17.98 13.74">
  <g id="Group_1192" data-name="Group 1192" transform="translate(0.501 0.5)">
    <path id="Path_1695" data-name="Path 1695" d="M-174.276,1196.511c-.091.367-.18.734-.273,1.1a.854.854,0,0,1-.668.7.866.866,0,0,1-.18.017c-.635,0-1.27,0-1.906,0a.885.885,0,0,1-.892-.558c-.08-.181-.164-.361-.244-.542a1.56,1.56,0,0,0-.824-.819,7.807,7.807,0,0,0-2.752-.652,9.3,9.3,0,0,0-3.515.389,9.252,9.252,0,0,0-.9.367,1.374,1.374,0,0,0-.67.746c-.091.2-.172.406-.275.6a.823.823,0,0,1-.765.465c-.663,0-1.326,0-1.988,0a.782.782,0,0,1-.787-.565c-.123-.428-.236-.86-.318-1.3a1.421,1.421,0,0,1,.472-1.284,4.575,4.575,0,0,1,1.57-.992,12.63,12.63,0,0,1,3.2-.8,25.422,25.422,0,0,1,4.132-.187,18.13,18.13,0,0,1,4.544.623,7.168,7.168,0,0,1,1.893.811,2.426,2.426,0,0,1,1.149,1.374Z" transform="translate(191.256 -1193.192)" stroke="rgba(0,0,0,0)" stroke-width="1"/>
    <path id="Path_1696" data-name="Path 1696" d="M-140.33,1329.526c-2.044,0-4.088-.009-6.132.006a.857.857,0,0,1-.885-.876c.027-.59,0-1.182.008-1.773a1.841,1.841,0,0,1,.65-1.414c.612-.542,1.237-1.069,1.854-1.606a5.2,5.2,0,0,0,1.079-1.311c.148-.252.282-.512.435-.762a1.451,1.451,0,0,1,1.3-.75c1.132,0,2.265,0,3.4,0a1.512,1.512,0,0,1,1.354.774c.317.51.626,1.026.965,1.522a6.3,6.3,0,0,0,1.248,1.2c.369.308.741.612,1.1.926a1.84,1.84,0,0,1,.671,1.436c0,.6,0,1.2,0,1.806a.791.791,0,0,1-.813.816h-6.231Z" transform="translate(148.806 -1316.792)" stroke="rgba(0,0,0,0)" stroke-width="1"/>
  </g>
</svg>
