<svg xmlns="http://www.w3.org/2000/svg" width="17.948" height="15.82" viewBox="0 0 17.948 15.82">
  <path id="Path_1681" data-name="Path 1681" d="M28,18.852V7.968a.375.375,0,0,0,.036-.085,2.093,2.093,0,0,1,1.276-1.677A4.886,4.886,0,0,1,30.084,6H42.9a1.864,1.864,0,0,0,.186.039,2.123,2.123,0,0,1,1.856,2.02c.012,2.159.007,4.318.007,6.477,0,1.4.006,2.8-.008,4.2a2.061,2.061,0,0,1-.811,1.614,2.621,2.621,0,0,1-1.038.468h-13.2a.478.478,0,0,0-.087-.035,2.1,2.1,0,0,1-1.6-1.259A4.983,4.983,0,0,1,28,18.852Zm15.754-6.626H29.21a.6.6,0,0,0-.01.071q0,3.164,0,6.328a1.037,1.037,0,0,0,.1.425.989.989,0,0,0,.99.566q5.026,0,10.051,0,1.2,0,2.392,0a.992.992,0,0,0,.932-.538,1.254,1.254,0,0,0,.087-.653q-.007-2.981,0-5.961ZM33.1,8.042a.874.874,0,0,0-.89.869.888.888,0,1,0,.89-.869Zm1.619.871a.889.889,0,1,0,.89-.871A.875.875,0,0,0,34.714,8.912Zm-4.834.021a.88.88,0,1,0,1.761-.009.88.88,0,1,0-1.761.009Z" transform="translate(-27.5 -5.5)" stroke="rgba(0,0,0,0)" stroke-width="1"/>
</svg>
