<svg xmlns="http://www.w3.org/2000/svg" xmlns:xlink="http://www.w3.org/1999/xlink" width="52.31" height="52.744" viewBox="0 0 52.31 52.744">
  <defs>
    <linearGradient id="linear-gradient" x1="0.5" x2="0.5" y2="1" gradientUnits="objectBoundingBox">
      <stop offset="0" stop-color="#ff9300"/>
      <stop offset="1" stop-color="#e27737"/>
    </linearGradient>
  </defs>
  <g id="Group_1081" data-name="Group 1081" transform="translate(-1366.551 -1204.336)">
    <path id="Path_1533" data-name="Path 1533" d="M1488.114,1316.993a9.07,9.07,0,0,0-.143,18.139h.128a9.052,9.052,0,0,0,9.106-9.044,8.879,8.879,0,0,0-2.6-6.379,9.073,9.073,0,0,0-6.388-2.716Z" transform="translate(-95.492 -95.619)" fill="#ffdabd" stroke="rgba(0,0,0,0)" stroke-width="1" opacity="0.362"/>
    <g id="Group_1087" data-name="Group 1087" transform="translate(1387.124 1223.792)">
      <path id="Path_1535" data-name="Path 1535" d="M1504.933,1364.377l-.1-.087a1.251,1.251,0,0,1-.339-.359.632.632,0,0,1,.214-.8q.768-.617,1.539-1.229l2.714-2.156q3.323-2.641,6.645-5.282a1,1,0,0,1,.6-.276.66.66,0,0,1,.4.144.689.689,0,0,1,.3.536.817.817,0,0,1-.35.634q-1.126.9-2.256,1.8l-2.293,1.822q-3.119,2.479-6.241,4.956a3.418,3.418,0,0,1-.378.247l-.015.009-.124.074-.166.1Z" transform="translate(-1504.422 -1352.613)" stroke="rgba(0,0,0,0)" stroke-width="1" fill="url(#linear-gradient)"/>
      <path id="Path_1536" data-name="Path 1536" d="M1510.7,1346.844a2.969,2.969,0,0,1-2.953-2.968,2.954,2.954,0,0,1,2.93-2.926h.019a2.959,2.959,0,0,1,2.9,2.972,2.909,2.909,0,0,1-.854,2.073,2.872,2.872,0,0,1-2.044.85Zm0-4.47a1.565,1.565,0,0,0-1.553,1.549,1.525,1.525,0,1,0,1.575-1.55Z" transform="translate(-1507.349 -1340.95)" stroke="rgba(0,0,0,0)" stroke-width="1" fill="url(#linear-gradient)"/>
      <path id="Path_1537" data-name="Path 1537" d="M1560.125,1409.476a2.9,2.9,0,0,1-2.075-.875,2.939,2.939,0,0,1,2.077-4.987h.044a3.009,3.009,0,0,1,2.9,2.988,2.913,2.913,0,0,1-2.925,2.874Zm0-4.509a1.574,1.574,0,0,0-1.526,1.543,1.521,1.521,0,0,0,.45,1.086,1.538,1.538,0,0,0,1.1.458,1.515,1.515,0,0,0,1.077-.452,1.542,1.542,0,0,0-1.078-2.635Z" transform="translate(-1550.948 -1396.172)" stroke="rgba(0,0,0,0)" stroke-width="1" fill="url(#linear-gradient)"/>
    </g>
    <path id="Path_1538" data-name="Path 1538" d="M1392.352,1256.58a4.753,4.753,0,0,1-2.889-1.934c-.266-.358-.518-.737-.762-1.1l-.14-.211c-.226-.339-.449-.68-.672-1.021l-.015-.024c-.477-.731-.965-1.479-1.483-2.192a3.02,3.02,0,0,0-2.53-1.29c-.108,0-.219.005-.329.015a17.378,17.378,0,0,0-1.789.268c-.5.1-1,.207-1.485.313l-.027.006c-.921.2-1.873.41-2.815.537a4.245,4.245,0,0,1-.555.038,2.971,2.971,0,0,1-2.656-1.5,3.2,3.2,0,0,1-.311-2.456c.183-.856.426-1.718.66-2.551.112-.4.222-.79.327-1.182l.093-.345c.122-.451.248-.917.351-1.387a3.109,3.109,0,0,0-1.682-3.938c-.671-.4-1.368-.771-2.042-1.131l-.013-.007c-.479-.255-.974-.52-1.452-.79-1.629-.92-2.777-1.871-3.084-3.52v-.942c.307-1.612,1.426-2.543,3.01-3.444.464-.264.951-.526,1.382-.759.587-.317,1.193-.644,1.78-.988,2.194-1.287,2.64-2.366,1.99-4.811-.155-.584-.334-1.169-.506-1.735-.247-.81-.5-1.639-.686-2.464a6.042,6.042,0,0,1-.1-2.289,2.781,2.781,0,0,1,2.886-2.27,3.973,3.973,0,0,1,.415.022c1,.107,2.017.319,3,.524.463.1.986.206,1.495.3.585.108,1.184.218,1.782.274.119.011.239.017.355.017a3.076,3.076,0,0,0,2.593-1.352c.4-.568.786-1.159,1.154-1.73.38-.59.774-1.2,1.188-1.776a12.02,12.02,0,0,1,1.786-2.08,3.234,3.234,0,0,1,2.133-.833,3.29,3.29,0,0,1,2.131.818,12.162,12.162,0,0,1,1.79,2.007c.639.85,1.23,1.767,1.8,2.654l.145.225a3.854,3.854,0,0,0,3.365,1.952,5.463,5.463,0,0,0,1.188-.14c1.192-.267,2.6-.569,4-.782a7.692,7.692,0,0,1,1.146-.092,5.126,5.126,0,0,1,.9.075,2.915,2.915,0,0,1,1.988,1.231,3.354,3.354,0,0,1,.358,2.654c-.183.8-.453,1.6-.713,2.371-.159.472-.338,1.006-.491,1.524a24.6,24.6,0,0,0-.617,2.557,2.158,2.158,0,0,0,.941,2.208,25.6,25.6,0,0,0,2.178,1.384c.478.276.967.535,1.439.786a25.131,25.131,0,0,1,2.488,1.446,3.365,3.365,0,0,1,1.507,3.976,3.078,3.078,0,0,1-1.446,1.928c-.9.572-1.852,1.1-2.772,1.617l-.04.022q-.484.27-.966.542c-.2.113-.408.223-.609.329-.341.179-.682.357-1.007.563-1.653,1.046-2.055,2.071-1.536,3.916.171.61.383,1.214.589,1.8.223.634.452,1.287.626,1.938a10.68,10.68,0,0,1,.479,2.945,2.811,2.811,0,0,1-2.668,2.619,6.173,6.173,0,0,1-.62.031,13.431,13.431,0,0,1-2.793-.4c-.2-.043-.4-.086-.6-.128l-.016,0c-.761-.156-1.548-.318-2.337-.447a4.5,4.5,0,0,0-.726-.061,3.354,3.354,0,0,0-2.819,1.447c-.437.592-.851,1.211-1.252,1.809-.3.45-.608.909-.922,1.352-.434.613-.887,1.194-1.345,1.725a4.423,4.423,0,0,1-2.411,1.346Zm-8.725-8.887c1.771,0,3.021.792,4.314,2.735.249.375.489.767.721,1.147l.008.013c.269.44.547.895.845,1.331a12,12,0,0,0,1.385,1.734,2.281,2.281,0,0,0,3.407.111,10.974,10.974,0,0,0,1.537-1.832c.328-.46.64-.938.941-1.4.365-.561.737-1.134,1.14-1.673a4.468,4.468,0,0,1,3.681-2c.159,0,.324.008.49.024.7.068,1.41.2,2.1.32.318.057.631.114.945.165s.632.113.939.173a14.892,14.892,0,0,0,2.159.31c.061,0,.12,0,.178,0a2.044,2.044,0,0,0,1.6-.6,2.277,2.277,0,0,0,.428-1.84,7.449,7.449,0,0,0-.306-1.351c-.172-.552-.356-1.111-.534-1.65-.308-.933-.622-1.884-.88-2.83a3.705,3.705,0,0,1,1.626-4.441c.7-.465,1.463-.881,2.2-1.284.368-.2.739-.4,1.1-.612.223-.128.447-.254.671-.38.61-.343,1.237-.695,1.832-1.082a2.3,2.3,0,0,0,1.118-1.856,2.529,2.529,0,0,0-1.043-2.081,19.5,19.5,0,0,0-1.942-1.25c-.495-.288-1-.561-1.483-.826-.864-.471-1.757-.958-2.585-1.51a3.515,3.515,0,0,1-1.577-3.92c.147-.677.356-1.36.559-2.021.1-.311.2-.656.3-.992s.2-.666.3-1c.245-.808.5-1.643.668-2.488a1.722,1.722,0,0,0-.234-1.35,1.921,1.921,0,0,0-1.321-.758,5.35,5.35,0,0,0-.869-.078,3.341,3.341,0,0,0-.555.044c-1.3.22-2.626.479-3.934.769a7.49,7.49,0,0,1-1.616.19,4.969,4.969,0,0,1-4.388-2.537l-.156-.242c-.505-.782-1.026-1.589-1.577-2.359a11.178,11.178,0,0,0-1.422-1.708,2.55,2.55,0,0,0-1.739-.772,2.522,2.522,0,0,0-1.806.86,12.421,12.421,0,0,0-1.364,1.747c-.31.455-.606.925-.893,1.378-.386.61-.78,1.234-1.2,1.818a4.181,4.181,0,0,1-3.471,1.95q-.13,0-.264-.008a19.732,19.732,0,0,1-2.692-.415l-.163-.033c-.865-.174-1.724-.378-2.415-.542l-.041-.01-.656-.154-.034-.008h-.109a2.95,2.95,0,0,0-2.358.761,2.3,2.3,0,0,0-.348,1.955c.1.577.242,1.131.37,1.6s.259.9.39,1.343c.239.8.482,1.616.664,2.43a4.085,4.085,0,0,1-2,4.9c-.379.25-.793.474-1.193.691-.307.166-.616.334-.914.514-.261.158-.526.312-.791.466a20.146,20.146,0,0,0-2.332,1.506,2.5,2.5,0,0,0-1.019,1.886,2.61,2.61,0,0,0,.943,2.026,11.641,11.641,0,0,0,1.925,1.315c.487.285.989.555,1.475.816.682.367,1.386.745,2.043,1.163a3.918,3.918,0,0,1,1.993,4.107,18.6,18.6,0,0,1-.454,2.034l-.024.092c-.128.49-.276,1-.406,1.452-.247.855-.5,1.739-.686,2.63a2.114,2.114,0,0,0,.308,1.809,2.284,2.284,0,0,0,1.8.745l.135,0a2.9,2.9,0,0,0,.6-.056c1.409-.3,2.78-.6,4.063-.887A8.838,8.838,0,0,1,1383.627,1247.693Z" fill="#2e2e2e" stroke="rgba(0,0,0,0)" stroke-width="1"/>
    <path id="Path_1539" data-name="Path 1539" d="M1475.4,1326.792a12.883,12.883,0,0,1-1.474-25.679,13.227,13.227,0,0,1,1.517-.089,12.956,12.956,0,0,1,6.13,1.575c.329.175.462.374.393.591a.947.947,0,0,1-.482.494l-.106.047-.018-.045a1.367,1.367,0,0,1-.4-.155,12.457,12.457,0,0,0-3.731-1.26,10.679,10.679,0,0,0-1.881-.167,11.843,11.843,0,0,0-11.539,9.711,12.206,12.206,0,0,0,1.173,7.578,11.755,11.755,0,0,0,10.369,6.277,11.894,11.894,0,0,0,7.589-2.76,11.7,11.7,0,0,0,4.085-7.244,11.389,11.389,0,0,0-.225-4.6c-.21-.81.039-.992.31-1.063a.651.651,0,0,1,.163-.023c.175,0,.428.084.6.81a12.867,12.867,0,0,1-10.616,15.833c-.418.066-.849.094-1.265.122-.2.013-.392.026-.587.043h-.01Z" transform="translate(-82.746 -83.367)" fill="#2e2e2e" stroke="rgba(0,0,0,0)" stroke-width="1"/>
  </g>
</svg>
