<svg xmlns="http://www.w3.org/2000/svg" xmlns:xlink="http://www.w3.org/1999/xlink" width="54.032" height="45.095" viewBox="0 0 54.032 45.095">
  <defs>
    <linearGradient id="linear-gradient" x1="0.5" x2="0.5" y2="1" gradientUnits="objectBoundingBox">
      <stop offset="0" stop-color="#ff9300"/>
      <stop offset="1" stop-color="#e27737"/>
    </linearGradient>
  </defs>
  <g id="Group_1083" data-name="Group 1083" transform="translate(-3133.581 -3568.484)">
    <path id="Path_1552" data-name="Path 1552" d="M3145.427,3619.9c-1.8.559-3.92,1.223-6.009,1.916a10.154,10.154,0,0,0-4.813,3.4h1.542a8.935,8.935,0,0,1,3.583-2.254c1.755-.591,3.544-1.156,5.275-1.7l.081-.026,1.251-.4a1.67,1.67,0,0,1,.5-.083,1.031,1.031,0,0,1,.367.063,12.394,12.394,0,0,0,4.45.79,18.389,18.389,0,0,0,4.551-.626,5.133,5.133,0,0,1,1.269-.172,4.221,4.221,0,0,1,1.4.24c1.361.469,2.759.916,4.121,1.35l.015,0c.71.226,1.42.452,2.129.683a8.3,8.3,0,0,1,3.447,2.13h1.521a9.509,9.509,0,0,0-4.728-3.3l-1.385-.448c-1.688-.547-3.436-1.113-5.157-1.651a1.037,1.037,0,0,1-.813-1.127c.027-.787.027-1.508,0-2.2a1.354,1.354,0,0,1,.647-1.249,11.283,11.283,0,0,0,4.865-7.725,26.882,26.882,0,0,0,.193-3.5v-.011c.006-.516.012-1.05.032-1.575.008-.2.006-.394,0-.622,0-.115,0-.234,0-.361v-.51h3.291v-4.3l-.449,0c-.195,0-.387,0-.581,0-1.108-.016-1.32-.191-1.515-1.251-.014-.082-.028-.165-.043-.25-.023-.137-.044-.266-.072-.391a12.59,12.59,0,0,0-7.669-9.235,1.172,1.172,0,0,1-.816-1.274c.026-.377.019-.77.014-1.152v0h-8.283v.091c0,.457-.008.889.011,1.318a1.1,1.1,0,0,1-.726,1.15,12.505,12.505,0,0,0-7.49,10.024,1,1,0,0,1-1.065.985c-.034,0-.067,0-.1,0-.221-.011-.459-.017-.751-.017-.181,0-.362,0-.544,0h-.1v4.318h2.916v.51q0,.636,0,1.254v.063c0,.935-.008,1.818.006,2.721a11.957,11.957,0,0,0,4.754,9.526,5.041,5.041,0,0,0,.525.35,2.683,2.683,0,0,1,1.145,1.045,2.994,2.994,0,0,1,.151,1.541,5.28,5.28,0,0,0-.023.69A1.14,1.14,0,0,1,3145.427,3619.9Zm11.574-.718c-.02.411-.464.665-.676.724a17.449,17.449,0,0,1-4.644.7,12.3,12.3,0,0,1-3.348-.455,1.2,1.2,0,0,1-1-1.4,5.026,5.026,0,0,0,.011-.658c0-.127-.008-.259-.008-.4v-.627l.614.128a20.961,20.961,0,0,0,4.174.516,10.114,10.114,0,0,0,4.174-.844l.716-.317v.782c0,.166,0,.328,0,.486C3157.021,3618.293,3157.023,3618.737,3157,3619.185Zm-18.956-19.407v-1.946h2.451a11.53,11.53,0,0,1,6.389-10.916l.757-.419v4.211h1.185v-6.439h5.9v6.446h1.178v-4.391l.744.385a11.649,11.649,0,0,1,6.817,11.1h2.237l.006.027h.19v1.946Zm2.925,5.841c-.016-.931-.011-1.879-.008-2.806,0-.435,0-.87,0-1.309v-.51h21.5l.044.462c0,.04.009.078.015.126a2.291,2.291,0,0,1,.026.376c-.021.571-.021,1.16-.023,1.732a22.827,22.827,0,0,1-.237,3.975,10.542,10.542,0,0,1-10.479,8.6l-.219,0A10.671,10.671,0,0,1,3140.97,3605.619Z" transform="translate(0 -12.143)" fill="#2e2e2e" stroke="rgba(0,0,0,0)" stroke-width="1"/>
    <path id="Path_1553" data-name="Path 1553" d="M3337.754,3600.582q-1.733-1.826-3.468-3.649c-.152-.159-.3-.323-.449-.486a12.447,12.447,0,0,0-1.368-1.351,3.177,3.177,0,0,0-1.851-.67c-1.466-.024-11-.028-12.248-.028l9.989,0c-.469,0-9.009,0-9.479,0a2.791,2.791,0,0,1-.784-.084c-.19-.06-.39-.161-.333-.6a.494.494,0,0,1,.467-.478h.357c1.4-.006-1.772-.011-.377-.011,1.823,0,11.408.01,12.835.031a3.3,3.3,0,0,1,2.232,1.055c.528.5,1.057,1,1.618,1.521l.772.722,1.2,1.123.122-1.637c.007-.1.015-.184.022-.263.015-.169.029-.316.029-.476l0-4.192c0-4.786.007-9.735,0-14.6a6,6,0,0,0-6.344-6.311h-.818c-1.615,0,1.334,0-.281,0l-4.843,0c-3.229,0-5.839,0-8.211-.012h-.029a6.514,6.514,0,0,0-5.521,2.755.55.55,0,0,1-.432.268.722.722,0,0,1-.386-.138.5.5,0,0,1-.182-.785,6.794,6.794,0,0,1,5.279-3.208c.911-.081,1.819-.091,2.508-.091.4,0,.809,0,1.214.008s.82.009,1.229.009h.089l3.51,0,5.693,0c1.86,0-.844,0,1.016-.007h.026a7.637,7.637,0,0,1,4.561,1.45,6.6,6.6,0,0,1,3,5.694c.012,6.562.009,13.234.005,19.686l0,5.145Z" transform="translate(-151.013 0)" fill="#2e2e2e" stroke="rgba(0,0,0,0)" stroke-width="1"/>
    <g id="Group_1090" data-name="Group 1090" transform="translate(3168.717 3578.081)">
      <path id="Path_1554" data-name="Path 1554" d="M3381.06,3636.753h12.761v-2.045H3381.06" transform="translate(-3381.06 -3634.708)" stroke="rgba(0,0,0,0)" stroke-width="1" fill="url(#linear-gradient)"/>
      <path id="Path_1555" data-name="Path 1555" d="M3381.06,3666.007h8.711v-2.044h-8.711" transform="translate(-3381.06 -3659.914)" stroke="rgba(0,0,0,0)" stroke-width="1" fill="url(#linear-gradient)"/>
    </g>
    <path id="Path_1556" data-name="Path 1556" d="M3185.677,3613.343l-.007-.779a11.221,11.221,0,0,1,1.268-5.57,10.588,10.588,0,0,1,3.523-3.706v3.339H3194v-6.439h3.542v6.445h3.532v-3.589a10.285,10.285,0,0,1,5.207,9.507l0,.792Z" transform="translate(-43.997 -26.885)" fill="#ffdabd" stroke="rgba(0,0,0,0)" stroke-width="1" opacity="0.472"/>
  </g>
</svg>
