<svg xmlns="http://www.w3.org/2000/svg" width="60.517" height="48.208" viewBox="0 0 60.517 48.208">
  <g id="Group_1082" data-name="Group 1082" transform="translate(-1809.535 -3816.094)">
    <path id="Path_1540" data-name="Path 1540" d="M2083.583,4045.014a1.016,1.016,0,0,0,.322.191,1.159,1.159,0,0,0,.395.067,1.131,1.131,0,0,0,.428-.08.989.989,0,0,0,.343-.229,1.475,1.475,0,0,0,.326-.526,1.96,1.96,0,0,0,.115-.663,2.173,2.173,0,0,0-.119-.713,1.379,1.379,0,0,0-.353-.562.955.955,0,0,0-.332-.209,1.123,1.123,0,0,0-.406-.074.979.979,0,0,0-.782.328,1.447,1.447,0,0,0-.313.52,1.962,1.962,0,0,0-.117.672,2.14,2.14,0,0,0,.12.729A1.352,1.352,0,0,0,2083.583,4045.014Z" transform="translate(-239.26 -197.699)" fill="none" stroke="rgba(0,0,0,0)" stroke-width="1"/>
    <path id="Path_1541" data-name="Path 1541" d="M1946.687,3927.3a5.355,5.355,0,0,1-.034.586H1949a3.519,3.519,0,0,1,3.586,2.8l4.2,16.755a4.168,4.168,0,0,1,.124.824h28.105c.494,0,.776-.04.947-.258.187-.24.123-.575.02-.988l-7.79-31.109a1.665,1.665,0,0,0-1.875-1.47h-28.549a1.642,1.642,0,0,0-1.824,1.413l-1.729,6.91a5.46,5.46,0,0,1,.909.735A5.328,5.328,0,0,1,1946.687,3927.3Zm19.975,2.181,0,.371a5.139,5.139,0,0,1,.753-.339,2.271,2.271,0,0,1,.71-.142,1.32,1.32,0,0,1,.991.392,1.456,1.456,0,0,1,.375,1.049q0,.532-.006.918t-.006.622c0,.252,0,.564.01.954s.01.587.01.607v.175h-1.022l.007-.182c0-.073.006-.319.01-.773q.006-.659.006-.815,0-.218,0-.645t-.006-.622a.971.971,0,0,0-.145-.587.583.583,0,0,0-.462-.146,1.622,1.622,0,0,0-.57.139,4.924,4.924,0,0,0-.656.324q0,.126,0,.4,0,.454,0,.827c0,.322,0,.707.011,1.175s.01.7.01.727v.175h-1.016v-.175q0-.03.009-.519c.005-.326.008-.811.008-1.442q0-.442,0-1.035c0-.4-.006-.822-.015-1.259l0-.179Zm-6.129,1.345a2.256,2.256,0,0,1,.5-.792,2.126,2.126,0,0,1,.714-.491,2.2,2.2,0,0,1,.859-.171,2.293,2.293,0,0,1,.86.157,2.019,2.019,0,0,1,.693.477,2.34,2.34,0,0,1,.513.807,2.841,2.841,0,0,1-.019,1.97,2.3,2.3,0,0,1-.545.824,2.159,2.159,0,0,1-.672.439,2.182,2.182,0,0,1-.834.152,2.259,2.259,0,0,1-.82-.148,2.091,2.091,0,0,1-.689-.438,2.263,2.263,0,0,1-.537-.821,2.794,2.794,0,0,1-.186-1.015A2.748,2.748,0,0,1,1960.533,3930.821Zm-5.411-2.708h.176q.434,0,1.055,0t1.322,0q1.017,0,1.7,0l.74,0h.175v.931h-.175l-.566,0q-.452,0-1.327,0l-.011,1.135q0,.446,0,1.215,0,.74.006,1.5t.01,1.016l0,.178h-1.054l.006-.181c.005-.166.01-.5.014-1.027s.006-1.027.006-1.523v-1.164c0-.262,0-.65-.01-1.154h-.5q-.451,0-.782,0l-.614.006h-.176Z" transform="translate(-117.567 -85.736)" fill="none" stroke="rgba(0,0,0,0)" stroke-width="1"/>
    <path id="Path_1542" data-name="Path 1542" d="M2056.372,3826.37a4.993,4.993,0,0,0-3.547-1.495h-.01a5.073,5.073,0,0,0-5.029,5.037,5.1,5.1,0,0,0,5.036,5.025h.013a5.1,5.1,0,0,0,5.013-5.01A5,5,0,0,0,2056.372,3826.37Zm-3.542,7h-.009a3.512,3.512,0,0,1-3.466-3.458,3.491,3.491,0,0,1,3.46-3.466h.007a3.491,3.491,0,0,1,3.457,3.476A3.51,3.51,0,0,1,2052.83,3833.368Z" transform="translate(-208.326 -7.256)" fill="none" stroke="rgba(0,0,0,0)" stroke-width="1"/>
    <path id="Path_1546" data-name="Path 1546" d="M2063.933,3837.553h-.007a3.491,3.491,0,0,0-3.46,3.466,3.512,3.512,0,0,0,3.466,3.458h.009a3.51,3.51,0,0,0,3.449-3.448,3.491,3.491,0,0,0-3.457-3.476Z" transform="translate(-219.435 -18.365)" fill="#ffe8d1" stroke="rgba(0,0,0,0)" stroke-width="1"/>
    <path id="Path_1547" data-name="Path 1547" d="M1980.392,3861.421a.891.891,0,0,1-.092-.215q-2.725-10.887-5.447-21.774-.35-1.4-.7-2.8l-.033-.135c-.553-2.222-1.125-4.52-1.7-6.775a2.6,2.6,0,0,0-2.656-2.036h-10.85l.475-.478a6.309,6.309,0,0,0,1.985-4.818,6.071,6.071,0,0,0-1.711-3.978,6.2,6.2,0,0,0-4.364-1.816,5.848,5.848,0,0,0-3.493,1.137,5.911,5.911,0,0,0-2.516,4.56,6.1,6.1,0,0,0,2.025,4.913l.487.48h-1.378q-1.285,0-2.569.006h-.111q-1.341,0-2.682.006c-1.59,0-2.881-.01-4.062-.03h-.047a2.825,2.825,0,0,0-2.77,2.229c-.216.983-.47,1.973-.716,2.93l-.015.059c-.1.4-.2.79-.3,1.185l-.618,2.472a5.318,5.318,0,0,1,.95.486l1.729-6.91a1.642,1.642,0,0,1,1.824-1.413h28.549a1.665,1.665,0,0,1,1.875,1.469l7.79,31.109c.1.413.168.748-.02.988-.17.218-.453.258-.947.258h-28.105a3.112,3.112,0,0,1-.116,1.018h5.806c6.863,0,14.182.005,22.375.016a1.99,1.99,0,0,0,2.15-1.269v-.87Zm-25.042-33.74h-.013a5.1,5.1,0,0,1-5.036-5.025,5.074,5.074,0,0,1,5.029-5.037h.01a5.073,5.073,0,0,1,5.023,5.051A5.1,5.1,0,0,1,1955.35,3827.681Z" transform="translate(-110.84)" fill="#2e2e2e" stroke="rgba(0,0,0,0)" stroke-width="1"/>
    <path id="Path_1550" data-name="Path 1550" d="M1908.673,4007.692h0a1.745,1.745,0,0,0,1.716-1.715,1.736,1.736,0,0,0-1.719-1.729h0a1.736,1.736,0,0,0-1.721,1.724A1.747,1.747,0,0,0,1908.673,4007.692Z" transform="translate(-84.918 -164.432)" fill="#ffe8d1" stroke="rgba(0,0,0,0)" stroke-width="1"/>
    <path id="Path_1551" data-name="Path 1551" d="M1837.471,4014.905l0-.012v-.562l-.007-.014c-.006-.014-.014-.027-.022-.041a.289.289,0,0,1-.028-.062q-1.468-5.865-2.934-11.729-.193-.771-.384-1.542c-.285-1.144-.608-2.441-.927-3.691a1.63,1.63,0,0,0-1.645-1.263h-5.309l.144-.173a3.551,3.551,0,0,0,.867-2.469,3.5,3.5,0,0,0-.986-2.289,3.563,3.563,0,0,0-2.508-1.043,3.48,3.48,0,0,0-2.578,5.8l.15.174h-.23c-.471,0-.942,0-1.416,0s-.965,0-1.448,0c-.853,0-1.546-.005-2.177-.016h-.029a1.742,1.742,0,0,0-1.708,1.375c-.116.527-.252,1.057-.384,1.571q-.086.335-.171.671l-.938,3.754c-.839,3.36-1.791,7.168-2.716,10.835a1.232,1.232,0,0,0,.176,1.109,1.316,1.316,0,0,0,1.058.468h0c4.041-.008,8.2-.013,12.7-.013q6.029,0,12.063.009A1.281,1.281,0,0,0,1837.471,4014.905Zm-16.205-21.405a2.513,2.513,0,0,1,2.382-2.489v-.073l.21,0,0,.075a2.512,2.512,0,0,1,2.383,2.5,2.489,2.489,0,0,1-4.978-.008Zm-9.961,21.257a.767.767,0,0,1-.191-.021l-.073-.022,0-.076a.736.736,0,0,1,.028-.179l.093-.377q.578-2.326,1.157-4.651.89-3.557,1.78-7.115l1.187-4.743a.672.672,0,0,1,.768-.594h15.379a.682.682,0,0,1,.8.624l4.2,16.758a1.034,1.034,0,0,1,.047.279l0,.075-.072.021a1.038,1.038,0,0,1-.278.021h-24.813Z" transform="translate(0 -151.958)" fill="#2e2e2e" stroke="rgba(0,0,0,0)" stroke-width="1"/>
    <path id="Path_1559" data-name="Path 1559" d="M1819.33,3853.934h7.594" transform="translate(0.894)" fill="none" stroke="#f2711c" stroke-width="1"/>
    <path id="Path_1560" data-name="Path 1560" d="M1819.33,3853.934h9.382" transform="translate(21 -9)" fill="none" stroke="#f2711c" stroke-width="2"/>
  </g>
</svg>
