<svg xmlns="http://www.w3.org/2000/svg" width="41.76" height="52.514" viewBox="0 0 41.76 52.514">
  <g id="Group_1080" data-name="Group 1080" transform="translate(-2188.781 -1634.791)">
    <path id="Path_1529" data-name="Path 1529" d="M2282.443,1759.117a8.95,8.95,0,0,0-.141,17.9h.126a8.932,8.932,0,0,0,8.986-8.924,8.762,8.762,0,0,0-2.562-6.295,8.955,8.955,0,0,0-6.3-2.68Z" transform="translate(-72.803 -107.212)" fill="#f9e6d6" stroke="rgba(0,0,0,0)" stroke-width="1" opacity="0.696"/>
    <path id="Path_1530" data-name="Path 1530" d="M2298.523,1757.017c-.322,0-.662-.265-1.071-.833q-.848-1.179-1.7-2.356c-1.118-1.548-2.275-3.149-3.4-4.732a1.331,1.331,0,0,1-.317-.9,1.172,1.172,0,0,1,.706-.742.547.547,0,0,1,.07,0,1.375,1.375,0,0,1,.927.467c.794,1.026,1.562,2.1,2.305,3.138q.415.579.831,1.157c.334.463.67.925,1.026,1.415l.58.8.248-.345c.112-.155.208-.289.3-.425l8.365-12.378.085-.129a2.848,2.848,0,0,1,.306-.413.946.946,0,0,1,.681-.339.936.936,0,0,1,.511.17.91.91,0,0,1,.337,1.169,1.748,1.748,0,0,1-.247.411c-.036.05-.072.1-.106.149q-4.7,6.949-9.407,13.9C2299.171,1756.753,2298.844,1757.017,2298.523,1757.017Z" transform="translate(-88.782 -91.049)" fill="#f7841a" stroke="rgba(0,0,0,0)" stroke-width="1"/>
    <path id="Path_1532" data-name="Path 1532" d="M2260.1,1758.348a12.592,12.592,0,0,1-8.671-3.569,12.12,12.12,0,0,1-1.149-16.51,12.366,12.366,0,0,1,9.765-4.851,12.228,12.228,0,0,1,5.46,1.3l-.484.914a11.46,11.46,0,0,0-9.735-.129,10.743,10.743,0,0,0-5.279,4.9,11.357,11.357,0,0,0,10.085,16.872,11.328,11.328,0,0,0,5.62-1.466,10.93,10.93,0,0,0,5.175-6.432,11.368,11.368,0,0,0-.35-7.885l.931-.437a12.251,12.251,0,0,1-3.49,14.339A11.981,11.981,0,0,1,2260.1,1758.348Z" transform="translate(-50.413 -85.028)" stroke="rgba(0,0,0,0)" stroke-width="1"/>
    <path id="Path_2191" data-name="Path 2191" d="M2475.729,2757.7a1,1,0,0,1-.4-.071,52.831,52.831,0,0,1-12.811-8.1,22.774,22.774,0,0,1-6.08-7.827,12.881,12.881,0,0,1-1.065-5.413c.038-4.825.03-9.731.023-14.476v-.047q-.005-2.762-.006-5.524c0-.027,0-.145,0-.145a.938.938,0,0,1,1.27-1.3,30.255,30.255,0,0,0,10.543-1.8,14.94,14.94,0,0,0,7.686-5.8c.579-.9.789-1.006.853-1.008s.278.109.864,1.027c1.625,2.548,4.07,4.388,7.694,5.789a29.414,29.414,0,0,0,10.618,1.781c.546,0,.866.074,1.007.218s.2.461.186,1.033c-.045,2.585-.037,5.211-.028,7.751q.005,1.53.006,3.06v.463h.042c0,.756,0,2.583,0,2.583,0,2.3.006,4.674-.007,7a13.489,13.489,0,0,1-2.7,7.687,30.839,30.839,0,0,1-9.222,8.542c-2.114,1.329-4.366,2.533-6.544,3.7-.5.265-.987.527-1.477.791A1.016,1.016,0,0,1,2475.729,2757.7Zm-.143-49.093c-.269.241-.533.483-.8.724-.571.523-1.11,1.016-1.681,1.491-3,2.494-6.7,3.976-11.635,4.665-1.009.141-2.018.228-3.085.32-.5.042-.995.086-1.5.135l-.418.041v1.418q0,2.595,0,5.191v.039c0,4.566.01,9.288-.022,13.931a11.1,11.1,0,0,0,.989,4.729,21.155,21.155,0,0,0,4.871,6.607,48.9,48.9,0,0,0,12.892,8.472,1.192,1.192,0,0,0,.517.106,1.528,1.528,0,0,0,.629-.132c.895-.416,1.762-.869,2.566-1.3a43.012,43.012,0,0,0,11.046-7.942c3.71-3.834,5.337-7.757,5.119-12.344-.194-4.087-.15-8.261-.107-12.3.019-1.757.038-3.566.037-5.345v-1.161l-.616-.062c-.107-.01-.187-.018-.267-.028-.741-.1-1.49-.18-2.214-.26-1.609-.179-3.274-.364-4.869-.7a18.849,18.849,0,0,1-9.593-4.933c-.325-.32-.626-.667-.892-.972-.116-.133-.221-.254-.317-.361l-.31-.344Z" transform="translate(-266.094 -1070.893)" stroke="rgba(0,0,0,0)" stroke-width="1"/>
  </g>
</svg>
