<svg xmlns="http://www.w3.org/2000/svg" width="27.434" height="30.357" viewBox="0 0 27.434 30.357">
  <g id="Component_68_1" data-name="Component 68 – 1" transform="translate(0.5 0.5)">
    <path id="Path_1568" data-name="Path 1568" d="M688.094,22.661v4.278a11.078,11.078,0,0,1-11.078,11.08h-2.851a4.5,4.5,0,0,0-2.078.73,3.226,3.226,0,0,0-1.4,2.192.925.925,0,0,1-.086.266q0-3.58,0-7.163a3.376,3.376,0,0,1,.344-1.484,3.264,3.264,0,0,1,2.941-1.781l2.726,0a4.235,4.235,0,0,0,4.234-4.235V23.064a4.235,4.235,0,0,0-4.235-4.235h-3.471a4.235,4.235,0,0,0-4.235,4.235v3.473c0,.107.005.212.012.316v10.49a11.083,11.083,0,0,1-7.258-10.4V22.663a11.08,11.08,0,0,1,11.08-11.08h4.277A11.078,11.078,0,0,1,688.094,22.661Z" transform="translate(-661.66 -11.583)" fill="#f36a10" stroke="rgba(0,0,0,0)" stroke-width="1"/>
  </g>
</svg>
