<svg xmlns="http://www.w3.org/2000/svg" width="33.667" height="66.388" viewBox="0 0 33.667 66.388">
  <g id="Component_65_3" data-name="Component 65 – 3" transform="translate(0.5 0.5)">
    <path id="Path_1572" data-name="Path 1572" d="M-2495.4-45a16.332,16.332,0,0,0-16.334,16.329A16.332,16.332,0,0,0-2495.4-12.342a16.332,16.332,0,0,0,16.333-16.329A16.332,16.332,0,0,0-2495.4-45Zm0,26.423a10.1,10.1,0,0,1-10.1-10.094,10.1,10.1,0,0,1,10.1-10.093,10.094,10.094,0,0,1,10.1,10.093A10.1,10.1,0,0,1-2495.4-18.577Z" transform="translate(2511.73 45)" fill="#0055a5" stroke="rgba(0,0,0,0)" stroke-width="1"/>
    <path id="Path_1573" data-name="Path 1573" d="M-2405.07,56.136a6.3,6.3,0,0,1-6.289,6.288,6.3,6.3,0,0,1-6.291-6.288,6.282,6.282,0,0,1,5.148-6.184l.063-.012v1.74h2.156V49.94l.063.012A6.283,6.283,0,0,1-2405.07,56.136Z" transform="translate(2427.693 -39.807)" fill="#d60018" stroke="rgba(0,0,0,0)" stroke-width="1"/>
    <path id="Path_1574" data-name="Path 1574" d="M-2495.4,261.67A16.332,16.332,0,0,0-2511.73,278a16.332,16.332,0,0,0,16.334,16.329A16.332,16.332,0,0,0-2479.062,278,16.332,16.332,0,0,0-2495.4,261.67Zm0,26.422a10.1,10.1,0,0,1-10.1-10.093,10.1,10.1,0,0,1,10.1-10.093A10.094,10.094,0,0,1-2485.3,278,10.094,10.094,0,0,1-2495.4,288.092Z" transform="translate(2511.73 -228.94)" fill="#0055a5" stroke="rgba(0,0,0,0)" stroke-width="1"/>
    <path id="Path_1575" data-name="Path 1575" d="M-2405.07,362.038a6.283,6.283,0,0,1-5.148,6.185l-.063.012v-1.741h-2.156v1.74l-.063-.012a6.282,6.282,0,0,1-5.148-6.184,6.3,6.3,0,0,1,6.291-6.288A6.3,6.3,0,0,1-2405.07,362.038Z" transform="translate(2427.693 -312.98)" fill="#d60018" stroke="rgba(0,0,0,0)" stroke-width="1"/>
  </g>
</svg>
