<svg xmlns="http://www.w3.org/2000/svg" width="28.608" height="42.593" viewBox="0 0 28.608 42.593">
  <g id="Group_1296" data-name="Group 1296" transform="translate(-1116.017 -423.477)">
    <path id="Path_2125" data-name="Path 2125" d="M1143.685,427.387a5.582,5.582,0,0,0-5.139-3.41h-.014a5.583,5.583,0,0,0-4.62,2.461l0,0v0l-15.874,25.225h0a8.865,8.865,0,0,0-1.519,4.966v.005h0a9.058,9.058,0,0,0,9.013,8.932,8.765,8.765,0,0,0,8.639-7.018l9.567-26.94h0v-.005h0a5.59,5.59,0,0,0-.052-4.22Zm-.23,4.119q-4.552,12.819-9.1,25.637c.007-.142.031-.281.031-.423a8.845,8.845,0,0,0-8.845-8.848h0a8.758,8.758,0,0,0-6.7,3.084l15.324-24.351a5.282,5.282,0,0,1,4.38-2.328h.005a5.285,5.285,0,0,1,4.91,7.225Zm-11.746,29.381a7.437,7.437,0,0,1-6.173,3.283h-.006a7.45,7.45,0,1,1,0-14.9h.006a7.45,7.45,0,0,1,6.172,11.616Z" stroke="rgba(0,0,0,0)" stroke-width="1"/>
    <path id="Path_2126" data-name="Path 2126" d="M1141.477,431.944c-.459,0-1,.015-1.355.015-.11,0-.2,0-.264-.005l-.043-.005a2.519,2.519,0,0,1,.258-.227c.247-.2.606-.475.905-.722s.535-.449.55-.569l-.164-.079c-.2,0-.565.067-.776.066l-.115-.011-.011-.008,1.242-.96.012-.037-.032-.024-.076,0-.036.033.025.027-1.2.929-.013.028c.012.091.106.092.207.1.222,0,.588-.066.776-.066l.084.008.009,0a1,1,0,0,1-.261.29c-.243.218-.607.5-.912.743-.152.12-.289.229-.389.314s-.16.128-.173.186l.054.048a2.457,2.457,0,0,0,.346.014c.353,0,.9-.015,1.355-.015.23,0,.437,0,.586.015l.173.023.035.012a.978.978,0,0,1-.353.256c-.334.185-.835.414-1.253.614-.209.1-.4.193-.535.27s-.218.123-.235.2h0v.005h0v.007c0,.146.153.182.313.183a7.055,7.055,0,0,0,.828-.121.862.862,0,0,1-.269.212c-.273.167-.685.375-1.029.57s-.623.362-.641.517l.053.054.08.007c.168,0,.494-.046.7-.046l.13.011.027.011h0c0,.07-.136.187-.361.294-.334.165-.837.335-1.259.5a4.945,4.945,0,0,0-.541.235c-.138.078-.235.145-.243.241l.1.083.212.014c.472,0,1.421-.119,2.043-.118a2.048,2.048,0,0,1,.427.032c.1.024.146.061.142.09v0h0a2.463,2.463,0,0,1-.652.239c-.532.153-1.285.339-1.906.518-.311.09-.589.178-.791.259s-.332.145-.347.248l.122.081a1.766,1.766,0,0,0,.255.013c.464,0,1.291-.072,1.842-.072a2.506,2.506,0,0,1,.4.023l.106.03.018.017a1.933,1.933,0,0,1-.45.121c-.377.075-.912.166-1.355.278s-.774.227-.813.423l0,0,0,.015v0h0v0c.017.119.16.123.346.128.43,0,1.187-.122,1.62-.122a.962.962,0,0,1,.237.022l.067.047v0c0,.113-.2.246-.522.35a12.161,12.161,0,0,1-1.8.367c-.3.044-.572.081-.768.112-.1.016-.178.03-.235.044l-.068.02-.043.047.121.1a5.39,5.39,0,0,0,1.138.073c.748,0,1.637-.036,2.057-.036l.179,0,.023,0c-.022.075-.173.165-.415.231a11.019,11.019,0,0,1-1.49.25c-.248.029-.472.055-.635.079l-.2.036-.1.067.051.065.09.011c.23,0,.742-.122,1.058-.121l.189.025.057.068h0a.994.994,0,0,1-.375.1c-.314.049-.76.094-1.129.156a3.024,3.024,0,0,0-.473.109c-.12.044-.209.09-.218.18.007.082.087.106.185.126a2.446,2.446,0,0,0,.4.025c.5,0,1.2-.066,1.516-.066l.121.006a2.432,2.432,0,0,1-.42.216c-.384.171-.944.4-1.411.619s-.821.412-.853.6h0l0,.01h0v0c0,.086.084.126.185.15a1.939,1.939,0,0,0,.41.033c.563,0,1.394-.106,1.767-.105l.141.009.018.005-.089.068a7.97,7.97,0,0,1-1.458.2,6.424,6.424,0,0,0-.763.107c-.2.048-.337.1-.355.219h0v.006h0v.009c.008.21.257.258.558.259.552,0,1.368-.18,1.607-.179l.035,0c-.013.13-.234.25-.587.334-.546.135-1.367.207-2.053.307a5.373,5.373,0,0,0-.882.183c-.218.074-.366.167-.383.311l0,0,0,.013v0h0v0c.007.113.128.158.293.19a3.8,3.8,0,0,0,.659.043c.787,0,1.844-.106,2.188-.105h.033l-.085.043c-.3.111-1,.264-1.616.414-.311.075-.6.15-.819.219a2.071,2.071,0,0,0-.262.1l-.109.108-.005,0v.009h0v0l.142.128a1.3,1.3,0,0,0,.314.028c.512,0,1.355-.125,1.808-.125a.991.991,0,0,1,.225.019l.061.034v0c.013.035-.19.163-.5.273-.466.176-1.166.38-1.751.571-.293.1-.556.188-.749.273s-.3.145-.322.237l-.005,0,0,.015h0v0c.009.1.11.124.244.149a3.509,3.509,0,0,0,.538.031c.63,0,1.481-.073,1.818-.073h.014c-.2.055-.647.154-1.085.265-.281.072-.558.15-.767.228s-.354.146-.369.258l.077.071a3.026,3.026,0,0,0,.635.04c.431,0,.964-.02,1.281-.02l.2.005.037,0a2.2,2.2,0,0,1-.323.567,1.978,1.978,0,0,0-.341.6l.018.042.037.012.2-.054h.008v.009l0,0a2.091,2.091,0,0,1-.254.262c-.114.113-.222.2-.232.287l.033.035.34.012.035-.033-.033-.036h0l-.283-.01a1.374,1.374,0,0,1,.21-.227c.122-.122.241-.213.255-.291v0l-.024-.058-.054-.018-.18.048a2.5,2.5,0,0,1,.322-.542,1.873,1.873,0,0,0,.341-.624l-.046-.046a1.608,1.608,0,0,0-.265-.013c-.319,0-.852.02-1.281.02-.189,0-.358,0-.478-.015l-.138-.022-.022-.009c0-.034.129-.124.339-.2a12.059,12.059,0,0,1,1.219-.335c.2-.049.386-.091.519-.125l.159-.043.047-.018.035-.042-.07-.051-.115-.005c-.344,0-1.192.074-1.818.074a3.436,3.436,0,0,1-.527-.031l-.148-.041-.038-.04h0c-.013-.036.191-.164.5-.275.466-.176,1.166-.381,1.751-.572.293-.1.556-.187.749-.271s.317-.149.331-.25v0l-.113-.1a1.077,1.077,0,0,0-.242-.02c-.462,0-1.305.125-1.808.125a1.279,1.279,0,0,1-.3-.026l-.09-.062v0l.021-.021a7.763,7.763,0,0,1,1.564-.453c.343-.081.676-.16.925-.23a3.018,3.018,0,0,0,.3-.1l.135-.109-.061-.048-.09,0c-.352,0-1.405.105-2.188.105a3.843,3.843,0,0,1-.647-.041c-.165-.029-.244-.083-.237-.123h0v0c-.005-.126.225-.247.592-.33.545-.127,1.366-.2,2.053-.3a5.113,5.113,0,0,0,.882-.192c.226-.081.383-.182.392-.34l-.11-.059c-.258,0-1.065.179-1.607.179a1.1,1.1,0,0,1-.364-.047l-.126-.143h0v-.006c-.01-.055.143-.135.394-.179.372-.072.934-.107,1.4-.155a4.819,4.819,0,0,0,.6-.09c.153-.04.264-.078.276-.179l-.081-.068-.154-.01c-.382,0-1.211.105-1.767.105a1.9,1.9,0,0,1-.4-.031c-.1-.023-.134-.056-.131-.083v0c-.006-.063.157-.2.411-.34.378-.212.947-.452,1.421-.654.237-.1.451-.194.607-.269l.186-.1.084-.093-.076-.057-.133-.006c-.325,0-1.023.065-1.516.065a2.371,2.371,0,0,1-.387-.024l-.1-.032-.024-.025c-.009-.038.115-.114.321-.16.3-.076.765-.127,1.149-.177.193-.026.366-.05.493-.078s.213-.044.231-.127v-.005c-.006-.134-.151-.162-.314-.162-.328,0-.845.122-1.058.122l-.039-.005a3.986,3.986,0,0,1,.457-.072c.408-.05.986-.111,1.465-.2a3.479,3.479,0,0,0,.612-.163c.156-.064.267-.137.275-.25l-.044-.043a1.417,1.417,0,0,0-.237-.011c-.423,0-1.311.036-2.057.036-.334,0-.64-.007-.86-.028a1.581,1.581,0,0,1-.258-.042l-.058-.025c.137-.051.958-.144,1.75-.282a8.043,8.043,0,0,0,1.136-.266c.307-.108.526-.225.539-.4v0c-.017-.127-.171-.133-.373-.138-.442,0-1.2.122-1.62.122a.859.859,0,0,1-.217-.02l-.06-.039h0c0-.075.148-.18.394-.263a11.123,11.123,0,0,1,1.379-.321c.23-.043.438-.083.589-.119l.182-.052.088-.078c-.008-.081-.087-.1-.186-.121a2.581,2.581,0,0,0-.411-.024c-.556,0-1.384.073-1.842.073a1.689,1.689,0,0,1-.244-.013l-.059-.015h0c0-.014.045-.062.14-.109a14.379,14.379,0,0,1,2.026-.623c.4-.1.772-.2,1.05-.29a3.506,3.506,0,0,0,.334-.118l.145-.119v0c0-.09-.088-.132-.2-.157a2.16,2.16,0,0,0-.442-.034c-.628,0-1.58.118-2.043.118l-.2-.013-.044-.014,0,0c0-.05.135-.157.357-.254.335-.153.838-.319,1.26-.487s.766-.323.786-.523l-.08-.079-.147-.013c-.214,0-.541.046-.7.046l-.055,0c.009-.048.113-.15.285-.258.273-.178.685-.389,1.029-.578.172-.1.327-.184.441-.262s.19-.139.2-.215l-.063-.047c-.129,0-.567.125-.858.125l-.185-.029-.059-.085h0V433.4h0a1.645,1.645,0,0,1,.418-.255c.342-.172.828-.391,1.228-.591.2-.1.38-.194.511-.276s.216-.144.226-.224l-.091-.074A4.516,4.516,0,0,0,1141.477,431.944Z" stroke="rgba(0,0,0,0)" stroke-width="1"/>
    <path id="Path_2127" data-name="Path 2127" d="M1127.457,452.163a4.915,4.915,0,0,0-1.922-.388h0a4.937,4.937,0,1,0,1.925.388Zm1.344,5.938a3.571,3.571,0,0,1-1.286,1.561,3.553,3.553,0,0,1-3.361.327,3.557,3.557,0,0,1-1.562-1.287,3.561,3.561,0,0,1-.327-3.361,3.577,3.577,0,0,1,1.287-1.562,3.556,3.556,0,0,1,3.361-.326,3.575,3.575,0,0,1,1.562,1.286,3.558,3.558,0,0,1,.326,3.362Z" stroke="rgba(0,0,0,0)" stroke-width="1"/>
  </g>
</svg>
