<svg xmlns="http://www.w3.org/2000/svg" width="28.598" height="42.579" viewBox="0 0 28.598 42.579">
  <g id="Group_1297" data-name="Group 1297" transform="translate(-1116.017 -471.726)">
    <path id="Path_2128" data-name="Path 2128" d="M1120.437,512.248a8.838,8.838,0,0,0,13.729-5.468q1.081-3.043,2.162-6.088a8.817,8.817,0,0,1-.709,2.919l.925.4h0a9.757,9.757,0,0,0,.823-3.87l0-.015v-.148a9.343,9.343,0,0,0-.173-1.739q.486-1.371.973-2.741a8.382,8.382,0,0,1-.7,3.241l.771.338a9.214,9.214,0,0,0,.773-3.672v-.044a9.025,9.025,0,0,0-.175-1.755l1.134-3.194c0,.1.015.189.015.285v.028a7.876,7.876,0,0,1-.662,3.147l.616.271a8.547,8.547,0,0,0,.719-3.417V490.7a8.4,8.4,0,0,0-.178-1.722l1.286-3.62c.02.224.034.45.034.678v.015a7.384,7.384,0,0,1-.622,2.959l.463.2h0a7.9,7.9,0,0,0,.664-3.161v-.015a7.826,7.826,0,0,0-.185-1.677l1.416-3.985a6.94,6.94,0,0,1,.08.993v.007h0v.007a6.873,6.873,0,0,1-.583,2.762l.309.135a7.224,7.224,0,0,0,.61-2.891v-.02a7.2,7.2,0,0,0-.2-1.641,5.546,5.546,0,0,0,.35-1.906h0V477.8a5.579,5.579,0,0,0-5.577-5.574h-.012a5.574,5.574,0,0,0-4.62,2.46l0,0,0,0-.011,0a7.278,7.278,0,0,0-2.628,1.9l.254.222a6.923,6.923,0,0,1,2.045-1.589l-2.247,3.57a7.9,7.9,0,0,0-2.82,2.052l.38.333a7.441,7.441,0,0,1,1.927-1.57l-2.076,3.3a8.533,8.533,0,0,0-3,2.194l.506.444a7.907,7.907,0,0,1,1.772-1.492q-.935,1.483-1.867,2.967a9.2,9.2,0,0,0-3.18,2.337l.633.555a8.407,8.407,0,0,1,1.616-1.412l-1.658,2.634a9.808,9.808,0,0,0-3.359,2.479l.76.666a8.835,8.835,0,0,1,1.459-1.333q-2.185,3.474-4.373,6.948h0a8.855,8.855,0,0,0-1.519,4.964v.005h0a8.888,8.888,0,0,0,3.92,7.372Zm18.089-39.722h.012a5.277,5.277,0,0,1,5.277,5.274v.008h0v.007a5.2,5.2,0,0,1-.2,1.355c-.066-.209-.14-.416-.225-.616a7.249,7.249,0,0,0-6.674-4.427h-.017a7.257,7.257,0,0,0-2.266.371,5.211,5.211,0,0,1,4.093-1.973Zm-4.457,2.464a6.915,6.915,0,0,1,2.642-.526h.006a6.853,6.853,0,0,1,6.716,5.325q-.72,2.027-1.439,4.053a8.029,8.029,0,0,0-.3-.868,7.919,7.919,0,0,0-1.411-2.179l.193-.039.13-.032.04-.015.032-.04v0l-.163-.1a2.327,2.327,0,0,0-.4.058c-.077-.08-.15-.165-.23-.242l.347-.187c.181-.1.361-.2.5-.292s.23-.16.24-.245l-.039-.04-.036,0c-.181,0-.884.1-1.4.1a1.823,1.823,0,0,1-.392-.033c-.1-.024-.138-.059-.135-.09h0v0c-.01-.044.141-.136.383-.2.359-.1.9-.193,1.354-.281.227-.044.431-.088.581-.134s.25-.08.265-.171l-.009-.025-.024-.011-1.452-.049c.068-.047.2-.124.326-.194.09-.052.179-.1.247-.151l.126-.136v0l-.016-.051-.047-.02-.2.072v0h0v0a2.4,2.4,0,0,1,.334-.4c.085-.092.171-.183.235-.256l.116-.164-.033-.035-1.17-.041-.036.033.034.036,1.11.039c-.053.068-.189.215-.322.359a1.66,1.66,0,0,0-.33.421h0l0,.01h0v.005l.017.054.049.02.193-.071v0l0,0a1.877,1.877,0,0,1-.389.255l-.235.137-.121.117.009.024.025.011,1.452.05-.045.032a10.8,10.8,0,0,1-1.41.31,6.623,6.623,0,0,0-.736.175c-.186.063-.313.121-.336.225-.023-.016-.044-.037-.068-.053a7.824,7.824,0,0,0-4.4-1.354h-.019a7.9,7.9,0,0,0-2.641.464Zm.778,20.176a1.579,1.579,0,0,0-.208-.016c-.528,0-1.457.169-1.97.169a.942.942,0,0,1-.263-.027l-.076-.063.035-.02a17.881,17.881,0,0,1,1.813-.316c.141-.023.275-.049.408-.074C1134.673,494.934,1134.765,495.046,1134.847,495.166Zm-2.321-.9v0l.108-.067a7.067,7.067,0,0,1,1.277-.176c.088.092.173.187.257.283a11.238,11.238,0,0,1-1.182.1,1.28,1.28,0,0,1-.349-.036l-.112-.1Zm2.465-.561.063,0a2.222,2.222,0,0,1,.319.017l.081.022.009.006a.958.958,0,0,1-.353.089C1135.073,493.794,1135.03,493.753,1134.991,493.708Zm.583.745c-.038-.054-.079-.105-.118-.157.029,0,.075,0,.1.009l.082.068v0C1135.638,494.4,1135.612,494.424,1135.574,494.453Zm.13-.076v0c-.011-.117-.135-.149-.308-.159-.079-.1-.153-.212-.236-.313a1.911,1.911,0,0,0,.251-.05l.126-.1-.152-.1a2.289,2.289,0,0,0-.33-.017l-.124,0c-.162-.185-.327-.367-.5-.539.227-.033.454-.064.667-.092.306-.04.581-.077.782-.114a1.717,1.717,0,0,0,.241-.058l.111-.091c-.01-.093-.1-.116-.232-.139a3.525,3.525,0,0,0-.517-.028c-.481,0-1.1.04-1.559.059-.1-.088-.207-.171-.313-.255a2.245,2.245,0,0,1,.285-.123,14.685,14.685,0,0,1,1.915-.446c.32-.06.607-.114.817-.163a2.088,2.088,0,0,0,.25-.07l.114-.094-.086-.073-.171-.012c-.481,0-1.62.161-2.388.161a2.364,2.364,0,0,1-.545-.048c-.134-.034-.193-.084-.191-.142h0v0c-.008-.068.178-.2.467-.313.432-.181,1.081-.373,1.624-.561a6.364,6.364,0,0,0,.654-.262,8.382,8.382,0,0,1,1.162,1.914,8.071,8.071,0,0,1,.626,2.542l-1.068,3.008a9.716,9.716,0,0,0-1.458-3.191A.208.208,0,0,0,1135.7,494.377Zm-1.71-1.672c.45-.02,1.033-.056,1.486-.056a3.479,3.479,0,0,1,.506.027l.14.038.031.029a.408.408,0,0,1-.155.057c-.31.074-.981.145-1.639.242C1134.243,492.926,1134.119,492.815,1133.994,492.7Zm-.41.994c-.144.005-.282.01-.4.01a2.4,2.4,0,0,1-.346-.019l-.089-.024-.016-.012c0-.1.179-.216.468-.306C1133.333,493.46,1133.458,493.58,1133.584,493.7Zm2.392-3.889c-.534.007-1.252.051-1.73.051a3.1,3.1,0,0,1-.361-.016l-.094-.02-.014-.008c0-.146.237-.291.608-.4a8.693,8.693,0,0,1,.981-.222A8.256,8.256,0,0,1,1135.976,489.81Zm2.312,2.005a9.241,9.241,0,0,0-1.9-2.8l.1-.016a8.332,8.332,0,0,0,.9-.189c.228-.072.384-.138.4-.267v-.006c0-.109-.1-.168-.241-.2a2.4,2.4,0,0,0-.547-.047c-.4,0-.879.042-1.3.08-.09-.075-.182-.146-.275-.217a13.253,13.253,0,0,1,1.5-.14c.28-.014.531-.024.714-.035.091-.006.165-.012.217-.019l.064-.012.046-.044-.033-.041-.131-.009c-.334,0-1.242.064-1.949.064a5.17,5.17,0,0,1-.656-.032l-.155-.037c-.012-.008-.023-.019-.035-.028s-.033-.017-.048-.027c0-.022.045-.067.144-.109a11.517,11.517,0,0,1,2.095-.422c.41-.06.8-.115,1.085-.165.143-.024.261-.048.344-.071l.1-.034.053-.06-.08-.067a3.756,3.756,0,0,0-.668-.035c-.454,0-1.03.017-1.444.017-.158,0-.293,0-.387-.01l-.106-.013-.006,0c.013-.064.18-.149.449-.2.425-.089,1.067-.139,1.6-.187.2-.018.372-.037.526-.058a7.891,7.891,0,0,1,.717,1.28,7.636,7.636,0,0,1,.547,2.029q-.6,1.7-1.2,3.392A8.877,8.877,0,0,0,1138.288,491.815Zm-2.523-3.379c.4-.036.851-.074,1.22-.074a2.4,2.4,0,0,1,.531.045c.132.033.191.082.188.135v.005c.013.074-.227.188-.6.267-.222.051-.493.1-.778.145C1136.145,488.778,1135.96,488.6,1135.765,488.436Zm-.61-.483.019,0a5.155,5.155,0,0,0,.665.033c.168,0,.348,0,.528-.01l-.118.008a8.534,8.534,0,0,0-.906.113C1135.279,488.053,1135.22,488,1135.155,487.953Zm3.341-1.792c-.428.042-1,.116-1.412.116a1.45,1.45,0,0,1-.382-.038c-.093-.028-.129-.063-.129-.108v0c-.007-.065.152-.168.408-.25.29-.1.693-.188,1.081-.277C1138.218,485.779,1138.358,485.969,1138.5,486.161Zm1.492,1.234a8.56,8.56,0,0,0-1.2-1.978c.088-.026.171-.052.24-.08.157-.064.268-.123.278-.225l-.04-.049a1.016,1.016,0,0,0-.24-.018c-.142,0-.34.008-.551.016q-.172-.192-.356-.373c.214-.026.431-.052.633-.081a4.39,4.39,0,0,0,.638-.125c.162-.052.28-.109.289-.22v0c-.017-.122-.166-.125-.355-.131-.385,0-1.011.1-1.337.1l-.153-.012-.031-.013,0,0c-.007-.023.088-.091.252-.139.242-.077.609-.149.917-.23s.561-.158.581-.321l-.041-.044-.046,0c-.183,0-.757.092-1.159.092a1.13,1.13,0,0,1-.289-.028l-.094-.072h0v0h0a1.445,1.445,0,0,1,.367-.217c.3-.147.729-.332,1.083-.5.177-.085.335-.167.451-.238s.192-.126.2-.2c-.017-.114-.149-.116-.322-.121-.435,0-1.247.132-1.731.132a1.091,1.091,0,0,1-.282-.027l-.082-.063a2.193,2.193,0,0,1,.524-.13c.435-.079,1.052-.173,1.562-.29a4.161,4.161,0,0,0,.6-.179,7.426,7.426,0,0,1,.925,1.561,7.293,7.293,0,0,1,.457,1.548l-1.329,3.742A8.351,8.351,0,0,0,1139.988,487.395Zm-1.24-2.038c-.066-.08-.14-.152-.208-.229.187-.008.361-.014.488-.014l.176.007.027.005c-.017.052-.165.139-.4.208Zm-1.466-.541c.1.089.2.18.294.273l-.129,0a3.587,3.587,0,0,1-.444-.02l-.123-.029-.025-.014,0,0c-.008-.064.155-.152.42-.207Zm1.851-5.067a1.971,1.971,0,0,0,.363.03c.508,0,1.2-.093,1.381-.1a.7.7,0,0,1-.2.169c-.209.138-.525.306-.789.448l-.052.029A7.805,7.805,0,0,0,1139.133,479.749Zm.808,1.422c-.4.026-.855.093-1.071.093l-.087-.007h0c0-.037.1-.111.272-.168a5.422,5.422,0,0,1,.645-.172C1139.78,481,1139.863,481.083,1139.941,481.171Zm.282-.435-.053-.055a1.95,1.95,0,0,1,.341-.048l.079.012.005.007A3.4,3.4,0,0,1,1140.223,480.736Zm-8.673-1.485a7.372,7.372,0,0,1,2.874-.581h.014a7.33,7.33,0,0,1,4.12,1.266,7.579,7.579,0,0,1,.85.675l-.011.009h0v.005h0v.005c0,.084.071.112.151.124.034.033.065.069.1.1h0a5.373,5.373,0,0,0-.628.173c-.17.067-.295.126-.307.234l.06.06.1.009c.238,0,.733-.073,1.134-.1.089.1.172.21.256.318-.046.018-.092.036-.147.053a13.425,13.425,0,0,1-1.59.334c-.265.046-.5.087-.678.125l-.209.055-.089.073-.008,0v.011h0v0c.015.144.2.157.437.162.493,0,1.307-.133,1.731-.133l.2.018.052.034c.01.018-.117.127-.313.227-.294.159-.736.354-1.1.524-.184.085-.35.164-.472.23s-.186.1-.206.168l-.005,0,0,.01h0v0c.016.152.215.164.452.169.408,0,.99-.093,1.159-.093h0a.418.418,0,0,1-.237.148c-.241.088-.608.162-.915.238a3.088,3.088,0,0,0-.4.119c-.1.043-.177.083-.185.162l.085.083.17.015c.336,0,.96-.1,1.337-.1a.923.923,0,0,1,.223.02l.063.042v0c.009.061-.154.148-.418.2-.3.066-.726.113-1.132.163a8.559,8.559,0,0,0-1.144-.954,8.421,8.421,0,0,0-4.753-1.47h-.033a8.63,8.63,0,0,0-2.937.533q1.061-1.683,2.12-3.368C1131.394,479.33,1131.469,479.285,1131.55,479.251Zm-2.47,4.243a7.908,7.908,0,0,1,3.058-.618h.027a7.455,7.455,0,0,1,5.051,1.889c-.047.011-.1.021-.142.034-.163.054-.28.113-.29.225.013.085.1.1.209.115a3.58,3.58,0,0,0,.454.021l.193,0c.127.125.25.253.368.386-.206.048-.415.1-.609.145a4.278,4.278,0,0,0-.617.192c-.153.068-.26.136-.273.239h0v.007h0v.005c.014.184.263.211.579.215.433,0,1.03-.08,1.458-.121l.067.093-.084.011c-.438.05-1.059.09-1.573.157a4.2,4.2,0,0,0-.657.126c-.166.055-.285.115-.3.227l.067.056a3.121,3.121,0,0,0,.508.024c.416,0,.992-.016,1.444-.016.2,0,.381,0,.507.013l.144.019,0,0a19.618,19.618,0,0,1-1.988.334c-.454.07-.9.147-1.232.23a2.377,2.377,0,0,0-.406.13.286.286,0,0,0-.155.135,9,9,0,0,0-5-1.526h-.045a9.283,9.283,0,0,0-3.235.6l1.943-3.088C1128.728,483.663,1128.9,483.57,1129.08,483.494Zm-2.471,4.242a8.413,8.413,0,0,1,3.243-.654h.04a8.172,8.172,0,0,1,4.625,1.437,8.4,8.4,0,0,1,.779.617c-.1.018-.2.035-.289.054-.7.149-1.273.308-1.3.63l.17.093a3.077,3.077,0,0,0,.369.016c.5,0,1.259-.047,1.794-.052.091.1.187.2.273.3-.046.023-.091.045-.145.067-.431.183-1.08.376-1.623.563a6.153,6.153,0,0,0-.7.276c-.174.09-.291.17-.305.278h0v.006h0v.006c0,.112.1.174.243.209a2.445,2.445,0,0,0,.562.049c.775,0,1.917-.161,2.388-.161l.157.011.019.007a.546.546,0,0,1-.155.06c-.371.1-1.232.235-2,.407a6.758,6.758,0,0,0-1.018.293,1.948,1.948,0,0,0-.188.087,9.606,9.606,0,0,0-5.88-2.06h-.109a9.784,9.784,0,0,0-3.527.668l1.767-2.808A8.394,8.394,0,0,1,1126.609,487.736Zm-2.471,4.244a8.782,8.782,0,0,1,3.425-.693h.1a8.592,8.592,0,0,1,5.474,2.008l-.029.008c-.256.09-.436.191-.447.35l.163.1a2.471,2.471,0,0,0,.357.019c.14,0,.3-.005.473-.012.04.039.084.073.124.112.025.026.048.055.073.082-.157.013-.312.027-.459.042a5.9,5.9,0,0,0-.644.1c-.158.041-.266.071-.286.161h-.005v.007h0v.006c.013.174.234.2.529.206a12.077,12.077,0,0,0,1.239-.107c.109.127.212.258.314.39-.382.071-.805.135-1.185.192-.3.045-.562.086-.756.126a1.863,1.863,0,0,0-.232.059l-.1.08-.008,0,0,.01h0v.005c.013.14.185.157.41.161.524,0,1.453-.169,1.97-.169a1.011,1.011,0,0,1,.258.026c.024.037.045.076.069.113a1.846,1.846,0,0,1-.6.361c-.16.075-.32.149-.443.222s-.2.135-.214.22h0l0,.011h0v0c.006.1.107.114.209.114.221,0,.579-.086.737-.085l.056.006h0l0,.006a5.172,5.172,0,0,1-.428.484c-.189.21-.366.4-.377.505l.009.024.024.011.255.009.035-.033-.033-.036h0l-.206-.007a2.847,2.847,0,0,1,.381-.467c.1-.108.2-.215.278-.3s.128-.142.136-.2l-.047-.063-.08-.01c-.175,0-.529.086-.737.086l-.113-.016-.027-.03v0c0-.033.067-.105.186-.174.177-.105.446-.22.672-.332a1.34,1.34,0,0,0,.375-.243,8.512,8.512,0,0,1,1.341,4.315l-2,5.636c.006-.14.03-.277.03-.418a8.848,8.848,0,0,0-8.842-8.847h0a8.77,8.77,0,0,0-6.691,3.08l4.164-6.617A8.593,8.593,0,0,1,1124.138,491.98Zm7.566,17.143a7.439,7.439,0,0,1-6.171,3.282h-.006a7.447,7.447,0,1,1,0-14.893h.007a7.447,7.447,0,0,1,6.169,11.611Z" stroke="rgba(0,0,0,0)" stroke-width="1"/>
    <path id="Path_2129" data-name="Path 2129" d="M1138.245,499.082h0Z" stroke="rgba(0,0,0,0)" stroke-width="1"/>
    <path id="Path_2130" data-name="Path 2130" d="M1129.845,486.24h0Z" stroke="rgba(0,0,0,0)" stroke-width="1"/>
    <path id="Path_2131" data-name="Path 2131" d="M1139.947,494.148h0Z" stroke="rgba(0,0,0,0)" stroke-width="1"/>
    <path id="Path_2132" data-name="Path 2132" d="M1143.349,484.28h0Z" stroke="rgba(0,0,0,0)" stroke-width="1"/>
  </g>
</svg>
