<svg xmlns="http://www.w3.org/2000/svg" width="41.662" height="48.927" viewBox="0 0 41.662 48.927">
  <g id="Group_1300" data-name="Group 1300" transform="translate(-1127.565 -625.188)">
    <path id="Path_2137" data-name="Path 2137" d="M1151.223,625.688a17.608,17.608,0,0,0-15.783,9.928c-1.506,3.088-3.113,6.362-4.585,9.387-.314.612-.624,1.3-.94,1.915l0,0a18.6,18.6,0,1,0,34.569,13.445v0c.409-1.428.9-3.132,1.279-4.435.179-.615.485-1.65.658-2.292h0c.48-1.662,1.038-3.584,1.513-5.24h0a17.511,17.511,0,0,0-16.714-22.71Zm16.449,22.634c-.468,1.631-1.016,3.519-1.492,5.165h-.006c-.167.626-.492,1.729-.678,2.367-.237.824-.522,1.809-.8,2.783a18.374,18.374,0,0,0-33.954-12.771c.12-.251.242-.5.361-.738l0,0c1.472-3.025,3.079-6.3,4.586-9.389a17.232,17.232,0,0,1,31.985,12.582Zm-21.006,23.558a16.866,16.866,0,1,1,16.866-16.866A16.867,16.867,0,0,1,1146.667,671.88Z" transform="translate(0 0)" stroke="rgba(0,0,0,0)" stroke-width="1"/>
    <path id="Path_2138" data-name="Path 2138" d="M1162.384,630.37l0-.009a.872.872,0,0,1,.236.176c.186.167.436.418.655.627s.395.377.49.385l.028-.007,0,0,.018-.036-.141-.17-.121-.149v0l.01-.043-.043-.01-.031.056.141.2.074.072a1.526,1.526,0,0,1-.181-.144c-.186-.166-.436-.418-.655-.627s-.394-.377-.488-.385l-.03.009-.032.065a4.422,4.422,0,0,0,.852,1.161,4.189,4.189,0,0,1,.836,1.172l-.015.035-.063.017c-.214.006-.688-.448-1.137-.907s-.886-.917-1.124-.925l-.074.022-.033.07a5.317,5.317,0,0,0,.943,1.376,6.9,6.9,0,0,1,.928,1.283h0l-.044.011a3.367,3.367,0,0,1-1.039-.607,3.1,3.1,0,0,0-1.114-.619l-.1.028h0l-.018.031a1.955,1.955,0,0,0,.284.462c.25.354.626.857.938,1.29a7.142,7.142,0,0,1,.539.812c-.176-.121-.764-.718-1.354-1.3-.313-.309-.627-.614-.886-.842s-.45-.379-.56-.385l-.042.012-.05.1a6.809,6.809,0,0,0,1.372,1.874,6.659,6.659,0,0,1,1.356,1.878l-.03.07-.1.028c-.34.007-1.1-.73-1.8-1.47s-1.379-1.479-1.669-1.49l-.069.02-.091.178c.007.4.787,1.2,1.567,2.026s1.556,1.654,1.548,2.02l-.072.144a2.744,2.744,0,0,1-.531-.429c-.431-.4-1.035-.989-1.56-1.484-.262-.247-.5-.47-.7-.632s-.322-.262-.4-.267l-.034.009a.255.255,0,0,0-.112.224c0,.406.625,1.117,1.241,1.791.309.336.617.659.848.92a1.586,1.586,0,0,1,.377.531l-.005.014-.047.014c-.112,0-.341-.19-.6-.491-.387-.45-.861-1.127-1.268-1.692-.2-.283-.389-.537-.541-.722s-.258-.3-.349-.308l-.039.012-.067.132c.007.284.523.822,1.037,1.377s1.027,1.106,1.02,1.317l-.034.071-.055.015c-.235.01-.827-.667-1.357-1.346-.268-.339-.525-.679-.732-.934s-.346-.425-.443-.437l-.03.009-.052.1c.007.232.429.684.849,1.152s.84.935.833,1.091l-.018.041h-.006a6.083,6.083,0,0,1-1.214-.925,5.1,5.1,0,0,0-1.277-.941l-.045.012-.008.044.414.613.044.008.008-.043h0l-.373-.552a6.569,6.569,0,0,1,1.2.908,5.394,5.394,0,0,0,1.256.941l.04-.011.048-.094c-.007-.22-.429-.665-.849-1.133s-.839-.939-.833-1.109l.022-.048a1.8,1.8,0,0,1,.39.411c.308.381.734.954,1.135,1.432s.768.864,1,.871l.09-.026.063-.123c-.007-.274-.523-.807-1.037-1.361s-1.027-1.111-1.02-1.334l.04-.079h0c.042-.01.237.189.461.489.343.451.806,1.129,1.235,1.694s.813,1.02,1.057,1.029l.083-.024.033-.067c-.005-.117-.162-.307-.394-.573-.7-.781-2.082-2.134-2.074-2.669l.085-.17a2.236,2.236,0,0,1,.568.431c.442.395,1.05.988,1.569,1.483.259.247.5.47.681.632s.3.26.377.267l.026-.006h0l.1-.2c-.006-.427-.787-1.24-1.567-2.064s-1.556-1.642-1.548-1.982l.063-.125.034-.009c.215-.01.917.73,1.624,1.47s1.445,1.483,1.848,1.49l.135-.039.059-.122a6.414,6.414,0,0,0-1.372-1.92,7.163,7.163,0,0,1-1.356-1.832l.021-.049.007,0a1.708,1.708,0,0,1,.544.391c.4.358.939.9,1.391,1.345.226.224.431.427.588.573s.252.236.316.244l.02,0,0,0,.019-.039a1.773,1.773,0,0,0-.284-.489c-.25-.364-.626-.869-.938-1.3-.156-.214-.3-.409-.4-.557a1.609,1.609,0,0,1-.152-.247l.049-.012a3.168,3.168,0,0,1,1.077.607,3.261,3.261,0,0,0,1.076.619l.082-.022.026-.053a6.105,6.105,0,0,0-.943-1.323,5.716,5.716,0,0,1-.928-1.337l0-.017.039-.011c.172-.008.631.448,1.079.907s.908.918,1.182.925l.1-.029.042-.087a3.944,3.944,0,0,0-.852-1.213A4.878,4.878,0,0,1,1162.384,630.37Z" transform="translate(-2.291 -0.369)" stroke="rgba(0,0,0,0)" stroke-width="1"/>
    <path id="Path_2139" data-name="Path 2139" d="M1147.1,642.813a13.572,13.572,0,1,0,13.572,13.572A13.588,13.588,0,0,0,1147.1,642.813Zm0,25.622a12.05,12.05,0,1,1,12.05-12.05A12.064,12.064,0,0,1,1147.1,668.435Z" transform="translate(-0.438 -1.371)" stroke="rgba(0,0,0,0)" stroke-width="1"/>
    <path id="Path_2140" data-name="Path 2140" d="M1147.524,648.049a8.755,8.755,0,1,0,8.755,8.755A8.765,8.765,0,0,0,1147.524,648.049Zm0,15.989a7.234,7.234,0,1,1,7.234-7.234A7.243,7.243,0,0,1,1147.524,664.038Z" transform="translate(-0.857 -1.79)" stroke="rgba(0,0,0,0)" stroke-width="1"/>
  </g>
</svg>
