<svg xmlns="http://www.w3.org/2000/svg" width="36.186" height="34.061" viewBox="0 0 36.186 34.061">
  <g id="Group_1293" data-name="Group 1293" transform="translate(-1114.62 -257.824)">
    <path id="Path_2118" data-name="Path 2118" d="M1146.642,291.385l1.458-.04.024-.117c.727-3.643,1.426-7.324,2.172-10.906l0-.015.008-1.393a4.246,4.246,0,0,0-4.24-4.241H1136.8v-9.294a4.241,4.241,0,0,0-3.485-4.163l-.564-.1-.4-.083h0l-.988-.164-.254-.046-2.574-.469-1.531-.274-.938-.158-.254-.045-.309-.056-.2-.036-2.581-.46-.256-.046-.309-.056h0a1.456,1.456,0,0,0-.254-.046h0l-3.954-.714h0a6.576,6.576,0,0,0-1.335-.138h-1.491v33.061h31.522Zm-24.549-31.87.316.057.257.046,2.58.46.2.036.31.056.256.046.938.157,1.529.275,2.574.468.256.046.984.164.4.083h0l.566.1a3.94,3.94,0,0,1,3.239,3.868v9.594h9.567a3.947,3.947,0,0,1,3.94,3.94l-.007,1.362c-.673,3.235-1.31,6.545-1.961,9.835v-.216a6.485,6.485,0,0,0-6.478-6.478h-18.471V264.894a6.481,6.481,0,0,0-3.776-5.88l2.541.458h.009l.223.04Zm19.467,25.3a5.078,5.078,0,0,1,5.078,5.079h-30.027V259.815a5.08,5.08,0,0,1,5.079,5.079v19.921Z" stroke="rgba(0,0,0,0)" stroke-width="1"/>
    <path id="Path_2119" data-name="Path 2119" d="M1127.555,281.22l.038-.02-.02-.039h0l-.226-.069a1.2,1.2,0,0,1,.707-.122c1.208,0,3.47.364,3.9.365l.1-.032v0l.007-.041c-.01-.152-.213-.24-.5-.331a15.542,15.542,0,0,0-1.612-.328c-.268-.046-.509-.09-.682-.133l-.2-.062-.048-.028-.008-.008c.014-.064.145-.108.365-.106.763,0,2.452.439,3.282.44.257,0,.443-.037.492-.176v0l0-.016-.134-.126a10.155,10.155,0,0,0-1.493-.425c-.29-.069-.565-.133-.767-.184-.1-.026-.183-.049-.239-.067l-.054-.02c.054-.113.449-.171.961-.165.528,0,1.172.039,1.693.039s.9-.021.968-.2l0-.027c-.009-.086-.1-.114-.214-.145-.175-.042-.432-.065-.645-.094a1.833,1.833,0,0,1-.268-.051l-.074-.031-.016-.019v0c0-.079.409-.134.882-.126.421,0,.9.022,1.247.022a3.131,3.131,0,0,0,.32-.012l.159-.066,0-.015-.082-.083a5.493,5.493,0,0,0-.827-.21c-.16-.034-.311-.067-.422-.1l-.128-.043-.026-.015c.022-.058.183-.127.419-.168a12.571,12.571,0,0,1,1.347-.134c.223-.014.423-.027.571-.043l.179-.026.094-.053.007-.045c-.015-.171-.265-.191-.5-.213-.118-.009-.236-.013-.322-.021l-.069-.009a1.382,1.382,0,0,1,.189-.016c.139-.005.323-.006.526-.006h.335c.321,0,.651,0,.908-.018s.432-.03.478-.124v-.012l-.08-.072a7.215,7.215,0,0,0-.787-.21c-.153-.036-.3-.071-.4-.1l-.123-.041-.018-.009a1.353,1.353,0,0,1,.467-.2l.325-.1.11-.039.063-.047-.02-.039-.712-.217-.039.02.021.039.64.2c-.086.031-.261.082-.428.133-.221.074-.43.137-.486.235l0,0,0,.007-.006.007h0l0,.01.08.068c.142.054.48.129.787.2.153.036.3.072.4.105l.123.043.016.009-.1.039a8.019,8.019,0,0,1-1.214.054h-.335c-.217,0-.412,0-.556.007l-.174.015-.085.043-.005,0,0,.007h0l0,.013.063.056c.1.025.32.023.521.044a1.029,1.029,0,0,1,.258.052l.095.092,0,.022a10.494,10.494,0,0,1-1.316.12,7.827,7.827,0,0,0-.852.1c-.232.049-.4.1-.443.209h0l0,0v0h0l0,.013.084.075a8.027,8.027,0,0,0,.825.2c.161.035.312.07.421.1l.129.048.026.018a1.346,1.346,0,0,1-.413.034c-.341,0-.824-.022-1.247-.022-.477.008-.867.011-.939.168h0v0h0l0,.022c.011.083.1.1.214.13.175.037.431.058.644.09a1.522,1.522,0,0,1,.267.057l.092.063,0,.009c-.017.108-.4.167-.908.16s-1.162-.039-1.693-.039-.928.027-1.021.209l0,0-.005.009-.007.007h0l-.005.01.049.049c.157.068.82.21,1.451.366.315.078.621.158.846.232a2.043,2.043,0,0,1,.269.1l.07.044.015.02c-.02.083-.177.134-.432.132-.815,0-2.5-.44-3.282-.44-.219,0-.376.03-.421.148h0v0h0l0,.017.152.115c.3.1,1.027.2,1.683.326a6.753,6.753,0,0,1,.863.21c.227.076.36.171.353.239l0,.01-.04,0c-.415,0-2.684-.365-3.9-.365-.429.005-.728.032-.79.19l.02.039Z" stroke="rgba(0,0,0,0)" stroke-width="1"/>
  </g>
</svg>
