<svg xmlns="http://www.w3.org/2000/svg" width="44.844" height="33.25" viewBox="0 0 44.844 33.25">
  <g id="Group_1298" data-name="Group 1298" transform="translate(-1117.899 -531.675)">
    <path id="Path_2133" data-name="Path 2133" d="M1156.76,564.424l.226-.008.287,0a2.526,2.526,0,0,0,.663-.065.775.775,0,0,0,.132-.072h.195v-.156a.417.417,0,0,0,.072-.228l0-.027c.1-.34.238-.653.342-1.021h0q.483-1.348.94-2.723h0c.9-2.485,1.7-5.051,2.619-7.507l.009-.024V546.4h-8.914a1.848,1.848,0,0,1-1.841-1.844V532.189H1146.5c-.132-.009-.26-.014-.384-.014-1.56,0-2.482.66-3.618.97l-.006,0-.005,0c-1.449.536-2.942,1.032-4.4,1.57-.894.294-3.348,1-3.351,1l-.115.033,0,.023h0v10.682l-.008.007h-.045l-.036.024c-1.3.891-2.859,1.77-4.213,2.631h0c-3.737,2.47-7.421,4.993-11.229,7.385h-.154v.1l-.032.02v7.8h37.856Zm-26.281-15.054c1.32-.839,2.842-1.7,4.144-2.586V553.1a3.411,3.411,0,0,1-3.408,3.407h-11.588C1123.3,554.187,1126.872,551.755,1130.479,549.37Zm7.7-14.374h0c1.449-.536,2.944-1.032,4.4-1.571,1.2-.337,2.064-.958,3.529-.956.121,0,.245,0,.374.013h4.705v12.076a2.136,2.136,0,0,0,2.133,2.136h8.622v5.851c-.914,2.456-1.721,5.014-2.611,7.483v0q-.457,1.372-.939,2.72l0,0,0,.007c-.037.135-.085.266-.133.4V556.51h-12.279a3.412,3.412,0,0,1-3.408-3.407V535.779h-6.984c.8-.234,2.011-.592,2.591-.783Zm-2.161,18.107V537.18h5.153V553.1a4.807,4.807,0,0,0,4.808,4.807h10.879v4.971h-36.527V557.91h10.879A4.808,4.808,0,0,0,1136.023,553.1Z" stroke="rgba(0,0,0,0)" stroke-width="1"/>
    <path id="Path_2134" data-name="Path 2134" d="M1145.6,553.9l.043-.023-.022-.043h0l-.248-.075a.24.24,0,0,1,.142-.032c.552,0,2.124.609,2.812.61.17,0,.3-.036.342-.155l.01-.067c0-.151-.159-.227-.36-.277a8.437,8.437,0,0,0-1.131-.123,3.266,3.266,0,0,1-.473-.063c-.122-.029-.177-.073-.171-.1l0-.015c.005-.044.121-.086.317-.083.8,0,2.75.51,3.214.511l.127-.049,0-.017c-.011-.07-.074-.089-.166-.131-.328-.131-1.132-.3-1.856-.473-.362-.084-.7-.168-.954-.243a2.456,2.456,0,0,1-.3-.106l-.076-.044-.015-.015h0c.018-.094.325-.186.757-.221s.992-.049,1.529-.049c.353,0,.7,0,.987,0,.24,0,.446,0,.594-.011l.179-.018.1-.054,0-.023-.155-.145a12.019,12.019,0,0,0-1.728-.434c-.337-.072-.654-.142-.887-.207a1.974,1.974,0,0,1-.274-.093l-.07-.039-.013-.015c.013-.084.282-.142.662-.137.621,0,1.528.1,2.151.1.378-.006.654-.023.718-.182v-.014l-.12-.089c-.221-.073-.757-.159-1.24-.261a5.759,5.759,0,0,1-.635-.163c-.165-.053-.256-.124-.251-.15l.116-.011c.5,0,2.131.242,2.532.243l.118-.037.009-.055c0-.112-.107-.168-.234-.2a4.058,4.058,0,0,0-.713-.082,2.507,2.507,0,0,1-.3-.031l-.081-.024-.015-.01v0c.007-.046.137-.113.33-.156.289-.069.71-.118,1.067-.176s.649-.111.708-.259l0-.016-.091-.084a7.756,7.756,0,0,0-.88-.182,4.308,4.308,0,0,1-.447-.1l-.134-.057-.036-.037.125-.016c.412,0,1.561.218,2.2.218.246,0,.425-.02.474-.144l0-.024c-.013-.1-.125-.13-.275-.178-.228-.065-.565-.118-.845-.169-.14-.025-.266-.05-.354-.075l-.1-.036-.015-.01c.014-.046.13-.1.308-.116a5.407,5.407,0,0,1,.653-.029l.406,0c.139,0,.262,0,.354-.01s.152-.011.183-.072l.005-.03c-.01-.1-.121-.133-.26-.167-.215-.047-.529-.069-.791-.1a2.016,2.016,0,0,1-.328-.065l-.114-.078v-.008c.006-.036.095-.082.24-.1a3.819,3.819,0,0,1,.539-.029c.334,0,.7.018.947.019l.2-.008.112-.053.007-.043-.157-.148a2.272,2.272,0,0,0-.451-.046l-.184-.015-.047-.012-.005,0,0,0-.009-.031-.047.013-.006.024.06.063a3.33,3.33,0,0,0,.471.039l.23.04.08.073,0,.015a.872.872,0,0,1-.25.02c-.244,0-.611-.019-.947-.019a3.867,3.867,0,0,0-.55.03c-.148.025-.26.056-.294.147l-.005.031c.009.1.121.135.26.17.215.048.529.071.791.105a2.035,2.035,0,0,1,.328.063l.114.076v.008h0a1.583,1.583,0,0,1-.471.035h-.406a5.628,5.628,0,0,0-.662.028c-.184.027-.323.062-.365.166l0,0v.005h0l0,.016.09.085a7.679,7.679,0,0,0,.885.182,3.9,3.9,0,0,1,.449.1l.135.057.037.039v.005c-.005.051-.165.1-.408.094-.633,0-1.778-.217-2.2-.218-.092.005-.154,0-.187.059h0v0h0l0,.023c.012.1.124.128.273.176.227.065.562.119.84.17.14.026.265.051.353.075l.1.036.016.01c-.012.041-.136.1-.323.143-.288.068-.709.115-1.066.175s-.645.115-.708.264h0v0h0l-.005.021.081.084a4.959,4.959,0,0,0,.744.077,1.731,1.731,0,0,1,.372.067c.1.034.143.076.141.124l0,.019-.055,0c-.388,0-2.023-.242-2.532-.243l-.111.007-.07.043-.005.028c.013.117.165.171.375.242.32.1.794.187,1.189.263.2.038.375.073.5.105l.148.045.026.013c-.031.076-.283.129-.643.124-.617,0-1.524-.1-2.151-.1-.379.006-.657.025-.725.182h0v0h0l0,.018.156.132a15.777,15.777,0,0,0,1.727.414c.336.073.654.146.886.217a1.826,1.826,0,0,1,.274.1l.081.066a.822.822,0,0,1-.238.031c-.143.008-.337.01-.562.01-.291,0-.634,0-.987,0-.537,0-1.1.008-1.535.05s-.746.1-.814.266h0v0h0l0,.018c.009.07.073.095.165.138a16.517,16.517,0,0,0,1.858.484c.362.083.7.165.954.237a2.824,2.824,0,0,1,.3.1l.076.041,0,0-.049.006c-.441,0-2.4-.51-3.214-.511-.2,0-.341.022-.382.131l-.006.036c.011.127.164.162.363.2.3.047.754.058,1.127.1s.659.133.646.267l-.008.047c-.018.068-.111.107-.276.107-.663,0-2.232-.609-2.812-.611-.115,0-.208.022-.237.107l.023.043Z" stroke="rgba(0,0,0,0)" stroke-width="1"/>
  </g>
</svg>
