<svg xmlns="http://www.w3.org/2000/svg" width="25.875" height="43.028" viewBox="0 0 25.875 43.028">
  <g id="Group_1294" data-name="Group 1294" transform="translate(-1133.7 -313.28)">
    <path id="Path_2120" data-name="Path 2120" d="M1159.075,313.78H1147.21l-1.362.009-.02.006c-3.836,1.118-7.65,2.258-11.518,3.339l-.11.031v38.643h18.966l1.456-.065.027-.109c1.351-5.461,2.679-10.946,4.061-16.375a11.816,11.816,0,0,0,.365-2.912v-1.3a3.119,3.119,0,0,0-3.111-3.111h-4.015l-.132-.131V325a4.169,4.169,0,0,0,1.539-.939h0l.139-.1.022-.016.083-.126.063-.041.026-.017.069-.106.051.011.19-.284.222-.238.092-.051.032-.018.107-.162.031-.02.026-.017.029-.045h.043l.162-.241.043-.017.043-.018.141-.212.273-.266.01-.01.074-.11.065-.069.063.009.188-.285.053-.055.07-.046.026-.018.031-.048.012-.007.029-.018.057-.088.03-.02.024-.017.062-.093.082-.067.017-.013.086-.124.061-.043.021-.015.066-.092.064-.037.027-.016.188-.26.1-.08.007-.006.088-.089.007-.008.107-.147.032-.011.049-.015.1-.146.011-.006.027-.017.09-.136.035-.039.066-.031.038-.018.1-.158.02-.014.023-.016.076-.113.069-.061.052.005.186-.278.073-.077.151-.129.015-.013.111-.162h0a3.089,3.089,0,0,0,.792-2.072Zm-1.033,4.81-.094.138-.143.122-.006.005-.092.1-.008.008-.1.152h0l-.18.158-.015.013-.066.1-.02.014-.024.017-.09.137-.055.026-.027.013-.083.091-.007.008-.066.1-.009.006-.027.016-.078.114-.029.009-.046.015-.151.209-.067.068-.108.087-.016.013-.174.242-.064.037-.028.016-.074.1-.061.042-.022.016-.093.133-.084.068-.017.015-.054.081-.03.02-.026.017-.053.083-.012.008-.031.018-.034.053-.056.038-.013.009-.086.087-.01.01-.1.149-.03,0-.181.194-.008.008-.07.1-.273.266-.011.011-.108.162-.042.017-.043.017-.131.2-.065.047-.023.016-.036.056-.029.019-.025.017-.1.151-.026.014a4.07,4.07,0,0,0,.452-1.839v-3.8H1135.1c3.622-1.021,7.2-2.085,10.8-3.132l1.32-.009h11.564V316.7a2.786,2.786,0,0,1-.727,1.887Zm.733,17.757a11.463,11.463,0,0,1-.356,2.838c-1.313,5.156-2.576,10.361-3.857,15.548v-2.816a4.135,4.135,0,0,0-4.13-4.13h-6.764a1.332,1.332,0,0,1-1.33-1.33V326.483a1.333,1.333,0,0,1,1.33-1.331h6.764a4.056,4.056,0,0,0,1.085-.163V331.8a.431.431,0,0,0,.432.431h4.015a2.824,2.824,0,0,1,2.811,2.811Zm-5.613-15.325a2.73,2.73,0,0,1-2.73,2.73h-6.764a2.731,2.731,0,0,0-2.73,2.731v19.974a2.731,2.731,0,0,0,2.73,2.73h6.764a2.73,2.73,0,0,1,2.73,2.73v2.4h-17.471v-35.7h17.471Z" stroke="rgba(0,0,0,0)" stroke-width="1"/>
    <path id="Path_2121" data-name="Path 2121" d="M1153.225,334.084c-.3,0-.711.048-.907.048l-.081,0h0l0-.624-.033-.034-.813-.043-.036.033.032.036.781.041,0,.607.06.053.094.006c.2,0,.614-.048.907-.048a1.08,1.08,0,0,1,.237.019l.071.039h0l-.017.021a8.692,8.692,0,0,1-1.244.6,7.938,7.938,0,0,0-.74.372c-.2.12-.332.224-.347.342h0v.005h0v.007c.01.131.157.151.332.153.357,0,.936-.117,1.245-.116l.15.016.036.031v0l0,.005a1.913,1.913,0,0,1-.586.251c-.478.157-1.154.344-1.712.517-.279.087-.529.171-.711.247s-.283.129-.307.215l-.005,0,0,.012h0v.005c.005.087.09.119.2.141a2.435,2.435,0,0,0,.439.029c.529,0,1.279-.071,1.716-.071a1.7,1.7,0,0,1,.257.015l.056.016c-.09.06-.708.237-1.305.431a8.713,8.713,0,0,0-.849.317c-.224.107-.377.2-.4.314l-.005,0,0,.011h0v0l.17.092c.254,0,.778-.135,1.1-.134l.2.028.059.081a2.671,2.671,0,0,1-.467.181c-.385.128-.929.3-1.381.473s-.811.34-.835.53h0l.161.094a2.747,2.747,0,0,0,.35.017c.471,0,1.191-.048,1.721-.048a3.572,3.572,0,0,1,.488.025l.134.034.032.027h0c.009.087-.221.174-.588.207-.545.058-1.363.048-2.048.083a5.125,5.125,0,0,0-.882.1c-.225.056-.385.137-.4.288v0l.043.042a1.48,1.48,0,0,0,.222.011c.359,0,1.072-.031,1.714-.031a8.618,8.618,0,0,1,.9.036,1.358,1.358,0,0,1,.277.053l.083.056h0c.005.088-.2.2-.513.292-.473.138-1.181.25-1.775.371a5.812,5.812,0,0,0-.761.194c-.19.07-.319.141-.338.256h0l0,.008h0v0l.157.126a1.691,1.691,0,0,0,.351.027c.546,0,1.433-.107,2-.106a1.822,1.822,0,0,1,.38.029c.085.019.115.046.118.068-.145.063-1.085.129-1.976.236a10.582,10.582,0,0,0-1.217.2c-.323.087-.549.175-.575.336h0v.006h0v.009c0,.106.1.166.223.2a2.179,2.179,0,0,0,.517.046c.717,0,1.8-.15,2.385-.15a1.461,1.461,0,0,1,.3.024l.09.055h0c0,.013-.037.053-.135.082a7.145,7.145,0,0,1-1.4.149,1.511,1.511,0,0,0-.171-.01,4,4,0,0,0-.44.031c-.366.011-.711.018-.967.028-.134.005-.244.011-.322.019l-.092.013-.05.04-.007,0v.009h0v.005c.009.1.11.109.229.11.275,0,.776-.1,1.219-.153l.459-.015.132-.007a.609.609,0,0,1,.158.035l.107.137v.01l-.021.019a7.167,7.167,0,0,1-1.607.182,9.6,9.6,0,0,0-.956.1c-.248.051-.425.1-.453.228h0l0,.01h0v0l.149.114a1.759,1.759,0,0,0,.331.023c.547,0,1.467-.105,2.079-.105a2.233,2.233,0,0,1,.448.034c.11.024.152.062.149.092l-.346,1.291.005.029.026.014.135.008.036-.033-.032-.036h0l-.092,0,.337-1.254v-.014c0-.092-.091-.134-.2-.159a2.265,2.265,0,0,0-.462-.035c-.618,0-1.539.1-2.079.1a1.736,1.736,0,0,1-.317-.022l-.094-.047h0c-.01-.056.168-.141.453-.183.424-.071,1.061-.1,1.593-.138.267-.019.506-.04.683-.07s.292-.053.313-.151v-.013a.207.207,0,0,0-.124-.183c.308-.015.6-.035.84-.066a2.283,2.283,0,0,0,.392-.078c.095-.033.165-.066.174-.14v-.005l-.143-.122a1.523,1.523,0,0,0-.319-.026c-.6,0-1.676.151-2.385.151a2.092,2.092,0,0,1-.5-.045c-.122-.033-.173-.078-.171-.132h0v-.006c-.006-.09.22-.21.575-.291a16.9,16.9,0,0,1,1.979-.28c.33-.033.627-.062.843-.089.108-.014.195-.027.257-.041l.076-.022.046-.05v-.006c0-.083-.08-.121-.176-.142a1.882,1.882,0,0,0-.4-.031c-.571,0-1.458.106-2,.106a1.645,1.645,0,0,1-.336-.025l-.1-.059h0c-.008-.076.194-.188.511-.27.472-.13,1.181-.24,1.775-.365a5.556,5.556,0,0,0,.763-.2c.195-.077.331-.157.342-.283v0l-.128-.121a4.849,4.849,0,0,0-1.2-.092c-.644,0-1.358.03-1.714.03l-.167,0-.018,0c.026-.11.24-.2.582-.247.546-.078,1.364-.074,2.048-.1a6.667,6.667,0,0,0,.879-.075c.223-.044.382-.1.4-.237v0c-.011-.089-.1-.108-.225-.129a3.6,3.6,0,0,0-.5-.026c-.533,0-1.254.048-1.721.048a2.764,2.764,0,0,1-.341-.016l-.088-.021-.012-.007c0-.066.16-.189.406-.3a13.387,13.387,0,0,1,1.407-.518c.234-.077.446-.146.6-.2l.184-.073.087-.077v-.01c0-.145-.154-.18-.324-.18-.337,0-.865.135-1.1.134l-.087-.01-.014-.013h0c-.007-.053.148-.171.389-.274a13.4,13.4,0,0,1,1.35-.473c.225-.069.427-.132.575-.182l.176-.065.085-.072v0l-.127-.089a1.769,1.769,0,0,0-.269-.016c-.443,0-1.192.072-1.716.072a2.416,2.416,0,0,1-.425-.028c-.107-.02-.146-.055-.142-.074h0c0-.007.038-.055.129-.1a14.664,14.664,0,0,1,1.821-.6c.357-.105.694-.207.944-.3a2.535,2.535,0,0,0,.3-.124l.132-.125v0c-.011-.1-.123-.114-.255-.116-.321,0-.9.116-1.245.116l-.2-.024-.059-.06v0c0-.065.138-.192.358-.316.328-.19.82-.4,1.23-.583.206-.091.391-.175.527-.247s.222-.118.237-.2v0l-.124-.106A1.143,1.143,0,0,0,1153.225,334.084ZM1146.773,343l-.131-.015-.014-.012a7.459,7.459,0,0,1,.746-.04A4.566,4.566,0,0,1,1146.773,343Z" stroke="rgba(0,0,0,0)" stroke-width="1"/>
  </g>
</svg>
