<svg xmlns="http://www.w3.org/2000/svg" width="29.383" height="39.31" viewBox="0 0 29.383 39.31">
  <g id="Group_1295" data-name="Group 1295" transform="translate(-1125.453 -372.987)">
    <path id="Path_2122" data-name="Path 2122" d="M1143.877,386.972a2.217,2.217,0,0,0,.393.026c.584,0,1.5-.1,2.014-.1a1.657,1.657,0,0,1,.277.017l.067.02.011.008c-.005.181-.289,1.062-.3,1.282l.033.036.254.009.036-.034-.034-.035h0l-.216-.008c.026-.241.284-1.052.293-1.249l-.135-.1a1.736,1.736,0,0,0-.289-.018c-.52,0-1.436.1-2.014.1a2.247,2.247,0,0,1-.38-.024l-.1-.032-.013-.015a2.408,2.408,0,0,1,.451-.023c.261,0,.6.007.958.007a11.065,11.065,0,0,0,1.362-.064c.384-.056.669-.137.688-.343v-.006c-.009-.169-.207-.2-.464-.206-.6,0-1.67.233-2.243.232a.866.866,0,0,1-.282-.033l-.087-.091h0v0c0-.027.041-.073.142-.113a12.13,12.13,0,0,1,2.034-.325,9.5,9.5,0,0,0,1.058-.177c.279-.075.474-.15.488-.3v0l-.13-.113a1.315,1.315,0,0,0-.288-.024c-.6,0-1.761.174-2.479.174a1.873,1.873,0,0,1-.445-.04c-.108-.029-.151-.069-.149-.113h0v0c-.006-.1.179-.186.493-.225a9.877,9.877,0,0,1,1.175-.049l.7,0a9.557,9.557,0,0,0,1.1-.043c.286-.04.49-.1.506-.257v0l-.143-.117a1.539,1.539,0,0,0-.32-.025c-.65,0-1.877.171-2.64.171a2.119,2.119,0,0,1-.479-.04c-.116-.029-.163-.07-.161-.114v0c-.011-.075.205-.189.543-.266.5-.124,1.262-.217,1.894-.3.316-.044.6-.086.809-.13a1.653,1.653,0,0,0,.249-.068l.113-.1v0c-.008-.1-.1-.109-.216-.11-.35,0-1.092.19-1.536.19a.677.677,0,0,1-.254-.037l-.081-.107h0v-.005c-.007-.073.176-.195.465-.294a14.09,14.09,0,0,1,1.616-.412c.269-.057.512-.107.688-.149l.211-.057.062-.025.038-.048-.108-.072-.217-.011c-.4,0-1.122.061-1.61.061a2.371,2.371,0,0,1-.365-.021l-.1-.026-.017-.014a1.538,1.538,0,0,1,.348-.2c.29-.136.7-.308,1.037-.456.169-.073.32-.141.43-.2l.132-.071.063-.073v0c-.016-.107-.136-.108-.282-.113-.324,0-.872.091-1.171.091l-.149-.014-.034-.02.017-.019a6,6,0,0,1,1.291-.389c.285-.071.561-.145.769-.22s.351-.139.365-.253l-.112-.069-.22-.009c-.319,0-.82.032-1.154.032a2.028,2.028,0,0,1-.247-.011l-.063-.013h0c0-.073.164-.216.413-.359a14.421,14.421,0,0,1,1.436-.688c.24-.1.456-.2.612-.268l.187-.091.086-.079-.054-.058-.086-.008c-.223,0-.726.089-1.05.088l-.21-.021-.061-.051h0c-.005-.052.119-.17.314-.288.29-.182.727-.395,1.094-.6s.663-.376.681-.549v0c-.008-.093-.1-.106-.206-.107-.306,0-.918.154-1.274.153l-.195-.027-.058-.073v0l.1-.08a12.17,12.17,0,0,1,1.469-.419,5.63,5.63,0,0,0,.767-.25c.2-.091.346-.183.356-.316v0c-.012-.1-.116-.1-.237-.107-.3,0-.856.11-1.167.11l-.164-.018-.043-.037v0c-.006-.024.069-.1.2-.162a7.152,7.152,0,0,1,.7-.3c.118-.047.224-.09.3-.127l.144-.116-.131-.064c-.178,0-.541.063-.767.063l-.138-.014-.032-.021h-.01l0-.029-.048.006-.008.023c.014.1.121.1.239.1.235,0,.6-.063.767-.063l.037,0a1.051,1.051,0,0,1-.2.1c-.192.08-.465.181-.692.283s-.4.188-.422.308h0v.009h0v0c.011.11.133.122.276.124.323,0,.876-.11,1.167-.11l.137.014.031.024v0c0,.082-.152.2-.4.291a13.61,13.61,0,0,1-1.409.4c-.236.06-.448.118-.6.176s-.251.1-.269.19h0v.007h0v.006c.006.138.152.169.322.169.37,0,.985-.154,1.274-.153l.113.014.024.024v0c0,.056-.119.176-.314.3-.29.185-.728.4-1.094.6s-.646.362-.675.526l0,0,0,.011h0v0c.013.127.163.138.34.141.333,0,.84-.088,1.05-.088l.043,0h0c-.174.1-.846.371-1.472.66a8.455,8.455,0,0,0-.843.434c-.226.142-.381.26-.392.389l.127.077a2.249,2.249,0,0,0,.256.011c.338,0,.839-.033,1.154-.033l.211.009.047.01c-.01.041-.144.126-.356.194-.34.118-.853.234-1.281.344-.215.055-.408.108-.55.159s-.235.088-.25.174c.016.1.122.1.252.1.309,0,.857-.091,1.171-.091l.17.016.038.024a8.615,8.615,0,0,1-1.027.477c-.243.105-.483.21-.663.3a2.477,2.477,0,0,0-.219.117l-.1.1c.009.079.083.1.174.112a2.434,2.434,0,0,0,.376.021c.493,0,1.214-.06,1.61-.06l.207.01.016,0a5,5,0,0,1-.5.126c-.442.1-1.069.22-1.587.362a4.436,4.436,0,0,0-.662.225c-.165.079-.277.156-.29.263h0v.006h0v.008c.005.17.186.212.4.212.458,0,1.2-.19,1.536-.189l.121.015.026.026v0l0,0a1.8,1.8,0,0,1-.632.162c-.518.082-1.252.164-1.858.269a5.518,5.518,0,0,0-.774.177c-.193.068-.324.137-.339.253h0v.005h0v0c0,.1.092.152.213.181a2.179,2.179,0,0,0,.495.042c.771,0,2-.171,2.64-.171a1.5,1.5,0,0,1,.3.023l.089.05v0c.007.078-.158.156-.446.19a9.55,9.55,0,0,1-1.089.043l-.7,0a9.87,9.87,0,0,0-1.184.049c-.308.044-.527.111-.549.283h0v.007h0v.006c0,.1.087.151.2.18a1.961,1.961,0,0,0,.463.042c.726,0,1.887-.174,2.479-.174a1.256,1.256,0,0,1,.272.022l.077.046v0c.009.084-.212.194-.56.265-.52.114-1.3.187-1.954.272a7.333,7.333,0,0,0-.836.144c-.207.057-.346.113-.367.227l0,0,0,.009h0v.005c.01.16.195.192.438.193.587,0,1.654-.233,2.243-.232a.939.939,0,0,1,.3.036l.095.1v.005c.007.121-.243.227-.628.276a11.067,11.067,0,0,1-1.353.063c-.356,0-.7-.007-.958-.007-.149,0-.273,0-.361.009l-.106.014-.051.045-.008,0,0,.012h0v0C1143.707,386.926,1143.783,386.953,1143.877,386.972Z" stroke="rgba(0,0,0,0)" stroke-width="1"/>
    <path id="Path_2123" data-name="Path 2123" d="M1148.033,411.8v-1.058c2.092-8.172,4.142-16.386,6.3-24.491l0-.018V373.487h-11.449l-1.339.057-.04.045c-2.871,3.215-5.869,6.313-8.745,9.534-2.22,2.251-4.21,4.719-6.465,6.9l-.043.042V411.6h.027v.2h21.751Zm-15.06-28.481,0,0c2.858-3.2,5.841-6.285,8.705-9.49l1.214-.052h11.157v12.421c-2.061,7.743-4.024,15.583-6.018,23.39V390.046h-21.356c2.2-2.155,4.145-4.549,6.293-6.727Zm-5.292,27.081V391.446h18.951V410.4Z" stroke="rgba(0,0,0,0)" stroke-width="1"/>
    <path id="Path_2124" data-name="Path 2124" d="M1131.411,406.667H1142.9v-11.49h-11.491Zm1.4-10.09h8.69v8.69h-8.69Z" stroke="rgba(0,0,0,0)" stroke-width="1"/>
  </g>
</svg>
