<svg xmlns="http://www.w3.org/2000/svg" width="49.465" height="24.175" viewBox="0 0 49.465 24.175">
  <g id="Group_1299" data-name="Group 1299" transform="translate(-1129.019 -581.164)">
    <path id="Path_2135" data-name="Path 2135" d="M1174.212,588.889c.036-.143.074-.283.11-.426v0a50.945,50.945,0,0,0,1.288-5.366v-1.429h-34.8l-.05.061q-5.574,6.875-11.208,13.7l-.037.045v2.149h6.76c-1.367,1.675-2.722,3.361-4.094,5.031l-.037.045v2.149h42.2l.032-.124q1.783-6.98,3.595-13.933l.005-.02v-1.873Zm-41.736,15.622v-1.7c1.416-1.723,2.816-3.463,4.226-5.193h35.258l.032-.124c.7-2.77,1.43-5.506,2.135-8.273h3.528v1.5q-1.794,6.882-3.558,13.792Zm-2.629-8.928q5.59-6.766,11.123-13.591h34.313v1.068a50.578,50.578,0,0,1-1.28,5.323h0c-.751,2.981-1.546,5.919-2.3,8.9h-41.858Z" stroke="rgba(0,0,0,0)" stroke-width="1"/>
    <rect id="Rectangle_683" data-name="Rectangle 683" width="39.837" height="1.8" transform="translate(1133.365 602.456)" stroke="rgba(0,0,0,0)" stroke-width="1"/>
    <rect id="Rectangle_684" data-name="Rectangle 684" width="40.062" height="1.9" transform="translate(1130.742 595.182)" stroke="rgba(0,0,0,0)" stroke-width="1"/>
    <path id="Path_2136" data-name="Path 2136" d="M1167.631,589.005c.455.126,1.133.229,1.7.33.282.051.536.1.716.153a1.145,1.145,0,0,1,.21.078l.059.053v0c-.065.267-.814.375-1.687.369-1.046,0-2.266-.122-2.749-.122l-.153.007-.09.049-.01.066c.008.182.219.267.5.332.431.1,1.069.131,1.6.191a4.047,4.047,0,0,1,.672.116c.171.052.257.12.252.183l-.005.034c-.007.052-.146.1-.376.1-.89,0-2.961-.536-3.426-.537l-.124.05-.007.043c.015.187.294.282.692.392.6.157,1.5.286,2.244.422a8.921,8.921,0,0,1,.948.212c.243.071.377.165.366.212l0,.015-.046.026a2.847,2.847,0,0,1-.717.056c-1.179,0-3.342-.188-4.224-.188-.117,0-.211,0-.28.011l-.088.039-.006,0v.005l-.046.02.025.047.144.044.047-.025-.025-.047h0l-.023-.007a2.212,2.212,0,0,1,.253-.009c.875,0,3.04.187,4.224.187a4.868,4.868,0,0,0,.569-.025c.141-.022.232-.033.266-.11l.006-.037c0-.092-.087-.149-.2-.205a14.326,14.326,0,0,0-2.347-.5,11.847,11.847,0,0,1-1.2-.257c-.317-.088-.506-.2-.494-.28l0-.012.054-.006c.44,0,2.519.537,3.426.537.233,0,.4-.026.448-.152l.009-.055c-.011-.173-.221-.243-.5-.3-.43-.086-1.068-.118-1.6-.182a3.592,3.592,0,0,1-.671-.13c-.171-.058-.257-.131-.254-.207l.006-.034,0,0,.168-.011c.474,0,1.7.122,2.749.122.877-.007,1.633-.068,1.759-.422l0-.026-.162-.148a13.462,13.462,0,0,0-1.774-.366,8.35,8.35,0,0,1-.908-.2c-.24-.071-.378-.167-.367-.219l0-.015c.016-.078.2-.154.468-.2.4-.065.991-.084,1.493-.133s.918-.116,1-.345l0-.027-.129-.132a8.729,8.729,0,0,0-1.371-.256,5.456,5.456,0,0,1-.7-.145c-.185-.054-.285-.129-.277-.175l0-.014a.458.458,0,0,1,.153-.047c.329-.068,1.071-.132,1.744-.226a7.622,7.622,0,0,0,.9-.168c.244-.069.416-.137.461-.261l.007-.049c-.005-.125-.131-.18-.287-.221a6.842,6.842,0,0,0-.878-.107,2.7,2.7,0,0,1-.365-.053l-.1-.038-.023-.028v-.007h0a1.208,1.208,0,0,1,.351-.126c.282-.076.677-.162,1.01-.254s.6-.175.655-.31l0-.023-.084-.091a4.688,4.688,0,0,0-.781-.105,2.1,2.1,0,0,1-.391-.073c-.1-.033-.149-.076-.146-.112l0-.021a.893.893,0,0,1,.347-.212c.307-.139.756-.3,1.134-.448.188-.073.359-.141.486-.2s.209-.1.237-.162l-.024-.046-1.565-.479-.047.025.025.047,1.5.46a9.03,9.03,0,0,1-1.136.472c-.25.1-.495.192-.682.279s-.315.154-.35.24l-.007.044c.005.111.115.161.247.2a5.316,5.316,0,0,0,.745.1,2.627,2.627,0,0,1,.31.043l.084.028.015.012h0c0,.035-.132.112-.319.173-.281.1-.69.19-1.033.274-.171.042-.327.082-.443.119s-.188.059-.219.122h0v0h0l-.006.029c.014.11.137.131.29.161.237.039.586.054.874.091a1.661,1.661,0,0,1,.362.079c.092.035.131.076.129.116l0,.027c-.014.074-.224.174-.53.241a16.57,16.57,0,0,1-1.676.247c-.278.033-.528.062-.712.092-.092.015-.168.03-.224.045l-.115.073-.007.04c.011.142.183.205.415.271.352.095.874.158,1.309.226a5.2,5.2,0,0,1,.55.108l.158.061.043.042v.006c-.023.095-.207.179-.48.229-.407.077-.994.1-1.493.142s-.908.092-.988.3l-.006.039C1167.115,588.839,1167.33,588.915,1167.631,589.005Z" stroke="rgba(0,0,0,0)" stroke-width="1"/>
  </g>
</svg>
